<?xml version="1.0" encoding="UTF-8" standalone="no"?>
<!-- Created with Inkscape (http://www.inkscape.org/) -->

<svg
   xmlns:dc="http://purl.org/dc/elements/1.1/"
   xmlns:cc="http://creativecommons.org/ns#"
   xmlns:rdf="http://www.w3.org/1999/02/22-rdf-syntax-ns#"
   xmlns:svg="http://www.w3.org/2000/svg"
   xmlns="http://www.w3.org/2000/svg"
   xmlns:sodipodi="http://sodipodi.sourceforge.net/DTD/sodipodi-0.dtd"
   xmlns:inkscape="http://www.inkscape.org/namespaces/inkscape"
   width="210mm"
   height="297mm"
   id="svg2"
   version="1.1"
   inkscape:version="0.47 r22583"
   sodipodi:docname="bloc_ftbf_2.svg">
  <sodipodi:namedview
     id="base"
     pagecolor="#ffffff"
     bordercolor="#666666"
     borderopacity="1.0"
     inkscape:pageopacity="0.0"
     inkscape:pageshadow="2"
     inkscape:zoom="4.2795631"
     inkscape:cx="639.01392"
     inkscape:cy="866.55557"
     inkscape:document-units="px"
     inkscape:current-layer="layer1"
     showgrid="true"
     inkscape:window-width="1702"
     inkscape:window-height="895"
     inkscape:window-x="0"
     inkscape:window-y="48"
     inkscape:window-maximized="0"
     showguides="true"
     inkscape:guide-bbox="true">
    <inkscape:grid
       id="grid2816"
       type="xygrid" />
  </sodipodi:namedview>
  <defs
     id="defs4">
    <marker
       inkscape:stockid="Arrow1Mend"
       orient="auto"
       refY="0.0"
       refX="0.0"
       id="Arrow1Mend"
       style="overflow:visible;">
      <path
         id="path3745"
         d="M 0.0,0.0 L 5.0,-5.0 L -12.5,0.0 L 5.0,5.0 L 0.0,0.0 z "
         style="fill-rule:evenodd;stroke:#000000;stroke-width:1.0pt;marker-start:none;"
         transform="scale(0.4) rotate(180) translate(10,0)" />
    </marker>
    <marker
       inkscape:stockid="Arrow1Lend"
       orient="auto"
       refY="0.0"
       refX="0.0"
       id="Arrow1Lend"
       style="overflow:visible;">
      <path
         id="path3739"
         d="M 0.0,0.0 L 5.0,-5.0 L -12.5,0.0 L 5.0,5.0 L 0.0,0.0 z "
         style="fill-rule:evenodd;stroke:#000000;stroke-width:1.0pt;marker-start:none;"
         transform="scale(0.8) rotate(180) translate(12.5,0)" />
    </marker>
    <inkscape:perspective
       id="perspective10"
       inkscape:persp3d-origin="372.04724 : 350.78739 : 1"
       inkscape:vp_z="744.09448 : 526.18109 : 1"
       inkscape:vp_y="0 : 1000 : 0"
       inkscape:vp_x="0 : 526.18109 : 1"
       sodipodi:type="inkscape:persp3d" />
    <inkscape:perspective
       sodipodi:type="inkscape:persp3d"
       inkscape:vp_x="0 : 0.5 : 1"
       inkscape:vp_y="0 : 1000 : 0"
       inkscape:vp_z="1 : 0.5 : 1"
       inkscape:persp3d-origin="0.5 : 0.33333333 : 1"
       id="perspective6064" />
  </defs>
  <metadata
     id="metadata7">
    <rdf:RDF>
      <cc:Work
         rdf:about="">
        <dc:format>image/svg+xml</dc:format>
        <dc:type
           rdf:resource="http://purl.org/dc/dcmitype/StillImage" />
        <dc:title />
      </cc:Work>
    </rdf:RDF>
  </metadata>
  <g
     id="layer1"
     inkscape:groupmode="layer"
     inkscape:label="Calque 1">
    <path
       style="fill:none;stroke:#000000;stroke-width:1px;stroke-linecap:butt;stroke-linejoin:miter;stroke-opacity:1;marker-end:url(#Arrow1Mend)"
       d="m 235,157.36218 50,0"
       id="path7274" />
    <rect
       y="137.36218"
       x="165"
       height="40"
       width="70"
       id="rect7656"
       style="fill:none;stroke:#000000;stroke-width:1;stroke-linecap:round;stroke-miterlimit:4;stroke-opacity:1;stroke-dasharray:none;stroke-dashoffset:0" />
    <g
       transform="matrix(0.38713612,0,0,0.38713612,74.860082,25.884809)"
       id="g7865">
      <g
         style="font-style:normal;font-variant:normal;font-weight:normal;font-stretch:normal;letter-spacing:normal;word-spacing:normal;text-anchor:start;fill:none;stroke:#000000;stroke-width:2.58307076;stroke-linecap:butt;stroke-linejoin:miter;stroke-miterlimit:10.43299961;stroke-opacity:1;stroke-dasharray:none;stroke-dashoffset:0"
         id="content"
         transform="matrix(1.0629921,0,0,-1.0629921,-186.02362,789.27165)"
         xml:space="preserve"
         stroke-miterlimit="10.433"
         fill-rule="even-odd"
         font-style="normal"
         font-variant="normal"
         font-weight="normal"
         font-stretch="normal"
         font-size-adjust="none"
         letter-spacing="normal"
         word-spacing="normal"><path
           style="fill:#000000;stroke-width:0"
           d="m 481.36,426.12 -0.01,0.02 -0.01,0.02 0,0.01 -0.01,0.02 -0.01,0.02 -0.01,0.02 -0.01,0.02 -0.01,0.03 0,0.02 -0.02,0.02 -0.01,0.03 -0.01,0.02 -0.02,0.05 -0.02,0.05 -0.02,0.05 -0.02,0.05 -0.01,0.03 -0.01,0.02 -0.01,0.03 0,0.02 -0.01,0.02 -0.01,0.02 0,0.02 -0.01,0.02 0,0.02 0,0.02 0,0.02 0,0.01 c 0,0.05 0.89,0.75 1.44,1.15 l 8.72,6.72 c 4.68,3.44 6.62,3.64 8.12,3.79 0.4,0.05 0.9,0.1 0.9,0.99 0,0.2 -0.16,0.55 -0.56,0.55 h -9.06 c -0.35,0 -0.95,0 -0.95,-0.99 0,-0.35 0.25,-0.5 0.6,-0.55 1.1,-0.1 1.55,-0.35 1.55,-1.05 0,-0.89 -1.5,-2.04 -1.8,-2.29 l -19.43,-14.94 3.99,15.99 c 0.45,1.79 0.55,2.29 4.18,2.29 1.25,0 1.7,0 1.7,0.99 0,0.45 -0.4,0.55 -0.7,0.55 h -12.8 c -0.35,0 -1,0 -1,-0.95 0,-0.59 0.45,-0.59 1.45,-0.59 0.65,0 1.54,-0.05 2.14,-0.1 0.79,-0.1 1.1,-0.25 1.1,-0.8 0,-0.2 -0.06,-0.35 -0.2,-0.94 l -6.68,-26.75 c -0.5,-1.95 -0.6,-2.35 -4.53,-2.35 -0.85,0 -1.4,0 -1.4,-0.94 0,-0.6 0.6,-0.6 0.75,-0.6 1.4,0 4.93,0.15 6.32,0.15 1.05,0 2.15,-0.05 3.2,-0.05 1.09,0 2.19,-0.1 3.23,-0.1 0.35,0 1,0 1,1 0,0.54 -0.45,0.54 -1.4,0.54 -1.84,0 -3.23,0 -3.23,0.9 0,0.35 0.29,1.45 0.44,2.19 0.7,2.59 1.35,5.23 2,7.82 l 7.42,5.78 5.78,-13.4 c 0.6,-1.34 0.6,-1.44 0.6,-1.74 0,-1.5 -2.15,-1.55 -2.59,-1.55 -0.55,0 -1.1,0 -1.1,-0.99 0,-0.55 0.6,-0.55 0.7,-0.55 h 10.95 c 0.25,0 0.9,0 0.9,1 0,0.54 -0.55,0.54 -0.99,0.54 -2.05,0.05 -2.69,0.5 -3.44,2.25 z"
           id="path7868" /></g>    </g>
    <g
       id="g7949"
       transform="matrix(0.26441218,0,0,0.26441218,226.98193,66.283479)">
      <g
         word-spacing="normal"
         letter-spacing="normal"
         font-size-adjust="none"
         font-stretch="normal"
         font-weight="normal"
         font-variant="normal"
         font-style="normal"
         fill-rule="even-odd"
         stroke-miterlimit="10.433"
         xml:space="preserve"
         transform="matrix(1.0629921,0,0,-1.0629921,-186.02362,789.27165)"
         id="g7951"
         style="font-style:normal;font-variant:normal;font-weight:normal;font-stretch:normal;letter-spacing:normal;word-spacing:normal;text-anchor:start;fill:none;stroke:#000000;stroke-width:3.78197408;stroke-linecap:butt;stroke-linejoin:miter;stroke-miterlimit:10.43299961;stroke-opacity:1;stroke-dasharray:none;stroke-dashoffset:0"><path
           id="path7953"
           d="m 493.86,440.62 0,0.02 0,0.01 0,0.02 -0.01,0.02 0,0.01 0,0.02 -0.01,0.02 0,0.02 -0.01,0.02 -0.01,0.02 -0.01,0.02 -0.01,0.02 -0.01,0.02 -0.01,0.02 -0.01,0.02 -0.02,0.02 -0.01,0.02 -0.02,0.02 -0.02,0.02 -0.02,0.02 -0.02,0.02 -0.02,0.01 -0.03,0.02 -0.03,0.01 -0.02,0.01 -0.02,0.01 -0.01,0 -0.02,0.01 -0.02,0 -0.01,0.01 -0.02,0 -0.02,0.01 -0.01,0 -0.02,0 -0.02,0 -0.02,0 -0.02,0.01 -0.02,0 -0.02,0 c -0.15,0 -0.2,-0.05 -0.75,-0.6 l -3.49,-3.84 c -0.44,0.7 -2.73,4.44 -8.26,4.44 -11.11,0 -22.32,-11.01 -22.32,-22.57 0,-7.92 5.53,-13.65 13.6,-13.65 2.19,0 4.43,0.45 6.23,1.2 2.49,1 3.43,2.04 4.33,3.04 0.45,-1.25 1.74,-3.09 2.24,-3.09 0.25,0 0.35,0.15 0.35,0.2 0.1,0.1 0.6,1.99 0.85,3.04 l 0.95,3.83 c 0.19,0.85 0.44,1.7 0.64,2.54 0.55,2.25 0.6,2.34 3.44,2.39 0.25,0 0.79,0.06 0.79,1 0,0.35 -0.24,0.55 -0.64,0.55 h -12.21 c -0.45,0 -1.04,0 -1.04,-1 0,-0.55 0.39,-0.55 1.49,-0.55 0.05,0 1.5,0 2.64,-0.09 1.3,-0.16 1.55,-0.3 1.55,-0.95 0,-0.45 -0.55,-2.69 -1.05,-4.53 -1.4,-5.48 -7.87,-6.03 -9.61,-6.03 -4.79,0 -10.02,2.84 -10.02,10.46 0,1.54 0.5,9.76 5.73,16.24 2.69,3.39 7.52,6.42 12.46,6.42 5.08,0 8.02,-3.83 8.02,-9.61 0,-1.99 -0.16,-2.04 -0.16,-2.54 0,-0.5 0.55,-0.5 0.75,-0.5 0.65,0 0.65,0.1 0.9,1 z"
           style="fill:#000000;stroke-width:0" /><path
           id="path7955"
           d="m 511.49,394.04 0,0.03 0,0.03 -0.01,0.01 0,0.02 0,0.01 -0.01,0.02 0,0.02 -0.01,0.01 -0.01,0.02 -0.01,0.02 -0.01,0.03 -0.01,0.02 -0.02,0.02 -0.02,0.03 -0.02,0.03 -0.02,0.03 -0.03,0.03 -0.03,0.04 -0.01,0.02 -0.02,0.02 -0.02,0.02 -0.02,0.02 -0.02,0.02 -0.02,0.03 -0.02,0.02 -0.02,0.02 -0.02,0.03 -0.03,0.02 -0.02,0.03 -0.03,0.03 -0.02,0.03 -0.03,0.03 -0.03,0.03 -0.03,0.03 -0.03,0.03 -0.03,0.03 -0.04,0.04 -0.03,0.03 -0.04,0.04 -0.03,0.03 -0.04,0.04 -0.04,0.04 c -6.23,6.28 -7.82,15.69 -7.82,23.31 0,8.67 1.89,17.34 8.02,23.57 0.65,0.59 0.65,0.69 0.65,0.84 0,0.35 -0.2,0.5 -0.5,0.5 -0.5,0 -4.98,-3.39 -7.92,-9.72 -2.54,-5.47 -3.14,-11 -3.14,-15.19 0,-3.88 0.55,-9.91 3.29,-15.54 2.99,-6.12 7.27,-9.36 7.77,-9.36 0.3,0 0.5,0.15 0.5,0.49 z"
           style="fill:#000000;stroke-width:0" /><path
           id="path7957"
           d="m 516.24,399.92 -0.03,-0.15 -0.04,-0.15 -0.03,-0.14 -0.04,-0.13 -0.03,-0.13 -0.04,-0.11 -0.03,-0.12 -0.04,-0.1 -0.04,-0.1 -0.04,-0.09 -0.04,-0.09 -0.05,-0.08 -0.05,-0.07 -0.05,-0.07 -0.06,-0.07 -0.06,-0.05 -0.07,-0.06 -0.07,-0.05 -0.08,-0.04 -0.09,-0.04 -0.09,-0.04 -0.1,-0.03 -0.11,-0.03 -0.12,-0.02 -0.13,-0.02 -0.13,-0.02 -0.07,0 -0.08,-0.01 -0.07,-0.01 -0.08,0 -0.08,-0.01 -0.09,0 -0.08,0 -0.09,-0.01 -0.09,0 -0.1,0 -0.1,0 -0.1,0 c -0.6,0 -1.14,0 -1.14,-0.95 0,-0.39 0.25,-0.59 0.64,-0.59 h 9.12 c 0.25,0 0.9,0 0.9,0.99 0,0.55 -0.5,0.55 -1.2,0.55 -2.49,0 -2.49,0.35 -2.49,0.8 0,0.59 2.09,8.71 2.44,9.96 0.65,-1.44 2.04,-3.19 4.58,-3.19 l -0.05,1.1 c -3.28,0 -3.93,4.13 -3.93,4.43 0,0.1 0,0.2 0.15,0.8 l 2.44,9.76 c 0.34,1.35 1.69,2.74 2.59,3.49 1.74,1.54 3.18,1.89 4.03,1.89 1.99,0 3.19,-1.74 3.19,-4.68 0,-2.94 -1.64,-8.67 -2.54,-10.56 -1.69,-3.49 -4.08,-5.13 -5.93,-5.13 l 0.05,-1.1 c 5.78,0 12.01,7.28 12.01,14.6 0,4.68 -2.84,7.97 -6.63,7.97 -2.49,0 -4.88,-1.8 -6.52,-3.74 -0.5,2.69 -2.64,3.74 -4.49,3.74 -2.29,0 -3.24,-1.95 -3.68,-2.84 -0.9,-1.7 -1.55,-4.68 -1.55,-4.83 0,-0.5 0.5,-0.5 0.6,-0.5 0.5,0 0.55,0.05 0.85,1.14 0.85,3.54 1.84,5.93 3.63,5.93 0.85,0 1.55,-0.4 1.55,-2.29 0,-1.15 -0.15,-1.69 -0.35,-2.54 z"
           style="fill:#000000;stroke-width:0" /><path
           id="path7959"
           d="m 553.4,418.45 -0.01,0.37 0,0.39 -0.01,0.39 -0.01,0.41 -0.04,0.84 -0.06,0.88 -0.09,0.92 -0.1,0.94 -0.14,0.98 -0.16,1 -0.2,1.02 -0.23,1.04 -0.27,1.05 -0.3,1.06 -0.35,1.06 -0.39,1.07 -0.22,0.53 -0.22,0.54 -0.24,0.53 -0.25,0.53 c -2.99,6.12 -7.27,9.36 -7.77,9.36 -0.3,0 -0.5,-0.2 -0.5,-0.5 0,-0.15 0,-0.25 0.94,-1.15 4.89,-4.92 7.73,-12.85 7.73,-23.26 0,-8.52 -1.85,-17.28 -8.02,-23.56 -0.65,-0.6 -0.65,-0.69 -0.65,-0.85 0,-0.29 0.2,-0.49 0.5,-0.49 0.5,0 4.98,3.38 7.92,9.71 2.54,5.48 3.14,11.01 3.14,15.19 z"
           style="fill:#000000;stroke-width:0" /></g>    </g>
    <g
       id="g8017"
       transform="matrix(0.26441218,0,0,0.26441218,-35.756675,51.186511)">
      <g
         id="g8019"
         transform="matrix(1.0629921,0,0,-1.0629921,-186.02362,789.27165)"
         xml:space="preserve"
         stroke-miterlimit="10.433"
         fill-rule="even-odd"
         font-style="normal"
         font-variant="normal"
         font-weight="normal"
         font-stretch="normal"
         font-size-adjust="none"
         letter-spacing="normal"
         word-spacing="normal"
         style="font-style:normal;font-variant:normal;font-weight:normal;font-stretch:normal;letter-spacing:normal;word-spacing:normal;text-anchor:start;fill:none;stroke:#000000;stroke-width:3.78197408;stroke-linecap:butt;stroke-linejoin:miter;stroke-miterlimit:10.43299961;stroke-opacity:1;stroke-dasharray:none;stroke-dashoffset:0"><path
           d="m 491.27,417.61 0.01,0.02 0.01,0.02 0.02,0.05 0.02,0.05 0.02,0.06 0.02,0.05 0.02,0.05 0.02,0.05 0.02,0.05 0.01,0.02 0.01,0.03 0.01,0.02 0,0.02 0.01,0.03 0.01,0.02 0.01,0.02 0,0.02 0.01,0.02 0,0.01 0.01,0.02 0,0.02 0,0.01 0,0.01 0.01,0.01 0,0.01 c 0,0.06 0,0.55 -0.6,0.55 -0.45,0 -0.55,-0.3 -0.65,-0.6 -3.23,-7.37 -5.08,-10.71 -13.6,-10.71 h -7.27 c -0.7,0 -0.8,0 -1.1,0.05 -0.5,0.05 -0.64,0.11 -0.64,0.5 0,0.15 0,0.25 0.25,1.15 l 3.38,13.6 h 4.93 c 4.24,0 4.24,-1.05 4.24,-2.29 0,-0.35 0,-0.95 -0.35,-2.44 -0.1,-0.25 -0.15,-0.4 -0.15,-0.56 0,-0.24 0.2,-0.54 0.65,-0.54 0.4,0 0.55,0.25 0.75,0.99 l 2.84,11.66 c 0,0.3 -0.25,0.55 -0.6,0.55 -0.45,0 -0.55,-0.3 -0.7,-0.9 -1.05,-3.78 -1.94,-4.93 -6.52,-4.93 h -4.69 l 2.99,12.01 c 0.45,1.74 0.5,1.94 2.69,1.94 h 7.02 c 6.08,0 7.57,-1.45 7.57,-5.53 0,-1.19 0,-1.3 -0.19,-2.64 0,-0.3 -0.06,-0.65 -0.06,-0.9 0,-0.25 0.16,-0.6 0.6,-0.6 0.55,0 0.6,0.3 0.7,1.25 l 1,8.62 c 0.15,1.34 -0.1,1.34 -1.35,1.34 h -25.15 c -1,0 -1.5,0 -1.5,-0.99 0,-0.55 0.45,-0.55 1.4,-0.55 1.84,0 3.23,0 3.23,-0.9 0,-0.2 0,-0.3 -0.25,-1.19 l -6.57,-26.35 c -0.5,-1.95 -0.6,-2.35 -4.53,-2.35 -0.85,0 -1.4,0 -1.4,-0.94 0,-0.6 0.45,-0.6 1.4,-0.6 h 25.85 c 1.15,0 1.2,0.05 1.54,0.85 z"
           id="path8021"
           style="fill:#000000;stroke-width:0" /><path
           d="m 511.49,394.04 0,0.03 0,0.03 -0.01,0.01 0,0.02 0,0.01 -0.01,0.02 0,0.02 -0.01,0.01 -0.01,0.02 -0.01,0.02 -0.01,0.03 -0.01,0.02 -0.02,0.02 -0.02,0.03 -0.02,0.03 -0.02,0.03 -0.03,0.03 -0.03,0.04 -0.01,0.02 -0.02,0.02 -0.02,0.02 -0.02,0.02 -0.02,0.02 -0.02,0.03 -0.02,0.02 -0.02,0.02 -0.02,0.03 -0.03,0.02 -0.02,0.03 -0.03,0.03 -0.02,0.03 -0.03,0.03 -0.03,0.03 -0.03,0.03 -0.03,0.03 -0.03,0.03 -0.04,0.04 -0.03,0.03 -0.04,0.04 -0.03,0.03 -0.04,0.04 -0.04,0.04 c -6.23,6.28 -7.82,15.69 -7.82,23.31 0,8.67 1.89,17.34 8.02,23.57 0.65,0.59 0.65,0.69 0.65,0.84 0,0.35 -0.2,0.5 -0.5,0.5 -0.5,0 -4.98,-3.39 -7.92,-9.72 -2.54,-5.47 -3.14,-11 -3.14,-15.19 0,-3.88 0.55,-9.91 3.29,-15.54 2.99,-6.12 7.27,-9.36 7.77,-9.36 0.3,0 0.5,0.15 0.5,0.49 z"
           id="path8023"
           style="fill:#000000;stroke-width:0" /><path
           d="m 516.24,399.92 -0.03,-0.15 -0.04,-0.15 -0.03,-0.14 -0.04,-0.13 -0.03,-0.13 -0.04,-0.11 -0.03,-0.12 -0.04,-0.1 -0.04,-0.1 -0.04,-0.09 -0.04,-0.09 -0.05,-0.08 -0.05,-0.07 -0.05,-0.07 -0.06,-0.07 -0.06,-0.05 -0.07,-0.06 -0.07,-0.05 -0.08,-0.04 -0.09,-0.04 -0.09,-0.04 -0.1,-0.03 -0.11,-0.03 -0.12,-0.02 -0.13,-0.02 -0.13,-0.02 -0.07,0 -0.08,-0.01 -0.07,-0.01 -0.08,0 -0.08,-0.01 -0.09,0 -0.08,0 -0.09,-0.01 -0.09,0 -0.1,0 -0.1,0 -0.1,0 c -0.6,0 -1.14,0 -1.14,-0.95 0,-0.39 0.25,-0.59 0.64,-0.59 h 9.12 c 0.25,0 0.9,0 0.9,0.99 0,0.55 -0.5,0.55 -1.2,0.55 -2.49,0 -2.49,0.35 -2.49,0.8 0,0.59 2.09,8.71 2.44,9.96 0.65,-1.44 2.04,-3.19 4.58,-3.19 l -0.05,1.1 c -3.28,0 -3.93,4.13 -3.93,4.43 0,0.1 0,0.2 0.15,0.8 l 2.44,9.76 c 0.34,1.35 1.69,2.74 2.59,3.49 1.74,1.54 3.18,1.89 4.03,1.89 1.99,0 3.19,-1.74 3.19,-4.68 0,-2.94 -1.64,-8.67 -2.54,-10.56 -1.69,-3.49 -4.08,-5.13 -5.93,-5.13 l 0.05,-1.1 c 5.78,0 12.01,7.28 12.01,14.6 0,4.68 -2.84,7.97 -6.63,7.97 -2.49,0 -4.88,-1.8 -6.52,-3.74 -0.5,2.69 -2.64,3.74 -4.49,3.74 -2.29,0 -3.24,-1.95 -3.68,-2.84 -0.9,-1.7 -1.55,-4.68 -1.55,-4.83 0,-0.5 0.5,-0.5 0.6,-0.5 0.5,0 0.55,0.05 0.85,1.14 0.85,3.54 1.84,5.93 3.63,5.93 0.85,0 1.55,-0.4 1.55,-2.29 0,-1.15 -0.15,-1.69 -0.35,-2.54 z"
           id="path8025"
           style="fill:#000000;stroke-width:0" /><path
           d="m 554.4,418.45 -0.01,0.37 0,0.39 -0.01,0.39 -0.01,0.41 -0.04,0.84 -0.06,0.88 -0.09,0.92 -0.1,0.94 -0.14,0.98 -0.16,1 -0.2,1.02 -0.23,1.04 -0.27,1.05 -0.3,1.06 -0.35,1.06 -0.39,1.07 -0.22,0.53 -0.22,0.54 -0.24,0.53 -0.25,0.53 c -2.99,6.12 -7.27,9.36 -7.77,9.36 -0.3,0 -0.5,-0.2 -0.5,-0.5 0,-0.15 0,-0.25 0.94,-1.15 4.89,-4.92 7.73,-12.85 7.73,-23.26 0,-8.52 -1.85,-17.28 -8.02,-23.56 -0.65,-0.6 -0.65,-0.69 -0.65,-0.85 0,-0.29 0.2,-0.49 0.5,-0.49 0.5,0 4.98,3.38 7.92,9.71 2.54,5.48 3.14,11.01 3.14,15.19 z"
           id="path8027"
           style="fill:#000000;stroke-width:0" /></g>    </g>
    <g
       id="g8097"
       transform="matrix(0.26441218,0,0,0.26441218,336.68019,48.662721)">
      <g
         word-spacing="normal"
         letter-spacing="normal"
         font-size-adjust="none"
         font-stretch="normal"
         font-weight="normal"
         font-variant="normal"
         font-style="normal"
         fill-rule="even-odd"
         stroke-miterlimit="10.433"
         xml:space="preserve"
         transform="matrix(1.0629921,0,0,-1.0629921,-186.02362,789.27165)"
         id="g8099"
         style="font-style:normal;font-variant:normal;font-weight:normal;font-stretch:normal;letter-spacing:normal;word-spacing:normal;text-anchor:start;fill:none;stroke:#000000;stroke-width:3.78197408;stroke-linecap:butt;stroke-linejoin:miter;stroke-miterlimit:10.43299961;stroke-opacity:1;stroke-dasharray:none;stroke-dashoffset:0"><path
           id="path8101"
           d="m 488.13,440.62 0,0.02 0,0.01 0,0.02 -0.01,0.02 0,0.01 0,0.02 -0.01,0.02 0,0.02 -0.01,0.02 -0.01,0.02 -0.01,0.02 -0.01,0.02 -0.01,0.02 -0.01,0.02 -0.01,0.02 -0.02,0.02 -0.01,0.02 -0.02,0.02 -0.02,0.02 -0.02,0.02 -0.02,0.02 -0.02,0.01 -0.03,0.02 -0.02,0.01 -0.03,0.01 -0.02,0.01 -0.01,0 -0.02,0.01 -0.01,0 -0.02,0.01 -0.02,0 -0.01,0.01 -0.02,0 -0.02,0 -0.02,0 -0.02,0 -0.02,0.01 -0.02,0 -0.02,0 c -0.25,0 -0.3,-0.05 -0.9,-0.75 l -2.39,-2.84 c -1.29,2.34 -3.88,3.59 -7.12,3.59 -6.33,0 -12.3,-5.73 -12.3,-11.76 0,-4.03 2.64,-6.32 5.18,-7.07 l 5.33,-1.4 c 1.84,-0.44 4.58,-1.19 4.58,-5.28 0,-4.48 -4.08,-9.16 -8.97,-9.16 -3.19,0 -8.71,1.09 -8.71,7.27 0,1.2 0.25,2.39 0.29,2.69 0.05,0.2 0.11,0.25 0.11,0.35 0,0.5 -0.35,0.55 -0.6,0.55 -0.25,0 -0.35,-0.05 -0.5,-0.2 -0.2,-0.2 -2.99,-11.56 -2.99,-11.71 0,-0.3 0.25,-0.5 0.55,-0.5 0.25,0 0.3,0.05 0.9,0.75 l 2.44,2.84 c 2.14,-2.89 5.52,-3.59 8.41,-3.59 6.78,0 12.66,6.63 12.66,12.81 0,3.43 -1.7,5.13 -2.44,5.83 -1.15,1.14 -1.9,1.34 -6.33,2.48 -1.1,0.3 -2.89,0.8 -3.34,0.9 -1.34,0.45 -3.04,1.89 -3.04,4.53 0,4.04 3.99,8.27 8.72,8.27 4.13,0 7.17,-2.14 7.17,-7.72 0,-1.59 -0.2,-2.49 -0.2,-2.79 0,-0.05 0,-0.5 0.6,-0.5 0.5,0 0.55,0.15 0.75,1 z"
           style="fill:#000000;stroke-width:0" /><path
           id="path8103"
           d="m 505.49,394.04 0,0.03 0,0.03 -0.01,0.01 0,0.02 0,0.01 -0.01,0.02 0,0.02 -0.01,0.01 -0.01,0.02 -0.01,0.02 -0.01,0.03 -0.01,0.02 -0.02,0.02 -0.02,0.03 -0.02,0.03 -0.02,0.03 -0.03,0.03 -0.03,0.04 -0.01,0.02 -0.02,0.02 -0.02,0.02 -0.02,0.02 -0.02,0.02 -0.02,0.03 -0.02,0.02 -0.02,0.02 -0.02,0.03 -0.03,0.02 -0.02,0.03 -0.03,0.03 -0.02,0.03 -0.03,0.03 -0.03,0.03 -0.03,0.03 -0.03,0.03 -0.03,0.03 -0.04,0.04 -0.03,0.03 -0.04,0.04 -0.03,0.03 -0.04,0.04 -0.04,0.04 c -6.23,6.28 -7.82,15.69 -7.82,23.31 0,8.67 1.89,17.34 8.02,23.57 0.65,0.59 0.65,0.69 0.65,0.84 0,0.35 -0.2,0.5 -0.5,0.5 -0.5,0 -4.98,-3.39 -7.92,-9.72 -2.54,-5.47 -3.14,-11 -3.14,-15.19 0,-3.88 0.55,-9.91 3.29,-15.54 2.99,-6.12 7.27,-9.36 7.77,-9.36 0.3,0 0.5,0.15 0.5,0.49 z"
           style="fill:#000000;stroke-width:0" /><path
           id="path8105"
           d="m 510.24,399.92 -0.03,-0.15 -0.04,-0.15 -0.03,-0.14 -0.04,-0.13 -0.03,-0.13 -0.04,-0.11 -0.03,-0.12 -0.04,-0.1 -0.04,-0.1 -0.04,-0.09 -0.04,-0.09 -0.05,-0.08 -0.05,-0.07 -0.05,-0.07 -0.06,-0.07 -0.06,-0.05 -0.07,-0.06 -0.07,-0.05 -0.08,-0.04 -0.09,-0.04 -0.09,-0.04 -0.1,-0.03 -0.11,-0.03 -0.12,-0.02 -0.13,-0.02 -0.13,-0.02 -0.07,0 -0.08,-0.01 -0.07,-0.01 -0.08,0 -0.08,-0.01 -0.09,0 -0.08,0 -0.09,-0.01 -0.09,0 -0.1,0 -0.1,0 -0.1,0 c -0.6,0 -1.14,0 -1.14,-0.95 0,-0.39 0.25,-0.59 0.64,-0.59 h 9.12 c 0.25,0 0.9,0 0.9,0.99 0,0.55 -0.5,0.55 -1.2,0.55 -2.49,0 -2.49,0.35 -2.49,0.8 0,0.59 2.09,8.71 2.44,9.96 0.65,-1.44 2.04,-3.19 4.58,-3.19 l -0.05,1.1 c -3.28,0 -3.93,4.13 -3.93,4.43 0,0.1 0,0.2 0.15,0.8 l 2.44,9.76 c 0.34,1.35 1.69,2.74 2.59,3.49 1.74,1.54 3.18,1.89 4.03,1.89 1.99,0 3.19,-1.74 3.19,-4.68 0,-2.94 -1.64,-8.67 -2.54,-10.56 -1.69,-3.49 -4.08,-5.13 -5.93,-5.13 l 0.05,-1.1 c 5.78,0 12.01,7.28 12.01,14.6 0,4.68 -2.84,7.97 -6.63,7.97 -2.49,0 -4.88,-1.8 -6.52,-3.74 -0.5,2.69 -2.64,3.74 -4.49,3.74 -2.29,0 -3.23,-1.95 -3.68,-2.84 -0.9,-1.7 -1.55,-4.68 -1.55,-4.83 0,-0.5 0.5,-0.5 0.6,-0.5 0.5,0 0.55,0.05 0.85,1.14 0.85,3.54 1.84,5.93 3.63,5.93 0.85,0 1.55,-0.4 1.55,-2.29 0,-1.15 -0.15,-1.69 -0.35,-2.54 z"
           style="fill:#000000;stroke-width:0" /><path
           id="path8107"
           d="m 547.4,418.45 -0.01,0.37 0,0.39 -0.01,0.39 -0.01,0.41 -0.04,0.84 -0.06,0.88 -0.09,0.92 -0.1,0.94 -0.14,0.98 -0.16,1 -0.2,1.02 -0.23,1.04 -0.27,1.05 -0.3,1.06 -0.35,1.06 -0.39,1.07 -0.22,0.53 -0.22,0.54 -0.24,0.53 -0.25,0.53 c -2.99,6.12 -7.27,9.36 -7.77,9.36 -0.3,0 -0.5,-0.2 -0.5,-0.5 0,-0.15 0,-0.25 0.94,-1.15 4.89,-4.92 7.73,-12.85 7.73,-23.26 0,-8.52 -1.85,-17.28 -8.02,-23.56 -0.65,-0.6 -0.65,-0.69 -0.65,-0.85 0,-0.29 0.2,-0.49 0.5,-0.49 0.5,0 4.98,3.38 7.92,9.71 2.54,5.48 3.14,11.01 3.14,15.19 z"
           style="fill:#000000;stroke-width:0" /></g>    </g>
    <g
       id="g8189"
       transform="matrix(0.26441218,0,0,0.26441218,167.06625,136.28348)">
      <g
         id="g8191"
         transform="matrix(1.0629921,0,0,-1.0629921,-186.02362,789.27165)"
         xml:space="preserve"
         stroke-miterlimit="10.433"
         fill-rule="even-odd"
         font-style="normal"
         font-variant="normal"
         font-weight="normal"
         font-stretch="normal"
         font-size-adjust="none"
         letter-spacing="normal"
         word-spacing="normal"
         style="font-style:normal;font-variant:normal;font-weight:normal;font-stretch:normal;letter-spacing:normal;word-spacing:normal;text-anchor:start;fill:none;stroke:#000000;stroke-width:3.78197408;stroke-linecap:butt;stroke-linejoin:miter;stroke-miterlimit:10.43299961;stroke-opacity:1;stroke-dasharray:none;stroke-dashoffset:0"><path
           d="m 471.09,422.19 h 4.84 c 3.73,0 4.13,-0.8 4.13,-2.24 0,-0.35 0,-0.95 -0.35,-2.44 -0.1,-0.25 -0.15,-0.45 -0.15,-0.55 0,-0.4 0.3,-0.6 0.6,-0.6 0.5,0 0.5,0.15 0.75,1.05 l 2.73,10.8 c 0.16,0.56 0.16,0.65 0.16,0.8 0,0.1 -0.1,0.55 -0.6,0.55 -0.5,0 -0.55,-0.25 -0.75,-1.04 -1.04,-3.89 -2.19,-4.79 -6.43,-4.79 h -4.53 l 3.19,12.66 c 0.45,1.74 0.5,1.94 2.69,1.94 h 6.58 c 6.12,0 7.27,-1.65 7.27,-5.48 0,-1.15 0,-1.35 -0.15,-2.69 -0.1,-0.65 -0.1,-0.75 -0.1,-0.9 0,-0.25 0.15,-0.6 0.6,-0.6 0.54,0 0.59,0.3 0.7,1.25 l 0.99,8.62 c 0.15,1.34 -0.1,1.34 -1.35,1.34 h -24.4 c -1,0 -1.5,0 -1.5,-0.99 0,-0.55 0.45,-0.55 1.4,-0.55 1.84,0 3.23,0 3.23,-0.9 0,-0.2 0,-0.3 -0.25,-1.19 l -6.57,-26.35 c -0.5,-1.95 -0.6,-2.35 -4.53,-2.35 -0.85,0 -1.4,0 -1.4,-0.94 0,-0.6 0.6,-0.6 0.75,-0.6 h 14 c 0.45,0 1.04,0 1.04,0.95 0,0.39 -0.29,0.5 -0.29,0.55 -0.16,0.04 -0.25,0.04 -1.4,0.04 -1.1,0 -1.35,0 -2.59,0.1 -1.44,0.15 -1.6,0.35 -1.6,1 0,0.1 0,0.4 0.2,1.15 z"
           id="path8193"
           style="fill:#000000;stroke-width:0" /><path
           d="m 511.49,394.04 0,0.03 0,0.03 -0.01,0.01 0,0.02 0,0.01 -0.01,0.02 0,0.02 -0.01,0.01 -0.01,0.02 -0.01,0.02 -0.01,0.03 -0.01,0.02 -0.02,0.02 -0.02,0.03 -0.02,0.03 -0.02,0.03 -0.03,0.03 -0.03,0.04 -0.01,0.02 -0.02,0.02 -0.02,0.02 -0.02,0.02 -0.02,0.02 -0.02,0.03 -0.02,0.02 -0.02,0.02 -0.02,0.03 -0.03,0.02 -0.02,0.03 -0.03,0.03 -0.02,0.03 -0.03,0.03 -0.03,0.03 -0.03,0.03 -0.03,0.03 -0.03,0.03 -0.04,0.04 -0.03,0.03 -0.04,0.04 -0.03,0.03 -0.04,0.04 -0.04,0.04 c -6.23,6.28 -7.82,15.69 -7.82,23.31 0,8.67 1.89,17.34 8.02,23.57 0.65,0.59 0.65,0.69 0.65,0.84 0,0.35 -0.2,0.5 -0.5,0.5 -0.5,0 -4.98,-3.39 -7.92,-9.72 -2.54,-5.47 -3.14,-11 -3.14,-15.19 0,-3.88 0.55,-9.91 3.29,-15.54 2.99,-6.12 7.27,-9.36 7.77,-9.36 0.3,0 0.5,0.15 0.5,0.49 z"
           id="path8195"
           style="fill:#000000;stroke-width:0" /><path
           d="m 516.24,399.92 -0.03,-0.15 -0.04,-0.15 -0.03,-0.14 -0.04,-0.13 -0.03,-0.13 -0.04,-0.11 -0.03,-0.12 -0.04,-0.1 -0.04,-0.1 -0.04,-0.09 -0.04,-0.09 -0.05,-0.08 -0.05,-0.07 -0.05,-0.07 -0.06,-0.07 -0.06,-0.05 -0.07,-0.06 -0.07,-0.05 -0.08,-0.04 -0.09,-0.04 -0.09,-0.04 -0.1,-0.03 -0.11,-0.03 -0.12,-0.02 -0.13,-0.02 -0.13,-0.02 -0.07,0 -0.08,-0.01 -0.07,-0.01 -0.08,0 -0.08,-0.01 -0.09,0 -0.08,0 -0.09,-0.01 -0.09,0 -0.1,0 -0.1,0 -0.1,0 c -0.6,0 -1.14,0 -1.14,-0.95 0,-0.39 0.25,-0.59 0.64,-0.59 h 9.12 c 0.25,0 0.9,0 0.9,0.99 0,0.55 -0.5,0.55 -1.2,0.55 -2.49,0 -2.49,0.35 -2.49,0.8 0,0.59 2.09,8.71 2.44,9.96 0.65,-1.44 2.04,-3.19 4.58,-3.19 l -0.05,1.1 c -3.28,0 -3.93,4.13 -3.93,4.43 0,0.1 0,0.2 0.15,0.8 l 2.44,9.76 c 0.34,1.35 1.69,2.74 2.59,3.49 1.74,1.54 3.18,1.89 4.03,1.89 1.99,0 3.19,-1.74 3.19,-4.68 0,-2.94 -1.64,-8.67 -2.54,-10.56 -1.69,-3.49 -4.08,-5.13 -5.93,-5.13 l 0.05,-1.1 c 5.78,0 12.01,7.28 12.01,14.6 0,4.68 -2.84,7.97 -6.63,7.97 -2.49,0 -4.88,-1.8 -6.52,-3.74 -0.5,2.69 -2.64,3.74 -4.49,3.74 -2.29,0 -3.24,-1.95 -3.68,-2.84 -0.9,-1.7 -1.55,-4.68 -1.55,-4.83 0,-0.5 0.5,-0.5 0.6,-0.5 0.5,0 0.55,0.05 0.85,1.14 0.85,3.54 1.84,5.93 3.63,5.93 0.85,0 1.55,-0.4 1.55,-2.29 0,-1.15 -0.15,-1.69 -0.35,-2.54 z"
           id="path8197"
           style="fill:#000000;stroke-width:0" /><path
           d="m 553.4,418.45 -0.01,0.37 0,0.39 -0.01,0.39 -0.01,0.41 -0.04,0.84 -0.06,0.88 -0.09,0.92 -0.1,0.94 -0.14,0.98 -0.16,1 -0.2,1.02 -0.23,1.04 -0.27,1.05 -0.3,1.06 -0.35,1.06 -0.39,1.07 -0.22,0.53 -0.22,0.54 -0.24,0.53 -0.25,0.53 c -2.99,6.12 -7.27,9.36 -7.77,9.36 -0.3,0 -0.5,-0.2 -0.5,-0.5 0,-0.15 0,-0.25 0.94,-1.15 4.89,-4.92 7.73,-12.85 7.73,-23.26 0,-8.52 -1.85,-17.28 -8.02,-23.56 -0.65,-0.6 -0.65,-0.69 -0.65,-0.85 0,-0.29 0.2,-0.49 0.5,-0.49 0.5,0 4.98,3.38 7.92,9.71 2.54,5.48 3.14,11.01 3.14,15.19 z"
           id="path8199"
           style="fill:#000000;stroke-width:0" /></g>    </g>
    <g
       id="g8293"
       transform="matrix(0.26441218,0,0,0.26441218,-8.8146951,123.94941)">
      <g
         word-spacing="normal"
         letter-spacing="normal"
         font-size-adjust="none"
         font-stretch="normal"
         font-weight="normal"
         font-variant="normal"
         font-style="normal"
         fill-rule="even-odd"
         stroke-miterlimit="10.433"
         xml:space="preserve"
         transform="matrix(1.0629921,0,0,-1.0629921,-186.02362,789.27165)"
         id="g8295"
         style="font-style:normal;font-variant:normal;font-weight:normal;font-stretch:normal;letter-spacing:normal;word-spacing:normal;text-anchor:start;fill:none;stroke:#000000;stroke-width:3.78197408;stroke-linecap:butt;stroke-linejoin:miter;stroke-miterlimit:10.43299961;stroke-opacity:1;stroke-dasharray:none;stroke-dashoffset:0"><path
           id="path8297"
           d="m 481.85,422.94 0.48,0.11 0.47,0.12 0.49,0.14 0.48,0.15 0.48,0.16 0.48,0.18 0.48,0.19 0.48,0.2 0.47,0.22 0.46,0.23 0.46,0.24 0.45,0.25 0.44,0.27 0.43,0.28 0.42,0.29 0.4,0.3 0.39,0.31 0.37,0.32 0.35,0.34 0.34,0.35 0.32,0.35 0.29,0.37 0.28,0.38 0.25,0.39 0.22,0.4 0.2,0.41 0.17,0.42 0.15,0.43 0.11,0.44 0.08,0.45 0.05,0.45 0.02,0.47 c 0,4.29 -4.48,7.47 -11.01,7.47 h -14.19 c -1,0 -1.45,0 -1.45,-0.99 0,-0.55 0.45,-0.55 1.4,-0.55 0.1,0 1.04,0 1.89,-0.1 0.9,-0.1 1.34,-0.15 1.34,-0.8 0,-0.2 -0.04,-0.35 -0.2,-0.94 l -6.67,-26.75 c -0.5,-1.95 -0.6,-2.35 -4.53,-2.35 -0.9,0 -1.35,0 -1.35,-0.99 0,-0.55 0.6,-0.55 0.7,-0.55 h 12.6 c 0.4,0 1,0 1,1 0,0.54 -0.45,0.54 -1.39,0.54 -1.85,0 -3.24,0 -3.24,0.9 0,0.3 0.09,0.55 0.15,0.85 l 3.28,13.2 h 5.93 l -0.05,1.1 h -5.58 l 3.24,13 c 0.3,1.19 0.45,1.69 1.39,1.84 0.45,0.05 2.05,0.05 3.04,0.05 3.54,0 9.07,0 9.07,-4.93 0,-1.7 -0.8,-5.14 -2.74,-7.08 -1.3,-1.29 -3.94,-2.88 -8.42,-2.88 l 0.05,-1.1 c 4.54,0 5.43,-2.79 5.43,-4.53 0,-0.75 -0.4,-2.3 -0.7,-3.44 -0.35,-1.4 -0.79,-3.24 -0.79,-4.23 0,-5.39 5.97,-5.39 6.62,-5.39 4.24,0 5.98,5.03 5.98,5.73 0,0.6 -0.55,0.6 -0.6,0.6 -0.45,0 -0.55,-0.35 -0.65,-0.7 -1.24,-3.68 -3.38,-4.53 -4.53,-4.53 -1.64,0 -1.99,1.1 -1.99,3.04 0,1.54 0.3,4.08 0.5,5.68 0.1,0.69 0.2,1.64 0.2,2.34 0,3.83 -3.34,5.38 -4.69,5.88 z"
           style="fill:#000000;stroke-width:0" /><path
           id="path8299"
           d="m 510.49,394.04 0,0.03 0,0.03 -0.01,0.01 0,0.02 0,0.01 -0.01,0.02 0,0.02 -0.01,0.01 -0.01,0.02 -0.01,0.02 -0.01,0.03 -0.01,0.02 -0.02,0.02 -0.02,0.03 -0.02,0.03 -0.02,0.03 -0.03,0.03 -0.03,0.04 -0.01,0.02 -0.02,0.02 -0.02,0.02 -0.02,0.02 -0.02,0.02 -0.02,0.03 -0.02,0.02 -0.02,0.02 -0.02,0.03 -0.03,0.02 -0.02,0.03 -0.03,0.03 -0.02,0.03 -0.03,0.03 -0.03,0.03 -0.03,0.03 -0.03,0.03 -0.03,0.03 -0.04,0.04 -0.03,0.03 -0.04,0.04 -0.03,0.03 -0.04,0.04 -0.04,0.04 c -6.23,6.28 -7.82,15.69 -7.82,23.31 0,8.67 1.89,17.34 8.02,23.57 0.65,0.59 0.65,0.69 0.65,0.84 0,0.35 -0.2,0.5 -0.5,0.5 -0.5,0 -4.98,-3.39 -7.92,-9.72 -2.54,-5.47 -3.14,-11 -3.14,-15.19 0,-3.88 0.55,-9.91 3.29,-15.54 2.99,-6.12 7.27,-9.36 7.77,-9.36 0.3,0 0.5,0.15 0.5,0.49 z"
           style="fill:#000000;stroke-width:0" /><path
           id="path8301"
           d="m 515.24,399.92 -0.03,-0.15 -0.04,-0.15 -0.03,-0.14 -0.04,-0.13 -0.03,-0.13 -0.04,-0.11 -0.03,-0.12 -0.04,-0.1 -0.04,-0.1 -0.04,-0.09 -0.04,-0.09 -0.05,-0.08 -0.05,-0.07 -0.05,-0.07 -0.06,-0.07 -0.06,-0.05 -0.07,-0.06 -0.07,-0.05 -0.08,-0.04 -0.09,-0.04 -0.09,-0.04 -0.1,-0.03 -0.11,-0.03 -0.12,-0.02 -0.13,-0.02 -0.13,-0.02 -0.07,0 -0.08,-0.01 -0.07,-0.01 -0.08,0 -0.08,-0.01 -0.09,0 -0.08,0 -0.09,-0.01 -0.09,0 -0.1,0 -0.1,0 -0.1,0 c -0.6,0 -1.14,0 -1.14,-0.95 0,-0.39 0.25,-0.59 0.64,-0.59 h 9.12 c 0.25,0 0.9,0 0.9,0.99 0,0.55 -0.5,0.55 -1.2,0.55 -2.49,0 -2.49,0.35 -2.49,0.8 0,0.59 2.09,8.71 2.44,9.96 0.65,-1.44 2.04,-3.19 4.58,-3.19 l -0.05,1.1 c -3.28,0 -3.93,4.13 -3.93,4.43 0,0.1 0,0.2 0.15,0.8 l 2.44,9.76 c 0.34,1.35 1.69,2.74 2.59,3.49 1.74,1.54 3.18,1.89 4.03,1.89 1.99,0 3.19,-1.74 3.19,-4.68 0,-2.94 -1.64,-8.67 -2.54,-10.56 -1.69,-3.49 -4.08,-5.13 -5.93,-5.13 l 0.05,-1.1 c 5.78,0 12.01,7.28 12.01,14.6 0,4.68 -2.84,7.97 -6.63,7.97 -2.49,0 -4.88,-1.8 -6.52,-3.74 -0.5,2.69 -2.64,3.74 -4.49,3.74 -2.29,0 -3.24,-1.95 -3.68,-2.84 -0.9,-1.7 -1.55,-4.68 -1.55,-4.83 0,-0.5 0.5,-0.5 0.6,-0.5 0.5,0 0.55,0.05 0.85,1.14 0.85,3.54 1.84,5.93 3.63,5.93 0.85,0 1.55,-0.4 1.55,-2.29 0,-1.15 -0.15,-1.69 -0.35,-2.54 z"
           style="fill:#000000;stroke-width:0" /><path
           id="path8303"
           d="m 552.4,418.45 -0.01,0.37 0,0.39 -0.01,0.39 -0.01,0.41 -0.04,0.84 -0.06,0.88 -0.09,0.92 -0.1,0.94 -0.14,0.98 -0.16,1 -0.2,1.02 -0.23,1.04 -0.27,1.05 -0.3,1.06 -0.35,1.06 -0.39,1.07 -0.22,0.53 -0.22,0.54 -0.24,0.53 -0.25,0.53 c -2.99,6.12 -7.27,9.36 -7.77,9.36 -0.3,0 -0.5,-0.2 -0.5,-0.5 0,-0.15 0,-0.25 0.94,-1.15 4.89,-4.92 7.73,-12.85 7.73,-23.26 0,-8.52 -1.85,-17.28 -8.02,-23.56 -0.65,-0.6 -0.65,-0.69 -0.65,-0.85 0,-0.29 0.2,-0.49 0.5,-0.49 0.5,0 4.98,3.38 7.92,9.71 2.54,5.48 3.14,11.01 3.14,15.19 z"
           style="fill:#000000;stroke-width:0" /></g>    </g>
    <g
       id="g8537"
       transform="matrix(0.26441218,0,0,0.26441218,36.050191,47.920701)">
      <g
         word-spacing="normal"
         letter-spacing="normal"
         font-size-adjust="none"
         font-stretch="normal"
         font-weight="normal"
         font-variant="normal"
         font-style="normal"
         fill-rule="even-odd"
         stroke-miterlimit="10.433"
         xml:space="preserve"
         transform="matrix(1.0629921,0,0,-1.0629921,-186.02362,789.27165)"
         id="g8539"
         style="font-style:normal;font-variant:normal;font-weight:normal;font-stretch:normal;letter-spacing:normal;word-spacing:normal;text-anchor:start;fill:none;stroke:#000000;stroke-width:3.78197408;stroke-linecap:butt;stroke-linejoin:miter;stroke-miterlimit:10.43299961;stroke-opacity:1;stroke-dasharray:none;stroke-dashoffset:0"><path
           id="path8541"
           d="m 463.02,417.31 0.16,-0.06 0.15,-0.06 0.15,-0.06 0.15,-0.05 0.15,-0.05 0.15,-0.05 0.14,-0.04 0.15,-0.04 0.14,-0.03 0.15,-0.03 0.28,-0.06 0.27,-0.05 0.27,-0.03 0.27,-0.03 0.26,-0.02 0.26,-0.02 0.25,-0.01 0.24,-0.01 0.24,0 0.23,0 0.23,0 v 1.1 c -1.1,0 -1.7,0 -2.64,0.25 h 0 c 1.14,0.4 2.19,0.44 3.04,0.44 1.24,0 1.44,-0.04 2.34,-0.29 -0.75,-0.35 -0.85,-0.4 -2.74,-0.4 v -1.1 c 1.29,0 4.03,0 4.03,1.55 0,1.19 -1.74,1.34 -3.63,1.34 -1.05,0 -2.79,-0.1 -4.64,-0.95 -1.14,0.6 -1.99,1.55 -1.99,2.89 0,3.04 4.88,4.83 9.37,4.83 0.79,0 2.59,0 4.58,-1.39 0.55,-0.4 0.65,-0.5 0.99,-0.5 0.65,0 1.35,0.65 1.35,1.35 0,0.94 -3.04,2.84 -6.42,2.84 -5.74,0 -11.11,-3.34 -11.11,-7.13 0,-2.14 1.79,-3.39 1.99,-3.53 -2.94,-1.65 -4.53,-4.44 -4.53,-6.73 0,-3.24 2.83,-6.28 8.11,-6.28 6.58,0 9.37,4.39 9.37,5.14 0,0.29 -0.25,0.49 -0.55,0.49 -0.25,0 -0.4,-0.2 -0.5,-0.35 -0.69,-1.14 -1.89,-2.98 -7.87,-2.98 -3.04,0 -7.27,0.74 -7.27,4.28 0,1.69 1.39,4.33 4.43,5.83 z"
           style="fill:#000000;stroke-width:0" /><path
           id="path8543"
           d="m 495.49,394.04 0,0.03 0,0.03 -0.01,0.01 0,0.02 0,0.01 -0.01,0.02 0,0.02 -0.01,0.01 -0.01,0.02 -0.01,0.02 -0.01,0.03 -0.01,0.02 -0.02,0.02 -0.02,0.03 -0.02,0.03 -0.02,0.03 -0.03,0.03 -0.03,0.04 -0.01,0.02 -0.02,0.02 -0.02,0.02 -0.02,0.02 -0.02,0.02 -0.02,0.03 -0.02,0.02 -0.02,0.02 -0.02,0.03 -0.03,0.02 -0.02,0.03 -0.03,0.03 -0.02,0.03 -0.03,0.03 -0.03,0.03 -0.03,0.03 -0.03,0.03 -0.03,0.03 -0.04,0.04 -0.03,0.03 -0.04,0.04 -0.03,0.03 -0.04,0.04 -0.04,0.04 c -6.23,6.28 -7.82,15.69 -7.82,23.31 0,8.67 1.89,17.34 8.02,23.57 0.65,0.59 0.65,0.69 0.65,0.84 0,0.35 -0.2,0.5 -0.5,0.5 -0.5,0 -4.98,-3.39 -7.92,-9.72 -2.54,-5.47 -3.14,-11 -3.14,-15.19 0,-3.88 0.55,-9.91 3.29,-15.54 2.99,-6.12 7.27,-9.36 7.77,-9.36 0.3,0 0.5,0.15 0.5,0.49 z"
           style="fill:#000000;stroke-width:0" /><path
           id="path8545"
           d="m 500.24,399.92 -0.03,-0.15 -0.04,-0.15 -0.03,-0.14 -0.04,-0.13 -0.03,-0.13 -0.04,-0.11 -0.03,-0.12 -0.04,-0.1 -0.04,-0.1 -0.04,-0.09 -0.04,-0.09 -0.05,-0.08 -0.05,-0.07 -0.05,-0.07 -0.06,-0.07 -0.06,-0.05 -0.07,-0.06 -0.07,-0.05 -0.08,-0.04 -0.09,-0.04 -0.09,-0.04 -0.1,-0.03 -0.11,-0.03 -0.12,-0.02 -0.13,-0.02 -0.13,-0.02 -0.07,0 -0.08,-0.01 -0.07,-0.01 -0.08,0 -0.08,-0.01 -0.09,0 -0.08,0 -0.09,-0.01 -0.09,0 -0.1,0 -0.1,0 -0.1,0 c -0.6,0 -1.14,0 -1.14,-0.95 0,-0.39 0.25,-0.59 0.64,-0.59 h 9.12 c 0.25,0 0.9,0 0.9,0.99 0,0.55 -0.5,0.55 -1.2,0.55 -2.49,0 -2.49,0.35 -2.49,0.8 0,0.59 2.09,8.71 2.44,9.96 0.65,-1.44 2.04,-3.19 4.58,-3.19 l -0.04,1.1 c -3.29,0 -3.94,4.13 -3.94,4.43 0,0.1 0,0.2 0.15,0.8 l 2.44,9.76 c 0.35,1.35 1.69,2.74 2.59,3.49 1.74,1.54 3.18,1.89 4.03,1.89 1.99,0 3.19,-1.74 3.19,-4.68 0,-2.94 -1.64,-8.67 -2.54,-10.56 -1.69,-3.49 -4.08,-5.13 -5.92,-5.13 l 0.04,-1.1 c 5.78,0 12.01,7.28 12.01,14.6 0,4.68 -2.84,7.97 -6.63,7.97 -2.49,0 -4.88,-1.8 -6.52,-3.74 -0.5,2.69 -2.64,3.74 -4.49,3.74 -2.29,0 -3.23,-1.95 -3.68,-2.84 -0.9,-1.7 -1.55,-4.68 -1.55,-4.83 0,-0.5 0.5,-0.5 0.6,-0.5 0.5,0 0.55,0.05 0.85,1.14 0.85,3.54 1.84,5.93 3.63,5.93 0.85,0 1.55,-0.4 1.55,-2.29 0,-1.15 -0.15,-1.69 -0.35,-2.54 z"
           style="fill:#000000;stroke-width:0" /><path
           id="path8547"
           d="m 537.4,418.45 -0.01,0.37 0,0.39 -0.01,0.39 -0.01,0.41 -0.04,0.84 -0.06,0.88 -0.09,0.92 -0.1,0.94 -0.14,0.98 -0.16,1 -0.2,1.02 -0.23,1.04 -0.27,1.05 -0.3,1.06 -0.35,1.06 -0.39,1.07 -0.22,0.53 -0.22,0.54 -0.24,0.53 -0.25,0.53 c -2.99,6.12 -7.27,9.36 -7.77,9.36 -0.3,0 -0.5,-0.2 -0.5,-0.5 0,-0.15 0,-0.25 0.94,-1.15 4.89,-4.92 7.73,-12.85 7.73,-23.26 0,-8.52 -1.85,-17.28 -8.02,-23.56 -0.65,-0.6 -0.65,-0.69 -0.65,-0.85 0,-0.29 0.2,-0.49 0.5,-0.49 0.5,0 4.98,3.38 7.92,9.71 2.54,5.48 3.14,11.01 3.14,15.19 z"
           style="fill:#000000;stroke-width:0" /></g>    </g>
    <path
       id="path8612"
       d="m 355,157.36218 100,0"
       style="fill:none;stroke:#000000;stroke-width:0.99999994px;stroke-linecap:butt;stroke-linejoin:miter;stroke-opacity:1;marker-end:url(#Arrow1Mend)" />
    <rect
       style="fill:none;stroke:#000000;stroke-width:1;stroke-linecap:round;stroke-miterlimit:4;stroke-opacity:1;stroke-dasharray:none;stroke-dashoffset:0"
       id="rect8614"
       width="70"
       height="40"
       x="285"
       y="137.36218" />
    <path
       style="fill:none;stroke:#000000;stroke-width:1px;stroke-linecap:butt;stroke-linejoin:miter;stroke-opacity:1;marker-end:none"
       d="m 405,157.36219 0,69.99999"
       id="path8616" />
    <rect
       y="207.36218"
       x="225"
       height="40"
       width="70"
       id="rect8806"
       style="fill:none;stroke:#000000;stroke-width:1;stroke-linecap:round;stroke-miterlimit:4;stroke-opacity:1;stroke-dasharray:none;stroke-dashoffset:0" />
    <path
       style="fill:none;stroke:#000000;stroke-width:0.99999994px;stroke-linecap:butt;stroke-linejoin:miter;stroke-opacity:1;marker-end:url(#Arrow1Mend)"
       d="m 405,227.36218 -110,0"
       id="path8810" />
    <path
       id="path8812"
       d="m 115,157.36218 50,0"
       style="fill:none;stroke:#000000;stroke-width:1px;stroke-linecap:butt;stroke-linejoin:miter;stroke-opacity:1;marker-end:url(#Arrow1Mend)" />
    <path
       sodipodi:type="arc"
       style="fill:none;stroke:#000000;stroke-width:0.75;stroke-linecap:round;stroke-miterlimit:4;stroke-opacity:1;stroke-dasharray:none;stroke-dashoffset:0"
       id="path8814"
       sodipodi:cx="42.5"
       sodipodi:cy="199.86218"
       sodipodi:rx="7.5"
       sodipodi:ry="7.5"
       d="m 50,199.86218 a 7.5,7.5 0 1 1 -15,0 7.5,7.5 0 1 1 15,0 z"
       transform="matrix(1.3333333,0,0,1.3333333,48.333335,-109.12072)" />
    <path
       style="fill:none;stroke:#000000;stroke-width:0.99999994px;stroke-linecap:butt;stroke-linejoin:miter;stroke-opacity:1"
       d="M 98.214286,164.1479 112,150.36218"
       id="path8816"
       sodipodi:nodetypes="cc" />
    <path
       sodipodi:nodetypes="cc"
       id="path8818"
       d="M 98.214283,150.36218 112,164.1479"
       style="fill:none;stroke:#000000;stroke-width:0.99999994px;stroke-linecap:butt;stroke-linejoin:miter;stroke-opacity:1" />
    <path
       id="path8822"
       d="m 225.00001,227.36218 -120,0"
       style="fill:none;stroke:#000000;stroke-width:1px;stroke-linecap:butt;stroke-linejoin:miter;stroke-opacity:1;marker-end:none" />
    <path
       id="path8824"
       d="m 105,227.36218 0,-60"
       style="fill:none;stroke:#000000;stroke-width:0.99999994px;stroke-linecap:butt;stroke-linejoin:miter;stroke-opacity:1;marker-end:url(#Arrow1Mend)" />
    <path
       style="fill:none;stroke:#000000;stroke-width:1px;stroke-linecap:butt;stroke-linejoin:miter;stroke-opacity:1;marker-end:url(#Arrow1Mend)"
       d="m 45,157.36218 50,0"
       id="path8826" />
    <g
       transform="matrix(0.26441218,0,0,0.26441218,166.5531,47.920701)"
       id="g8905">
      <g
         style="font-style:normal;font-variant:normal;font-weight:normal;font-stretch:normal;letter-spacing:normal;word-spacing:normal;text-anchor:start;fill:none;stroke:#000000;stroke-width:3.78197408;stroke-linecap:butt;stroke-linejoin:miter;stroke-miterlimit:10.43299961;stroke-opacity:1;stroke-dasharray:none;stroke-dashoffset:0"
         id="g8907"
         transform="matrix(1.0629921,0,0,-1.0629921,-186.02362,789.27165)"
         xml:space="preserve"
         stroke-miterlimit="10.433"
         fill-rule="even-odd"
         font-style="normal"
         font-variant="normal"
         font-weight="normal"
         font-stretch="normal"
         font-size-adjust="none"
         letter-spacing="normal"
         word-spacing="normal"><path
           style="fill:#000000;stroke-width:0"
           d="m 493.86,440.62 0,0.02 0,0.01 0,0.02 -0.01,0.02 0,0.01 0,0.02 -0.01,0.02 0,0.02 -0.01,0.02 -0.01,0.02 -0.01,0.02 -0.01,0.02 -0.01,0.02 -0.01,0.02 -0.01,0.02 -0.02,0.02 -0.01,0.02 -0.02,0.02 -0.02,0.02 -0.02,0.02 -0.02,0.02 -0.02,0.01 -0.03,0.02 -0.03,0.01 -0.02,0.01 -0.02,0.01 -0.01,0 -0.02,0.01 -0.02,0 -0.01,0.01 -0.02,0 -0.02,0.01 -0.01,0 -0.02,0 -0.02,0 -0.02,0 -0.02,0.01 -0.02,0 -0.02,0 c -0.15,0 -0.2,-0.05 -0.75,-0.6 l -3.49,-3.84 c -0.44,0.7 -2.73,4.44 -8.26,4.44 -11.11,0 -22.32,-11.01 -22.32,-22.57 0,-8.22 5.88,-13.65 13.5,-13.65 4.33,0 8.12,2 10.76,4.29 4.63,4.08 5.48,8.61 5.48,8.77 0,0.49 -0.5,0.49 -0.6,0.49 -0.3,0 -0.55,-0.09 -0.65,-0.49 -0.44,-1.45 -1.59,-4.99 -5.03,-7.87 -3.43,-2.79 -6.57,-3.64 -9.16,-3.64 -4.49,0 -9.77,2.59 -9.77,10.36 0,2.84 1.05,10.91 6.03,16.74 3.04,3.53 7.72,6.02 12.16,6.02 5.08,0 8.02,-3.83 8.02,-9.61 0,-1.99 -0.16,-2.04 -0.16,-2.54 0,-0.5 0.55,-0.5 0.75,-0.5 0.65,0 0.65,0.1 0.9,1 z"
           id="path8909" /><path
           style="fill:#000000;stroke-width:0"
           d="m 511.49,394.04 0,0.03 0,0.03 -0.01,0.01 0,0.02 0,0.01 -0.01,0.02 0,0.02 -0.01,0.01 -0.01,0.02 -0.01,0.02 -0.01,0.03 -0.01,0.02 -0.02,0.02 -0.02,0.03 -0.02,0.03 -0.02,0.03 -0.03,0.03 -0.03,0.04 -0.01,0.02 -0.02,0.02 -0.02,0.02 -0.02,0.02 -0.02,0.02 -0.02,0.03 -0.02,0.02 -0.02,0.02 -0.02,0.03 -0.03,0.02 -0.02,0.03 -0.03,0.03 -0.02,0.03 -0.03,0.03 -0.03,0.03 -0.03,0.03 -0.03,0.03 -0.03,0.03 -0.04,0.04 -0.03,0.03 -0.04,0.04 -0.03,0.03 -0.04,0.04 -0.04,0.04 c -6.23,6.28 -7.82,15.69 -7.82,23.31 0,8.67 1.89,17.34 8.02,23.57 0.65,0.59 0.65,0.69 0.65,0.84 0,0.35 -0.2,0.5 -0.5,0.5 -0.5,0 -4.98,-3.39 -7.92,-9.72 -2.54,-5.47 -3.14,-11 -3.14,-15.19 0,-3.88 0.55,-9.91 3.29,-15.54 2.99,-6.12 7.27,-9.36 7.77,-9.36 0.3,0 0.5,0.15 0.5,0.49 z"
           id="path8911" /><path
           style="fill:#000000;stroke-width:0"
           d="m 516.24,399.92 -0.03,-0.15 -0.04,-0.15 -0.03,-0.14 -0.04,-0.13 -0.03,-0.13 -0.04,-0.11 -0.03,-0.12 -0.04,-0.1 -0.04,-0.1 -0.04,-0.09 -0.04,-0.09 -0.05,-0.08 -0.05,-0.07 -0.05,-0.07 -0.06,-0.07 -0.06,-0.05 -0.07,-0.06 -0.07,-0.05 -0.08,-0.04 -0.09,-0.04 -0.09,-0.04 -0.1,-0.03 -0.11,-0.03 -0.12,-0.02 -0.13,-0.02 -0.13,-0.02 -0.07,0 -0.08,-0.01 -0.07,-0.01 -0.08,0 -0.08,-0.01 -0.09,0 -0.08,0 -0.09,-0.01 -0.09,0 -0.1,0 -0.1,0 -0.1,0 c -0.6,0 -1.14,0 -1.14,-0.95 0,-0.39 0.25,-0.59 0.64,-0.59 h 9.12 c 0.25,0 0.9,0 0.9,0.99 0,0.55 -0.5,0.55 -1.2,0.55 -2.49,0 -2.49,0.35 -2.49,0.8 0,0.59 2.09,8.71 2.44,9.96 0.65,-1.44 2.04,-3.19 4.58,-3.19 l -0.05,1.1 c -3.28,0 -3.93,4.13 -3.93,4.43 0,0.1 0,0.2 0.15,0.8 l 2.44,9.76 c 0.34,1.35 1.69,2.74 2.59,3.49 1.74,1.54 3.18,1.89 4.03,1.89 1.99,0 3.19,-1.74 3.19,-4.68 0,-2.94 -1.64,-8.67 -2.54,-10.56 -1.69,-3.49 -4.08,-5.13 -5.93,-5.13 l 0.05,-1.1 c 5.78,0 12.01,7.28 12.01,14.6 0,4.68 -2.84,7.97 -6.63,7.97 -2.49,0 -4.88,-1.8 -6.52,-3.74 -0.5,2.69 -2.64,3.74 -4.49,3.74 -2.29,0 -3.24,-1.95 -3.68,-2.84 -0.9,-1.7 -1.55,-4.68 -1.55,-4.83 0,-0.5 0.5,-0.5 0.6,-0.5 0.5,0 0.55,0.05 0.85,1.14 0.85,3.54 1.84,5.93 3.63,5.93 0.85,0 1.55,-0.4 1.55,-2.29 0,-1.15 -0.15,-1.69 -0.35,-2.54 z"
           id="path8913" /><path
           style="fill:#000000;stroke-width:0"
           d="m 553.4,418.45 -0.01,0.37 0,0.39 -0.01,0.39 -0.01,0.41 -0.04,0.84 -0.06,0.88 -0.09,0.92 -0.1,0.94 -0.14,0.98 -0.16,1 -0.2,1.02 -0.23,1.04 -0.27,1.05 -0.3,1.06 -0.35,1.06 -0.39,1.07 -0.22,0.53 -0.22,0.54 -0.24,0.53 -0.25,0.53 c -2.99,6.12 -7.27,9.36 -7.77,9.36 -0.3,0 -0.5,-0.2 -0.5,-0.5 0,-0.15 0,-0.25 0.94,-1.15 4.89,-4.92 7.73,-12.85 7.73,-23.26 0,-8.52 -1.85,-17.28 -8.02,-23.56 -0.65,-0.6 -0.65,-0.69 -0.65,-0.85 0,-0.29 0.2,-0.49 0.5,-0.49 0.5,0 4.98,3.38 7.92,9.71 2.54,5.48 3.14,11.01 3.14,15.19 z"
           id="path8915" /></g>    </g>
    <path
       id="path8998"
       d="m 99,154.36219 0,5.99999"
       style="fill:none;stroke:#000000;stroke-width:1px;stroke-linecap:butt;stroke-linejoin:miter;stroke-opacity:1" />
    <path
       style="fill:none;stroke:#000000;stroke-width:1px;stroke-linecap:butt;stroke-linejoin:miter;stroke-opacity:1"
       d="m 101.99999,157.36218 -5.999985,0"
       id="path9000" />
    <path
       id="path9002"
       d="m 108,162.36218 -5.99998,0"
       style="fill:none;stroke:#000000;stroke-width:1px;stroke-linecap:butt;stroke-linejoin:miter;stroke-opacity:1" />
    <path
       id="path9054"
       d="m 640,182.36218 50,0"
       style="fill:none;stroke:#000000;stroke-width:1px;stroke-linecap:butt;stroke-linejoin:miter;stroke-opacity:1;marker-end:url(#Arrow1Mend)" />
    <rect
       style="fill:none;stroke:#000000;stroke-width:1;stroke-linecap:round;stroke-miterlimit:4;stroke-opacity:1;stroke-dasharray:none;stroke-dashoffset:0"
       id="rect9056"
       width="70"
       height="40"
       x="570"
       y="162.36218" />
    <path
       style="fill:none;stroke:#000000;stroke-width:1px;stroke-linecap:butt;stroke-linejoin:miter;stroke-opacity:1;marker-end:url(#Arrow1Mend)"
       d="m 520,182.36218 50,0"
       id="path9058" />
    <path
       id="path9060"
       d="m 505.00003,172.36218 -29.99999,0"
       style="fill:none;stroke:#000000;stroke-width:2;stroke-linecap:butt;stroke-linejoin:miter;stroke-miterlimit:4;stroke-opacity:1;stroke-dasharray:none;marker-end:none" />
    <path
       style="fill:none;stroke:#000000;stroke-width:2;stroke-linecap:butt;stroke-linejoin:miter;stroke-miterlimit:4;stroke-opacity:1;stroke-dasharray:none;marker-end:none"
       d="m 505.00003,182.36218 -29.99999,0"
       id="path9062" />
    <path
       id="path9064"
       d="m 505.00003,192.36218 -29.99999,0"
       style="fill:none;stroke:#000000;stroke-width:2;stroke-linecap:butt;stroke-linejoin:miter;stroke-miterlimit:4;stroke-opacity:1;stroke-dasharray:none;marker-end:none" />
    <g
       transform="matrix(0.26441218,0,0,0.26441218,446.24674,77.937364)"
       id="g9066">
      <g
         style="font-style:normal;font-variant:normal;font-weight:normal;font-stretch:normal;letter-spacing:normal;word-spacing:normal;text-anchor:start;fill:none;stroke:#000000;stroke-width:3.78197408;stroke-linecap:butt;stroke-linejoin:miter;stroke-miterlimit:10.43299961;stroke-opacity:1;stroke-dasharray:none;stroke-dashoffset:0"
         word-spacing="normal"
         letter-spacing="normal"
         font-size-adjust="none"
         font-stretch="normal"
         font-weight="normal"
         font-variant="normal"
         font-style="normal"
         fill-rule="even-odd"
         stroke-miterlimit="10.433"
         xml:space="preserve"
         transform="matrix(1.0629921,0,0,-1.0629921,-186.02362,789.27165)"
         id="g9068"><path
           style="fill:#000000;stroke-width:0"
           id="path9070"
           d="m 491.27,417.61 0.01,0.02 0.01,0.02 0.02,0.05 0.02,0.05 0.02,0.06 0.02,0.05 0.02,0.05 0.02,0.05 0.02,0.05 0.01,0.02 0.01,0.03 0.01,0.02 0,0.02 0.01,0.03 0.01,0.02 0.01,0.02 0,0.02 0.01,0.02 0,0.01 0.01,0.02 0,0.02 0,0.01 0,0.01 0.01,0.01 0,0.01 c 0,0.06 0,0.55 -0.6,0.55 -0.45,0 -0.55,-0.3 -0.65,-0.6 -3.23,-7.37 -5.08,-10.71 -13.6,-10.71 h -7.27 c -0.7,0 -0.8,0 -1.1,0.05 -0.5,0.05 -0.64,0.11 -0.64,0.5 0,0.15 0,0.25 0.25,1.15 l 3.38,13.6 h 4.93 c 4.24,0 4.24,-1.05 4.24,-2.29 0,-0.35 0,-0.95 -0.35,-2.44 -0.1,-0.25 -0.15,-0.4 -0.15,-0.56 0,-0.24 0.2,-0.54 0.65,-0.54 0.4,0 0.55,0.25 0.75,0.99 l 2.84,11.66 c 0,0.3 -0.25,0.55 -0.6,0.55 -0.45,0 -0.55,-0.3 -0.7,-0.9 -1.05,-3.78 -1.94,-4.93 -6.52,-4.93 h -4.69 l 2.99,12.01 c 0.45,1.74 0.5,1.94 2.69,1.94 h 7.02 c 6.08,0 7.57,-1.45 7.57,-5.53 0,-1.19 0,-1.3 -0.19,-2.64 0,-0.3 -0.06,-0.65 -0.06,-0.9 0,-0.25 0.16,-0.6 0.6,-0.6 0.55,0 0.6,0.3 0.7,1.25 l 1,8.62 c 0.15,1.34 -0.1,1.34 -1.35,1.34 h -25.15 c -1,0 -1.5,0 -1.5,-0.99 0,-0.55 0.45,-0.55 1.4,-0.55 1.84,0 3.23,0 3.23,-0.9 0,-0.2 0,-0.3 -0.25,-1.19 l -6.57,-26.35 c -0.5,-1.95 -0.6,-2.35 -4.53,-2.35 -0.85,0 -1.4,0 -1.4,-0.94 0,-0.6 0.45,-0.6 1.4,-0.6 h 25.85 c 1.15,0 1.2,0.05 1.54,0.85 z" /><path
           style="fill:#000000;stroke-width:0"
           id="path9072"
           d="m 511.49,394.04 0,0.03 0,0.03 -0.01,0.01 0,0.02 0,0.01 -0.01,0.02 0,0.02 -0.01,0.01 -0.01,0.02 -0.01,0.02 -0.01,0.03 -0.01,0.02 -0.02,0.02 -0.02,0.03 -0.02,0.03 -0.02,0.03 -0.03,0.03 -0.03,0.04 -0.01,0.02 -0.02,0.02 -0.02,0.02 -0.02,0.02 -0.02,0.02 -0.02,0.03 -0.02,0.02 -0.02,0.02 -0.02,0.03 -0.03,0.02 -0.02,0.03 -0.03,0.03 -0.02,0.03 -0.03,0.03 -0.03,0.03 -0.03,0.03 -0.03,0.03 -0.03,0.03 -0.04,0.04 -0.03,0.03 -0.04,0.04 -0.03,0.03 -0.04,0.04 -0.04,0.04 c -6.23,6.28 -7.82,15.69 -7.82,23.31 0,8.67 1.89,17.34 8.02,23.57 0.65,0.59 0.65,0.69 0.65,0.84 0,0.35 -0.2,0.5 -0.5,0.5 -0.5,0 -4.98,-3.39 -7.92,-9.72 -2.54,-5.47 -3.14,-11 -3.14,-15.19 0,-3.88 0.55,-9.91 3.29,-15.54 2.99,-6.12 7.27,-9.36 7.77,-9.36 0.3,0 0.5,0.15 0.5,0.49 z" /><path
           style="fill:#000000;stroke-width:0"
           id="path9074"
           d="m 516.24,399.92 -0.03,-0.15 -0.04,-0.15 -0.03,-0.14 -0.04,-0.13 -0.03,-0.13 -0.04,-0.11 -0.03,-0.12 -0.04,-0.1 -0.04,-0.1 -0.04,-0.09 -0.04,-0.09 -0.05,-0.08 -0.05,-0.07 -0.05,-0.07 -0.06,-0.07 -0.06,-0.05 -0.07,-0.06 -0.07,-0.05 -0.08,-0.04 -0.09,-0.04 -0.09,-0.04 -0.1,-0.03 -0.11,-0.03 -0.12,-0.02 -0.13,-0.02 -0.13,-0.02 -0.07,0 -0.08,-0.01 -0.07,-0.01 -0.08,0 -0.08,-0.01 -0.09,0 -0.08,0 -0.09,-0.01 -0.09,0 -0.1,0 -0.1,0 -0.1,0 c -0.6,0 -1.14,0 -1.14,-0.95 0,-0.39 0.25,-0.59 0.64,-0.59 h 9.12 c 0.25,0 0.9,0 0.9,0.99 0,0.55 -0.5,0.55 -1.2,0.55 -2.49,0 -2.49,0.35 -2.49,0.8 0,0.59 2.09,8.71 2.44,9.96 0.65,-1.44 2.04,-3.19 4.58,-3.19 l -0.05,1.1 c -3.28,0 -3.93,4.13 -3.93,4.43 0,0.1 0,0.2 0.15,0.8 l 2.44,9.76 c 0.34,1.35 1.69,2.74 2.59,3.49 1.74,1.54 3.18,1.89 4.03,1.89 1.99,0 3.19,-1.74 3.19,-4.68 0,-2.94 -1.64,-8.67 -2.54,-10.56 -1.69,-3.49 -4.08,-5.13 -5.93,-5.13 l 0.05,-1.1 c 5.78,0 12.01,7.28 12.01,14.6 0,4.68 -2.84,7.97 -6.63,7.97 -2.49,0 -4.88,-1.8 -6.52,-3.74 -0.5,2.69 -2.64,3.74 -4.49,3.74 -2.29,0 -3.24,-1.95 -3.68,-2.84 -0.9,-1.7 -1.55,-4.68 -1.55,-4.83 0,-0.5 0.5,-0.5 0.6,-0.5 0.5,0 0.55,0.05 0.85,1.14 0.85,3.54 1.84,5.93 3.63,5.93 0.85,0 1.55,-0.4 1.55,-2.29 0,-1.15 -0.15,-1.69 -0.35,-2.54 z" /><path
           style="fill:#000000;stroke-width:0"
           id="path9076"
           d="m 554.4,418.45 -0.01,0.37 0,0.39 -0.01,0.39 -0.01,0.41 -0.04,0.84 -0.06,0.88 -0.09,0.92 -0.1,0.94 -0.14,0.98 -0.16,1 -0.2,1.02 -0.23,1.04 -0.27,1.05 -0.3,1.06 -0.35,1.06 -0.39,1.07 -0.22,0.53 -0.22,0.54 -0.24,0.53 -0.25,0.53 c -2.99,6.12 -7.27,9.36 -7.77,9.36 -0.3,0 -0.5,-0.2 -0.5,-0.5 0,-0.15 0,-0.25 0.94,-1.15 4.89,-4.92 7.73,-12.85 7.73,-23.26 0,-8.52 -1.85,-17.28 -8.02,-23.56 -0.65,-0.6 -0.65,-0.69 -0.65,-0.85 0,-0.29 0.2,-0.49 0.5,-0.49 0.5,0 4.98,3.38 7.92,9.71 2.54,5.48 3.14,11.01 3.14,15.19 z" /></g>    </g>
    <g
       transform="matrix(0.26441218,0,0,0.26441218,576.68019,78.662721)"
       id="g9078">
      <g
         style="font-style:normal;font-variant:normal;font-weight:normal;font-stretch:normal;letter-spacing:normal;word-spacing:normal;text-anchor:start;fill:none;stroke:#000000;stroke-width:3.78197408;stroke-linecap:butt;stroke-linejoin:miter;stroke-miterlimit:10.43299961;stroke-opacity:1;stroke-dasharray:none;stroke-dashoffset:0"
         id="g9080"
         transform="matrix(1.0629921,0,0,-1.0629921,-186.02362,789.27165)"
         xml:space="preserve"
         stroke-miterlimit="10.433"
         fill-rule="even-odd"
         font-style="normal"
         font-variant="normal"
         font-weight="normal"
         font-stretch="normal"
         font-size-adjust="none"
         letter-spacing="normal"
         word-spacing="normal"><path
           style="fill:#000000;stroke-width:0"
           d="m 488.13,440.62 0,0.02 0,0.01 0,0.02 -0.01,0.02 0,0.01 0,0.02 -0.01,0.02 0,0.02 -0.01,0.02 -0.01,0.02 -0.01,0.02 -0.01,0.02 -0.01,0.02 -0.01,0.02 -0.01,0.02 -0.02,0.02 -0.01,0.02 -0.02,0.02 -0.02,0.02 -0.02,0.02 -0.02,0.02 -0.02,0.01 -0.03,0.02 -0.02,0.01 -0.03,0.01 -0.02,0.01 -0.01,0 -0.02,0.01 -0.01,0 -0.02,0.01 -0.02,0 -0.01,0.01 -0.02,0 -0.02,0 -0.02,0 -0.02,0 -0.02,0.01 -0.02,0 -0.02,0 c -0.25,0 -0.3,-0.05 -0.9,-0.75 l -2.39,-2.84 c -1.29,2.34 -3.88,3.59 -7.12,3.59 -6.33,0 -12.3,-5.73 -12.3,-11.76 0,-4.03 2.64,-6.32 5.18,-7.07 l 5.33,-1.4 c 1.84,-0.44 4.58,-1.19 4.58,-5.28 0,-4.48 -4.08,-9.16 -8.97,-9.16 -3.19,0 -8.71,1.09 -8.71,7.27 0,1.2 0.25,2.39 0.29,2.69 0.05,0.2 0.11,0.25 0.11,0.35 0,0.5 -0.35,0.55 -0.6,0.55 -0.25,0 -0.35,-0.05 -0.5,-0.2 -0.2,-0.2 -2.99,-11.56 -2.99,-11.71 0,-0.3 0.25,-0.5 0.55,-0.5 0.25,0 0.3,0.05 0.9,0.75 l 2.44,2.84 c 2.14,-2.89 5.52,-3.59 8.41,-3.59 6.78,0 12.66,6.63 12.66,12.81 0,3.43 -1.7,5.13 -2.44,5.83 -1.15,1.14 -1.9,1.34 -6.33,2.48 -1.1,0.3 -2.89,0.8 -3.34,0.9 -1.34,0.45 -3.04,1.89 -3.04,4.53 0,4.04 3.99,8.27 8.72,8.27 4.13,0 7.17,-2.14 7.17,-7.72 0,-1.59 -0.2,-2.49 -0.2,-2.79 0,-0.05 0,-0.5 0.6,-0.5 0.5,0 0.55,0.15 0.75,1 z"
           id="path9082" /><path
           style="fill:#000000;stroke-width:0"
           d="m 505.49,394.04 0,0.03 0,0.03 -0.01,0.01 0,0.02 0,0.01 -0.01,0.02 0,0.02 -0.01,0.01 -0.01,0.02 -0.01,0.02 -0.01,0.03 -0.01,0.02 -0.02,0.02 -0.02,0.03 -0.02,0.03 -0.02,0.03 -0.03,0.03 -0.03,0.04 -0.01,0.02 -0.02,0.02 -0.02,0.02 -0.02,0.02 -0.02,0.02 -0.02,0.03 -0.02,0.02 -0.02,0.02 -0.02,0.03 -0.03,0.02 -0.02,0.03 -0.03,0.03 -0.02,0.03 -0.03,0.03 -0.03,0.03 -0.03,0.03 -0.03,0.03 -0.03,0.03 -0.04,0.04 -0.03,0.03 -0.04,0.04 -0.03,0.03 -0.04,0.04 -0.04,0.04 c -6.23,6.28 -7.82,15.69 -7.82,23.31 0,8.67 1.89,17.34 8.02,23.57 0.65,0.59 0.65,0.69 0.65,0.84 0,0.35 -0.2,0.5 -0.5,0.5 -0.5,0 -4.98,-3.39 -7.92,-9.72 -2.54,-5.47 -3.14,-11 -3.14,-15.19 0,-3.88 0.55,-9.91 3.29,-15.54 2.99,-6.12 7.27,-9.36 7.77,-9.36 0.3,0 0.5,0.15 0.5,0.49 z"
           id="path9084" /><path
           style="fill:#000000;stroke-width:0"
           d="m 510.24,399.92 -0.03,-0.15 -0.04,-0.15 -0.03,-0.14 -0.04,-0.13 -0.03,-0.13 -0.04,-0.11 -0.03,-0.12 -0.04,-0.1 -0.04,-0.1 -0.04,-0.09 -0.04,-0.09 -0.05,-0.08 -0.05,-0.07 -0.05,-0.07 -0.06,-0.07 -0.06,-0.05 -0.07,-0.06 -0.07,-0.05 -0.08,-0.04 -0.09,-0.04 -0.09,-0.04 -0.1,-0.03 -0.11,-0.03 -0.12,-0.02 -0.13,-0.02 -0.13,-0.02 -0.07,0 -0.08,-0.01 -0.07,-0.01 -0.08,0 -0.08,-0.01 -0.09,0 -0.08,0 -0.09,-0.01 -0.09,0 -0.1,0 -0.1,0 -0.1,0 c -0.6,0 -1.14,0 -1.14,-0.95 0,-0.39 0.25,-0.59 0.64,-0.59 h 9.12 c 0.25,0 0.9,0 0.9,0.99 0,0.55 -0.5,0.55 -1.2,0.55 -2.49,0 -2.49,0.35 -2.49,0.8 0,0.59 2.09,8.71 2.44,9.96 0.65,-1.44 2.04,-3.19 4.58,-3.19 l -0.05,1.1 c -3.28,0 -3.93,4.13 -3.93,4.43 0,0.1 0,0.2 0.15,0.8 l 2.44,9.76 c 0.34,1.35 1.69,2.74 2.59,3.49 1.74,1.54 3.18,1.89 4.03,1.89 1.99,0 3.19,-1.74 3.19,-4.68 0,-2.94 -1.64,-8.67 -2.54,-10.56 -1.69,-3.49 -4.08,-5.13 -5.93,-5.13 l 0.05,-1.1 c 5.78,0 12.01,7.28 12.01,14.6 0,4.68 -2.84,7.97 -6.63,7.97 -2.49,0 -4.88,-1.8 -6.52,-3.74 -0.5,2.69 -2.64,3.74 -4.49,3.74 -2.29,0 -3.23,-1.95 -3.68,-2.84 -0.9,-1.7 -1.55,-4.68 -1.55,-4.83 0,-0.5 0.5,-0.5 0.6,-0.5 0.5,0 0.55,0.05 0.85,1.14 0.85,3.54 1.84,5.93 3.63,5.93 0.85,0 1.55,-0.4 1.55,-2.29 0,-1.15 -0.15,-1.69 -0.35,-2.54 z"
           id="path9086" /><path
           style="fill:#000000;stroke-width:0"
           d="m 547.4,418.45 -0.01,0.37 0,0.39 -0.01,0.39 -0.01,0.41 -0.04,0.84 -0.06,0.88 -0.09,0.92 -0.1,0.94 -0.14,0.98 -0.16,1 -0.2,1.02 -0.23,1.04 -0.27,1.05 -0.3,1.06 -0.35,1.06 -0.39,1.07 -0.22,0.53 -0.22,0.54 -0.24,0.53 -0.25,0.53 c -2.99,6.12 -7.27,9.36 -7.77,9.36 -0.3,0 -0.5,-0.2 -0.5,-0.5 0,-0.15 0,-0.25 0.94,-1.15 4.89,-4.92 7.73,-12.85 7.73,-23.26 0,-8.52 -1.85,-17.28 -8.02,-23.56 -0.65,-0.6 -0.65,-0.69 -0.65,-0.85 0,-0.29 0.2,-0.49 0.5,-0.49 0.5,0 4.98,3.38 7.92,9.71 2.54,5.48 3.14,11.01 3.14,15.19 z"
           id="path9088" /></g>    </g>
    <g
       id="g9182"
       transform="matrix(0.26441217,0,0,0.26441217,511.21603,91.283483)">
      <g
         word-spacing="normal"
         letter-spacing="normal"
         font-size-adjust="none"
         font-stretch="normal"
         font-weight="normal"
         font-variant="normal"
         font-style="normal"
         fill-rule="even-odd"
         stroke-miterlimit="10.433"
         xml:space="preserve"
         transform="matrix(1.0629921,0,0,-1.0629921,-186.02362,789.27165)"
         id="g9184"
         style="font-style:normal;font-variant:normal;font-weight:normal;font-stretch:normal;letter-spacing:normal;word-spacing:normal;text-anchor:start;fill:none;stroke:#000000;stroke-width:3.78197408;stroke-linecap:butt;stroke-linejoin:miter;stroke-miterlimit:10.43299961;stroke-opacity:1;stroke-dasharray:none;stroke-dashoffset:0"><path
           id="path9186"
           d="m 494.01,436.19 0.04,0.16 0.04,0.16 0.04,0.15 0.04,0.14 0.04,0.14 0.04,0.12 0.04,0.13 0.05,0.11 0.05,0.11 0.05,0.1 0.06,0.1 0.07,0.09 0.07,0.08 0.08,0.08 0.09,0.08 0.09,0.06 0.11,0.07 0.11,0.05 0.13,0.06 0.14,0.05 0.15,0.04 0.16,0.04 0.09,0.01 0.09,0.02 0.09,0.02 0.1,0.01 0.1,0.01 0.1,0.02 0.11,0.01 0.11,0.01 0.12,0.01 0.12,0.01 0.13,0.01 0.13,0 0.13,0.01 0.14,0 0.14,0.01 0.15,0 0.15,0 0.16,0.01 0.16,0 0.17,0 c 1.3,0 1.7,0 1.7,0.99 0,0.55 -0.55,0.55 -0.7,0.55 h -12.8 c -0.4,0 -0.95,0 -0.95,-0.99 0,-0.55 0.45,-0.55 1.4,-0.55 0.09,0 1.04,0 1.89,-0.1 0.89,-0.1 1.34,-0.15 1.34,-0.8 0,-0.2 -0.05,-0.3 -0.2,-0.94 l -2.99,-12.16 h -15.19 l 2.94,11.71 c 0.45,1.79 0.6,2.29 4.18,2.29 1.3,0 1.7,0 1.7,0.99 0,0.55 -0.55,0.55 -0.7,0.55 h -12.8 c -0.4,0 -0.95,0 -0.95,-0.99 0,-0.55 0.45,-0.55 1.4,-0.55 0.1,0 1.04,0 1.89,-0.1 0.9,-0.1 1.35,-0.15 1.35,-0.8 0,-0.2 -0.06,-0.35 -0.2,-0.94 l -6.68,-26.75 c -0.5,-1.95 -0.6,-2.35 -4.53,-2.35 -0.9,0 -1.35,0 -1.35,-0.99 0,-0.55 0.6,-0.55 0.7,-0.55 1.4,0 4.93,0.15 6.32,0.15 1.05,0 2.15,-0.05 3.2,-0.05 1.09,0 2.19,-0.1 3.23,-0.1 0.4,0 1,0 1,1 0,0.54 -0.45,0.54 -1.4,0.54 -1.84,0 -3.23,0 -3.23,0.9 0,0.3 0.1,0.55 0.15,0.85 l 3.38,13.65 h 15.19 c -2.09,-8.27 -3.23,-13.01 -3.43,-13.75 -0.5,-1.6 -1.44,-1.65 -4.53,-1.65 -0.75,0 -1.2,0 -1.2,-0.99 0,-0.55 0.6,-0.55 0.7,-0.55 1.39,0 4.93,0.15 6.32,0.15 1.05,0 2.14,-0.05 3.19,-0.05 1.1,0 2.19,-0.1 3.24,-0.1 0.4,0 1,0 1,1 0,0.54 -0.45,0.54 -1.4,0.54 -1.84,0 -3.24,0 -3.24,0.9 0,0.3 0.1,0.55 0.15,0.85 z"
           style="fill:#000000;stroke-width:0" /><path
           id="path9188"
           d="m 517.49,394.04 0,0.03 0,0.03 -0.01,0.01 0,0.02 0,0.01 -0.01,0.02 0,0.02 -0.01,0.01 -0.01,0.02 -0.01,0.02 -0.01,0.03 -0.01,0.02 -0.02,0.02 -0.02,0.03 -0.02,0.03 -0.02,0.03 -0.03,0.03 -0.03,0.04 -0.01,0.02 -0.02,0.02 -0.02,0.02 -0.02,0.02 -0.02,0.02 -0.02,0.03 -0.02,0.02 -0.02,0.02 -0.02,0.03 -0.03,0.02 -0.02,0.03 -0.03,0.03 -0.02,0.03 -0.03,0.03 -0.03,0.03 -0.03,0.03 -0.03,0.03 -0.03,0.03 -0.04,0.04 -0.03,0.03 -0.04,0.04 -0.03,0.03 -0.04,0.04 -0.04,0.04 c -6.23,6.28 -7.82,15.69 -7.82,23.31 0,8.67 1.89,17.34 8.02,23.57 0.65,0.59 0.65,0.69 0.65,0.84 0,0.35 -0.2,0.5 -0.5,0.5 -0.5,0 -4.98,-3.39 -7.92,-9.72 -2.54,-5.47 -3.14,-11 -3.14,-15.19 0,-3.88 0.55,-9.91 3.29,-15.54 2.99,-6.12 7.27,-9.36 7.77,-9.36 0.3,0 0.5,0.15 0.5,0.49 z"
           style="fill:#000000;stroke-width:0" /><path
           id="path9190"
           d="m 522.24,399.92 -0.03,-0.15 -0.04,-0.15 -0.03,-0.14 -0.04,-0.13 -0.03,-0.13 -0.04,-0.11 -0.03,-0.12 -0.04,-0.1 -0.04,-0.1 -0.04,-0.09 -0.04,-0.09 -0.05,-0.08 -0.05,-0.07 -0.05,-0.07 -0.06,-0.07 -0.06,-0.05 -0.07,-0.06 -0.07,-0.05 -0.08,-0.04 -0.09,-0.04 -0.09,-0.04 -0.1,-0.03 -0.11,-0.03 -0.12,-0.02 -0.13,-0.02 -0.13,-0.02 -0.07,0 -0.08,-0.01 -0.07,-0.01 -0.08,0 -0.08,-0.01 -0.09,0 -0.08,0 -0.09,-0.01 -0.09,0 -0.1,0 -0.1,0 -0.1,0 c -0.6,0 -1.14,0 -1.14,-0.95 0,-0.39 0.25,-0.59 0.64,-0.59 h 9.12 c 0.25,0 0.9,0 0.9,0.99 0,0.55 -0.5,0.55 -1.2,0.55 -2.49,0 -2.49,0.35 -2.49,0.8 0,0.59 2.09,8.71 2.44,9.96 0.65,-1.44 2.04,-3.19 4.58,-3.19 l -0.05,1.1 c -3.28,0 -3.93,4.13 -3.93,4.43 0,0.1 0,0.2 0.15,0.8 l 2.44,9.76 c 0.34,1.35 1.69,2.74 2.59,3.49 1.74,1.54 3.18,1.89 4.03,1.89 1.99,0 3.19,-1.74 3.19,-4.68 0,-2.94 -1.64,-8.67 -2.54,-10.56 -1.69,-3.49 -4.08,-5.13 -5.93,-5.13 l 0.05,-1.1 c 5.78,0 12.01,7.28 12.01,14.6 0,4.68 -2.84,7.97 -6.63,7.97 -2.49,0 -4.88,-1.8 -6.52,-3.74 -0.5,2.69 -2.64,3.74 -4.49,3.74 -2.29,0 -3.24,-1.95 -3.68,-2.84 -0.9,-1.7 -1.55,-4.68 -1.55,-4.83 0,-0.5 0.5,-0.5 0.6,-0.5 0.5,0 0.55,0.05 0.85,1.14 0.85,3.54 1.84,5.93 3.63,5.93 0.85,0 1.55,-0.4 1.55,-2.29 0,-1.15 -0.15,-1.69 -0.35,-2.54 z"
           style="fill:#000000;stroke-width:0" /><path
           id="path9192"
           d="m 559.4,418.45 -0.01,0.37 0,0.39 -0.01,0.39 -0.01,0.41 -0.04,0.84 -0.06,0.88 -0.09,0.92 -0.1,0.94 -0.14,0.98 -0.16,1 -0.2,1.02 -0.23,1.04 -0.27,1.05 -0.3,1.06 -0.35,1.06 -0.39,1.07 -0.22,0.53 -0.22,0.54 -0.24,0.53 -0.25,0.53 c -2.99,6.12 -7.27,9.36 -7.77,9.36 -0.3,0 -0.5,-0.2 -0.5,-0.5 0,-0.15 0,-0.25 0.94,-1.15 4.89,-4.92 7.73,-12.85 7.73,-23.26 0,-8.52 -1.85,-17.28 -8.02,-23.56 -0.65,-0.6 -0.65,-0.69 -0.65,-0.85 0,-0.29 0.2,-0.49 0.5,-0.49 0.5,0 4.98,3.38 7.92,9.71 2.54,5.48 3.14,11.01 3.14,15.19 z"
           style="fill:#000000;stroke-width:0" /></g>    </g>
  </g>
</svg>
