<?xml version="1.0" encoding="UTF-8" standalone="no"?>
<!-- Created with Inkscape (http://www.inkscape.org/) -->

<svg
   xmlns:dc="http://purl.org/dc/elements/1.1/"
   xmlns:cc="http://creativecommons.org/ns#"
   xmlns:rdf="http://www.w3.org/1999/02/22-rdf-syntax-ns#"
   xmlns:svg="http://www.w3.org/2000/svg"
   xmlns="http://www.w3.org/2000/svg"
   xmlns:sodipodi="http://sodipodi.sourceforge.net/DTD/sodipodi-0.dtd"
   xmlns:inkscape="http://www.inkscape.org/namespaces/inkscape"
   width="210mm"
   height="297mm"
   id="svg2"
   version="1.1"
   inkscape:version="0.48.0 r9654"
   sodipodi:docname="rapidite.svg"
   inkscape:export-filename="C:\Users\Xavier Pessoles\Dropbox\PartageXavier\PTSI\2_Asservissements\Cours\1_Introduction\png\rapidite.png"
   inkscape:export-xdpi="299"
   inkscape:export-ydpi="299">
  <sodipodi:namedview
     id="base"
     pagecolor="#ffffff"
     bordercolor="#666666"
     borderopacity="1.0"
     inkscape:pageopacity="0.0"
     inkscape:pageshadow="2"
     inkscape:zoom="2.0993242"
     inkscape:cx="198.3799"
     inkscape:cy="948.08426"
     inkscape:document-units="px"
     inkscape:current-layer="layer1"
     showgrid="true"
     inkscape:window-width="998"
     inkscape:window-height="591"
     inkscape:window-x="75"
     inkscape:window-y="75"
     inkscape:window-maximized="0">
    <inkscape:grid
       type="xygrid"
       id="grid2816" />
  </sodipodi:namedview>
  <defs
     id="defs4">
    <marker
       inkscape:stockid="Arrow1Mend"
       orient="auto"
       refY="0.0"
       refX="0.0"
       id="Arrow1Mend"
       style="overflow:visible;">
      <path
         id="path3632"
         d="M 0.0,0.0 L 5.0,-5.0 L -12.5,0.0 L 5.0,5.0 L 0.0,0.0 z "
         style="fill-rule:evenodd;stroke:#000000;stroke-width:1.0pt;marker-start:none;"
         transform="scale(0.4) rotate(180) translate(10,0)" />
    </marker>
    <marker
       inkscape:stockid="Arrow1Lend"
       orient="auto"
       refY="0.0"
       refX="0.0"
       id="Arrow1Lend"
       style="overflow:visible;">
      <path
         id="path3626"
         d="M 0.0,0.0 L 5.0,-5.0 L -12.5,0.0 L 5.0,5.0 L 0.0,0.0 z "
         style="fill-rule:evenodd;stroke:#000000;stroke-width:1.0pt;marker-start:none;"
         transform="scale(0.8) rotate(180) translate(12.5,0)" />
    </marker>
    <inkscape:perspective
       sodipodi:type="inkscape:persp3d"
       inkscape:vp_x="0 : 526.18109 : 1"
       inkscape:vp_y="0 : 1000 : 0"
       inkscape:vp_z="744.09448 : 526.18109 : 1"
       inkscape:persp3d-origin="372.04724 : 350.78739 : 1"
       id="perspective10" />
  </defs>
  <metadata
     id="metadata7">
    <rdf:RDF>
      <cc:Work
         rdf:about="">
        <dc:format>image/svg+xml</dc:format>
        <dc:type
           rdf:resource="http://purl.org/dc/dcmitype/StillImage" />
        <dc:title></dc:title>
      </cc:Work>
    </rdf:RDF>
  </metadata>
  <g
     inkscape:label="Calque 1"
     inkscape:groupmode="layer"
     id="layer1">
    <path
       sodipodi:nodetypes="cc"
       id="path5243"
       d="M 30,82.362186 30,7.3621829"
       style="fill:none;stroke:#000000;stroke-width:1px;stroke-linecap:butt;stroke-linejoin:miter;stroke-opacity:1;marker-end:url(#Arrow1Mend)" />
    <path
       style="fill:none;stroke:#000000;stroke-width:1px;stroke-linecap:butt;stroke-linejoin:miter;stroke-opacity:1;marker-end:url(#Arrow1Mend)"
       d="m 30,82.362183 120,0"
       id="path5431"
       sodipodi:nodetypes="cc" />
    <path
       sodipodi:nodetypes="ccc"
       id="path5441"
       d="m 30,82.362183 0,-50 115,0"
       style="fill:none;stroke:#ff0000;stroke-width:1px;stroke-linecap:butt;stroke-linejoin:miter;stroke-opacity:1" />
    <g
       transform="matrix(0.18886584,0,0,0.18886584,-24.246134,-7.4491021)"
       id="g5510">
      <g
         style="font-style:normal;font-variant:normal;font-weight:normal;font-stretch:normal;letter-spacing:normal;word-spacing:normal;text-anchor:start;fill:none;stroke:#000000;stroke-width:5.29476357;stroke-linecap:butt;stroke-linejoin:miter;stroke-miterlimit:10.43299961;stroke-opacity:1;stroke-dasharray:none;stroke-dashoffset:0"
         id="g5512"
         transform="matrix(1.0629921,0,0,-1.0629921,-186.02362,789.27165)"
         xml:space="preserve"
         stroke-miterlimit="10.433"
         fill-rule="even-odd"
         font-style="normal"
         font-variant="normal"
         font-weight="normal"
         font-stretch="normal"
         font-size-adjust="none"
         letter-spacing="normal"
         word-spacing="normal"><path
           style="fill:#000000;stroke-width:0"
           d="m 465.32,417.51 0.14,0 0.15,0 0.17,0 0.18,0 0.18,0.01 0.2,0 0.21,0.01 0.21,0.01 0.23,0.01 0.23,0.01 0.24,0.02 0.24,0.01 0.25,0.02 0.26,0.03 0.52,0.05 0.54,0.06 0.54,0.08 0.55,0.09 0.54,0.11 0.53,0.13 0.27,0.07 0.25,0.07 0.26,0.08 0.25,0.09 0.24,0.09 0.24,0.09 c 3.48,1.5 3.73,4.44 3.73,5.14 0,2.19 -1.89,4.23 -5.33,4.23 v -1.1 c 2.34,0 3.69,-1.44 3.69,-3.13 0,-5.19 -7.97,-5.19 -10.01,-5.19 h -2.05 c 1.95,7.58 7.08,8.32 8.37,8.32 v 1.1 c -5.53,0 -13.05,-4.84 -13.05,-13.55 0,-5.08 2.94,-9.02 7.82,-9.02 7.12,0 11.31,5.28 11.31,5.88 0,0.3 -0.3,0.65 -0.6,0.65 -0.25,0 -0.35,-0.1 -0.64,-0.5 -3.94,-4.93 -9.37,-4.93 -9.97,-4.93 -3.88,0 -4.33,4.18 -4.33,5.78 0,0.6 0.05,2.14 0.8,5.18 z"
           id="path5514" /><path
           style="fill:#000000;stroke-width:0"
           d="m 495.49,394.04 0,0.03 0,0.03 -0.01,0.01 0,0.02 0,0.01 -0.01,0.02 0,0.02 -0.01,0.01 -0.01,0.02 -0.01,0.02 -0.01,0.03 -0.01,0.02 -0.02,0.02 -0.02,0.03 -0.02,0.03 -0.02,0.03 -0.03,0.03 -0.03,0.04 -0.01,0.02 -0.02,0.02 -0.02,0.02 -0.02,0.02 -0.02,0.02 -0.02,0.03 -0.02,0.02 -0.02,0.02 -0.02,0.03 -0.03,0.02 -0.02,0.03 -0.03,0.03 -0.02,0.03 -0.03,0.03 -0.03,0.03 -0.03,0.03 -0.03,0.03 -0.03,0.03 -0.04,0.04 -0.03,0.03 -0.04,0.04 -0.03,0.03 -0.04,0.04 -0.04,0.04 c -6.23,6.28 -7.82,15.69 -7.82,23.31 0,8.67 1.89,17.34 8.02,23.57 0.65,0.59 0.65,0.69 0.65,0.84 0,0.35 -0.2,0.5 -0.5,0.5 -0.5,0 -4.98,-3.39 -7.92,-9.72 -2.54,-5.47 -3.14,-11 -3.14,-15.19 0,-3.88 0.55,-9.91 3.29,-15.54 2.99,-6.12 7.27,-9.36 7.77,-9.36 0.3,0 0.5,0.15 0.5,0.49 z"
           id="path5516" /><path
           style="fill:#000000;stroke-width:0"
           d="m 508.26,425.93 h 4.69 c 0.99,0 1.49,0 1.49,0.99 0,0.55 -0.5,0.55 -1.4,0.55 h -4.38 c 1.79,7.07 2.04,8.07 2.04,8.37 0,0.84 -0.59,1.34 -1.44,1.34 -0.15,0 -1.55,-0.05 -1.99,-1.79 l -1.95,-7.92 h -4.68 c -1,0 -1.5,0 -1.5,-0.95 0,-0.59 0.4,-0.59 1.4,-0.59 h 4.39 c -3.59,-14.15 -3.79,-15 -3.79,-15.89 0,-2.7 1.89,-4.59 4.58,-4.59 5.08,0 7.92,7.28 7.92,7.67 0,0.5 -0.4,0.5 -0.6,0.5 -0.45,0 -0.49,-0.15 -0.74,-0.69 -2.14,-5.19 -4.78,-6.38 -6.48,-6.38 -1.05,0 -1.54,0.65 -1.54,2.29 0,1.2 0.1,1.54 0.29,2.39 z"
           id="path5518" /><path
           style="fill:#000000;stroke-width:0"
           d="m 530.4,418.45 -0.01,0.37 0,0.39 -0.01,0.39 -0.01,0.41 -0.04,0.84 -0.06,0.88 -0.09,0.92 -0.1,0.94 -0.14,0.98 -0.16,1 -0.2,1.02 -0.23,1.04 -0.27,1.05 -0.3,1.06 -0.35,1.06 -0.39,1.07 -0.22,0.53 -0.22,0.54 -0.24,0.53 -0.25,0.53 c -2.99,6.12 -7.27,9.36 -7.77,9.36 -0.3,0 -0.5,-0.2 -0.5,-0.5 0,-0.15 0,-0.25 0.94,-1.15 4.89,-4.92 7.73,-12.85 7.73,-23.26 0,-8.52 -1.85,-17.28 -8.02,-23.56 -0.65,-0.6 -0.65,-0.69 -0.65,-0.85 0,-0.29 0.2,-0.49 0.5,-0.49 0.5,0 4.98,3.38 7.92,9.71 2.54,5.48 3.14,11.01 3.14,15.19 z"
           id="path5520" /></g>    </g>
    <g
       transform="matrix(0.29648306,0,0,0.29648306,22.480618,-25.534449)"
       id="g5924">
      <g
         style="font-style:normal;font-variant:normal;font-weight:normal;font-stretch:normal;letter-spacing:normal;word-spacing:normal;text-anchor:start;fill:none;stroke:#000000;stroke-width:3.37287402;stroke-linecap:butt;stroke-linejoin:miter;stroke-miterlimit:10.43299961;stroke-opacity:1;stroke-dasharray:none;stroke-dashoffset:0"
         word-spacing="normal"
         letter-spacing="normal"
         font-size-adjust="none"
         font-stretch="normal"
         font-weight="normal"
         font-variant="normal"
         font-style="normal"
         fill-rule="even-odd"
         stroke-miterlimit="10.433"
         xml:space="preserve"
         transform="matrix(1.0629921,0,0,-1.0629921,-186.02362,789.27165)"
         id="g5926"><path
           style="fill:#000000;stroke-width:0"
           id="path5928"
           d="m 547.88901,431.874 h 4.69 c 0.99,0 1.49,0 1.49,0.99 0,0.55 -0.5,0.55 -1.4,0.55 h -4.38 c 1.79,7.07 2.04,8.07 2.04,8.37 0,0.84 -0.59,1.34 -1.44,1.34 -0.15,0 -1.55,-0.05 -1.99,-1.79 l -1.95,-7.92 h -4.68 c -1,0 -1.5,0 -1.5,-0.95 0,-0.59 0.4,-0.59 1.4,-0.59 h 4.39 c -3.59,-14.15 -3.79,-15 -3.79,-15.89 0,-2.7 1.89,-4.59 4.58,-4.59 5.08,0 7.92,7.28 7.92,7.67 0,0.5 -0.4,0.5 -0.6,0.5 -0.45,0 -0.49,-0.15 -0.74,-0.69 -2.14,-5.19 -4.78,-6.38 -6.48,-6.38 -1.05,0 -1.54,0.65 -1.54,2.29 0,1.2 0.1,1.54 0.29,2.39 z" /></g>    </g>
    <g
       transform="matrix(0.25972964,0,0,0.25972964,-62.578685,-10.415293)"
       id="g6026">
      <g
         style="font-style:normal;font-variant:normal;font-weight:normal;font-stretch:normal;letter-spacing:normal;word-spacing:normal;text-anchor:start;fill:none;stroke:#000000;stroke-width:3.85015726;stroke-linecap:butt;stroke-linejoin:miter;stroke-miterlimit:10.43299961;stroke-opacity:1;stroke-dasharray:none;stroke-dashoffset:0"
         id="g6028"
         transform="matrix(1.0629921,0,0,-1.0629921,-186.02362,789.27165)"
         xml:space="preserve"
         stroke-miterlimit="10.433"
         fill-rule="even-odd"
         font-style="normal"
         font-variant="normal"
         font-weight="normal"
         font-stretch="normal"
         font-size-adjust="none"
         letter-spacing="normal"
         word-spacing="normal"><path
           style="fill:#000000;stroke-width:0"
           d="m 492.86,427.72 -0.01,0.74 -0.05,0.73 -0.07,0.71 -0.11,0.7 -0.13,0.67 -0.16,0.66 -0.19,0.64 -0.22,0.63 -0.24,0.6 -0.27,0.58 -0.29,0.56 -0.32,0.54 -0.34,0.52 -0.37,0.5 -0.38,0.47 -0.42,0.46 -0.43,0.42 -0.45,0.41 -0.48,0.38 -0.49,0.35 -0.51,0.33 -0.53,0.3 -0.56,0.28 -0.56,0.25 -0.59,0.22 -0.6,0.2 -0.62,0.16 -0.63,0.14 -0.65,0.11 -0.66,0.07 -0.68,0.05 -0.69,0.02 -0.3,-1.25 c 4.09,0 8.57,-2.79 8.57,-10.21 0,-3.59 -1.35,-11.36 -6.28,-17.48 -2.39,-3.04 -6.47,-5.98 -10.66,-5.98 h 0 c -4.93,0 -8.42,4.03 -8.42,10.61 0,2.19 0.7,9.46 4.54,15.29 3.43,5.18 8.32,7.77 12.25,7.77 l 0.3,1.25 c -10.76,0 -21.72,-11.31 -21.72,-22.92 0,-8.27 5.58,-13.3 12.75,-13.3 10.56,0 21.67,10.91 21.67,22.82 z"
           id="path6030" /></g>    </g>
    <path
       sodipodi:nodetypes="csc"
       id="path6082"
       d="m 30,82.362182 c 32.760936,0 40,-60.499999 65,-60.5 15,0 40,10.500001 50,10.500001"
       style="fill:none;stroke:#0000ff;stroke-width:1px;stroke-linecap:butt;stroke-linejoin:miter;stroke-opacity:1" />
    <g
       id="g6192"
       transform="matrix(0.22663901,0,0,0.22663901,-6.814494,-9.7331828)">
      <g
         id="g6194"
         transform="matrix(1.0629921,0,0,-1.0629921,-186.02362,789.27165)"
         xml:space="preserve"
         stroke-miterlimit="10.433"
         fill-rule="even-odd"
         font-style="normal"
         font-variant="normal"
         font-weight="normal"
         font-stretch="normal"
         font-size-adjust="none"
         letter-spacing="normal"
         word-spacing="normal"
         style="font-style:normal;font-variant:normal;font-weight:normal;font-stretch:normal;letter-spacing:normal;word-spacing:normal;text-anchor:start;fill:none;stroke:#000000;stroke-width:4.41230297;stroke-linecap:butt;stroke-linejoin:miter;stroke-miterlimit:10.43299961;stroke-opacity:1;stroke-dasharray:none;stroke-dashoffset:0"><path
           d="m 475.48,424.63 -0.13,-0.01 -0.13,-0.01 -0.12,-0.02 -0.13,-0.03 -0.12,-0.03 -0.11,-0.03 -0.11,-0.04 -0.12,-0.05 -0.1,-0.05 -0.11,-0.05 -0.1,-0.06 -0.09,-0.06 -0.1,-0.07 -0.08,-0.07 -0.09,-0.07 -0.08,-0.08 -0.08,-0.08 -0.07,-0.08 -0.07,-0.09 -0.07,-0.08 -0.06,-0.09 -0.05,-0.1 -0.05,-0.09 -0.05,-0.1 -0.04,-0.09 -0.03,-0.1 -0.03,-0.1 -0.03,-0.1 -0.02,-0.11 -0.01,-0.1 -0.01,-0.1 0,-0.1 c 0,-0.7 0.45,-1.44 1.54,-1.44 1.1,0 2.29,0.84 2.29,2.78 0,2.25 -2.14,4.29 -5.93,4.29 -6.57,0 -8.42,-5.08 -8.42,-7.27 0,-3.89 3.69,-4.64 5.14,-4.94 2.59,-0.49 5.18,-1.04 5.18,-3.78 0,-1.3 -1.15,-5.48 -7.13,-5.48 -0.69,0 -4.53,0 -5.67,2.64 1.89,-0.25 3.13,1.24 3.13,2.64 0,1.14 -0.79,1.74 -1.84,1.74 -1.29,0 -2.79,-1.04 -2.79,-3.28 0,-2.84 2.84,-4.84 7.12,-4.84 8.08,0 10.02,6.03 10.02,8.27 0,1.8 -0.95,3.04 -1.55,3.64 -1.34,1.39 -2.79,1.64 -4.98,2.09 -1.79,0.4 -3.79,0.75 -3.79,2.99 0,1.44 1.2,4.48 5.58,4.48 1.25,0 3.74,-0.35 4.49,-2.29 z"
           id="path6196"
           style="fill:#000000;stroke-width:0" /><path
           d="m 495.49,394.04 0,0.03 0,0.03 -0.01,0.01 0,0.02 0,0.01 -0.01,0.02 0,0.02 -0.01,0.01 -0.01,0.02 -0.01,0.02 -0.01,0.03 -0.01,0.02 -0.02,0.02 -0.02,0.03 -0.02,0.03 -0.02,0.03 -0.03,0.03 -0.03,0.04 -0.01,0.02 -0.02,0.02 -0.02,0.02 -0.02,0.02 -0.02,0.02 -0.02,0.03 -0.02,0.02 -0.02,0.02 -0.02,0.03 -0.03,0.02 -0.02,0.03 -0.03,0.03 -0.02,0.03 -0.03,0.03 -0.03,0.03 -0.03,0.03 -0.03,0.03 -0.03,0.03 -0.04,0.04 -0.03,0.03 -0.04,0.04 -0.03,0.03 -0.04,0.04 -0.04,0.04 c -6.23,6.28 -7.82,15.69 -7.82,23.31 0,8.67 1.89,17.34 8.02,23.57 0.65,0.59 0.65,0.69 0.65,0.84 0,0.35 -0.2,0.5 -0.5,0.5 -0.5,0 -4.98,-3.39 -7.92,-9.72 -2.54,-5.47 -3.14,-11 -3.14,-15.19 0,-3.88 0.55,-9.91 3.29,-15.54 2.99,-6.12 7.27,-9.36 7.77,-9.36 0.3,0 0.5,0.15 0.5,0.49 z"
           id="path6198"
           style="fill:#000000;stroke-width:0" /><path
           d="m 508.26,425.93 h 4.69 c 0.99,0 1.49,0 1.49,0.99 0,0.55 -0.5,0.55 -1.4,0.55 h -4.38 c 1.79,7.07 2.04,8.07 2.04,8.37 0,0.84 -0.59,1.34 -1.44,1.34 -0.15,0 -1.55,-0.05 -1.99,-1.79 l -1.95,-7.92 h -4.68 c -1,0 -1.5,0 -1.5,-0.95 0,-0.59 0.4,-0.59 1.4,-0.59 h 4.39 c -3.59,-14.15 -3.79,-15 -3.79,-15.89 0,-2.7 1.89,-4.59 4.58,-4.59 5.08,0 7.92,7.28 7.92,7.67 0,0.5 -0.4,0.5 -0.6,0.5 -0.45,0 -0.49,-0.15 -0.74,-0.69 -2.14,-5.19 -4.78,-6.38 -6.48,-6.38 -1.05,0 -1.54,0.65 -1.54,2.29 0,1.2 0.1,1.54 0.29,2.39 z"
           id="path6200"
           style="fill:#000000;stroke-width:0" /><path
           d="m 530.4,418.45 -0.01,0.37 0,0.39 -0.01,0.39 -0.01,0.41 -0.04,0.84 -0.06,0.88 -0.09,0.92 -0.1,0.94 -0.14,0.98 -0.16,1 -0.2,1.02 -0.23,1.04 -0.27,1.05 -0.3,1.06 -0.35,1.06 -0.39,1.07 -0.22,0.53 -0.22,0.54 -0.24,0.53 -0.25,0.53 c -2.99,6.12 -7.27,9.36 -7.77,9.36 -0.3,0 -0.5,-0.2 -0.5,-0.5 0,-0.15 0,-0.25 0.94,-1.15 4.89,-4.92 7.73,-12.85 7.73,-23.26 0,-8.52 -1.85,-17.28 -8.02,-23.56 -0.65,-0.6 -0.65,-0.69 -0.65,-0.85 0,-0.29 0.2,-0.49 0.5,-0.49 0.5,0 4.98,3.38 7.92,9.71 2.54,5.48 3.14,11.01 3.14,15.19 z"
           id="path6202"
           style="fill:#000000;stroke-width:0" /></g>    </g>
    <text
       id="text6267"
       y="122.36218"
       x="86.457031"
       style="font-size:12px;font-style:normal;font-variant:normal;font-weight:normal;font-stretch:normal;text-align:center;text-anchor:middle;fill:#000000;fill-opacity:1;stroke:none;font-family:TeXGyreAdventor;-inkscape-font-specification:TeXGyreAdventor"
       xml:space="preserve"><tspan
         y="122.36218"
         x="86.457031"
         id="tspan6269"
         sodipodi:role="line">Système lent</tspan></text>
    <path
       id="path6275"
       d="M 30,37.576414 C 145,37.362183 145,37.362183 145,37.362183"
       style="fill:none;stroke:#000000;stroke-width:0.5;stroke-linecap:butt;stroke-linejoin:miter;stroke-miterlimit:4;stroke-opacity:1;stroke-dasharray:none" />
    <path
       style="fill:none;stroke:#000000;stroke-width:0.5;stroke-linecap:butt;stroke-linejoin:miter;stroke-miterlimit:4;stroke-opacity:1;stroke-dasharray:none"
       d="M 30,27.576414 C 145,27.362183 145,27.362183 145,27.362183"
       id="path6277" />
    <g
       id="g6346"
       transform="matrix(0.18992075,0,0,0.18992075,-43.611037,-33.248185)">
      <g
         word-spacing="normal"
         letter-spacing="normal"
         font-size-adjust="none"
         font-stretch="normal"
         font-weight="normal"
         font-variant="normal"
         font-style="normal"
         fill-rule="even-odd"
         stroke-miterlimit="10.433"
         xml:space="preserve"
         transform="matrix(1.0629921,0,0,-1.0629921,-186.02362,789.27165)"
         id="content"
         style="font-style:normal;font-variant:normal;font-weight:normal;font-stretch:normal;letter-spacing:normal;word-spacing:normal;text-anchor:start;fill:none;stroke:#000000;stroke-width:5.26535416;stroke-linecap:butt;stroke-linejoin:miter;stroke-miterlimit:10.43299961;stroke-opacity:1;stroke-dasharray:none;stroke-dashoffset:0"><path
           id="path6349"
           d="m 465.32,417.51 0.14,0 0.15,0 0.17,0 0.18,0 0.18,0.01 0.2,0 0.21,0.01 0.21,0.01 0.23,0.01 0.23,0.01 0.24,0.02 0.24,0.01 0.25,0.02 0.26,0.03 0.52,0.05 0.54,0.06 0.54,0.08 0.55,0.09 0.54,0.11 0.53,0.13 0.27,0.07 0.25,0.07 0.26,0.08 0.25,0.09 0.24,0.09 0.24,0.09 c 3.48,1.5 3.73,4.44 3.73,5.14 0,2.19 -1.89,4.23 -5.33,4.23 v -1.1 c 2.34,0 3.69,-1.44 3.69,-3.13 0,-5.19 -7.97,-5.19 -10.01,-5.19 h -2.05 c 1.95,7.58 7.08,8.32 8.37,8.32 v 1.1 c -5.53,0 -13.05,-4.84 -13.05,-13.55 0,-5.08 2.94,-9.02 7.82,-9.02 7.12,0 11.31,5.28 11.31,5.88 0,0.3 -0.3,0.65 -0.6,0.65 -0.25,0 -0.35,-0.1 -0.64,-0.5 -3.94,-4.93 -9.37,-4.93 -9.97,-4.93 -3.88,0 -4.33,4.18 -4.33,5.78 0,0.6 0.05,2.14 0.8,5.18 z"
           style="fill:#000000;stroke-width:0" /><path
           id="path6351"
           d="m 496.99,410.12 0,0.71 -0.02,0.68 -0.03,0.66 -0.04,0.64 -0.06,0.62 -0.08,0.59 -0.09,0.58 -0.11,0.56 -0.12,0.55 -0.15,0.53 -0.17,0.51 -0.19,0.5 -0.21,0.49 -0.24,0.48 -0.26,0.47 -0.14,0.24 -0.15,0.23 c -1.07,1.6 -3.24,2.99 -6.03,2.99 v -0.97 c 1.89,0 3.7,-1.15 4.33,-3.18 0.56,-1.88 0.59,-4.39 0.59,-7.42 0,-2.58 0,-5.17 -0.45,-7.36 -0.7,-3.17 -3.07,-3.94 -4.47,-3.94 h 0 c -1.6,0 -3.73,0.94 -4.43,3.8 -0.49,2.06 -0.49,4.92 -0.49,7.5 0,2.54 0,5.19 0.53,7.11 0.73,2.76 2.96,3.49 4.39,3.49 v 0.97 c -8.09,0 -8.09,-9.52 -8.09,-12.03 0,-2.51 0,-11.82 8.09,-11.82 8.09,0 8.09,9.31 8.09,11.82 z"
           style="fill:#000000;stroke-width:0" /></g>    </g>
    <g
       id="g6493"
       transform="matrix(0.12526508,0,0,0.12526508,2.2023977,-22.423438)">
      <g
         id="g6495"
         transform="matrix(1.0629921,0,0,-1.0629921,-186.02362,789.27165)"
         xml:space="preserve"
         stroke-miterlimit="10.433"
         fill-rule="even-odd"
         font-style="normal"
         font-variant="normal"
         font-weight="normal"
         font-stretch="normal"
         font-size-adjust="none"
         letter-spacing="normal"
         word-spacing="normal"
         style="font-style:normal;font-variant:normal;font-weight:normal;font-stretch:normal;letter-spacing:normal;word-spacing:normal;text-anchor:start;fill:none;stroke:#000000;stroke-width:7.98307085;stroke-linecap:butt;stroke-linejoin:miter;stroke-miterlimit:10.43299961;stroke-opacity:1;stroke-dasharray:none;stroke-dashoffset:0"><path
           d="m 465.32,417.51 0.14,0 0.15,0 0.17,0 0.18,0 0.18,0.01 0.2,0 0.21,0.01 0.21,0.01 0.23,0.01 0.23,0.01 0.24,0.02 0.24,0.01 0.25,0.02 0.26,0.03 0.52,0.05 0.54,0.06 0.54,0.08 0.55,0.09 0.54,0.11 0.53,0.13 0.27,0.07 0.25,0.07 0.26,0.08 0.25,0.09 0.24,0.09 0.24,0.09 c 3.48,1.5 3.73,4.44 3.73,5.14 0,2.19 -1.89,4.23 -5.33,4.23 v -1.1 c 2.34,0 3.69,-1.44 3.69,-3.13 0,-5.19 -7.97,-5.19 -10.01,-5.19 h -2.05 c 1.95,7.58 7.08,8.32 8.37,8.32 v 1.1 c -5.53,0 -13.05,-4.84 -13.05,-13.55 0,-5.08 2.94,-9.02 7.82,-9.02 7.12,0 11.31,5.28 11.31,5.88 0,0.3 -0.3,0.65 -0.6,0.65 -0.25,0 -0.35,-0.1 -0.64,-0.5 -3.94,-4.93 -9.37,-4.93 -9.97,-4.93 -3.88,0 -4.33,4.18 -4.33,5.78 0,0.6 0.05,2.14 0.8,5.18 z"
           id="path6497"
           style="fill:#000000;stroke-width:0" /><path
           d="m 496.99,410.12 0,0.71 -0.02,0.68 -0.03,0.66 -0.04,0.64 -0.06,0.62 -0.08,0.59 -0.09,0.58 -0.11,0.56 -0.12,0.55 -0.15,0.53 -0.17,0.51 -0.19,0.5 -0.21,0.49 -0.24,0.48 -0.26,0.47 -0.14,0.24 -0.15,0.23 c -1.07,1.6 -3.24,2.99 -6.03,2.99 v -0.97 c 1.89,0 3.7,-1.15 4.33,-3.18 0.56,-1.88 0.59,-4.39 0.59,-7.42 0,-2.58 0,-5.17 -0.45,-7.36 -0.7,-3.17 -3.07,-3.94 -4.47,-3.94 h 0 c -1.6,0 -3.73,0.94 -4.43,3.8 -0.49,2.06 -0.49,4.92 -0.49,7.5 0,2.54 0,5.19 0.53,7.11 0.73,2.76 2.96,3.49 4.39,3.49 v 0.97 c -8.09,0 -8.09,-9.52 -8.09,-12.03 0,-2.51 0,-11.82 8.09,-11.82 8.09,0 8.09,9.31 8.09,11.82 z"
           id="path6499"
           style="fill:#000000;stroke-width:0" /><path
           d="m 532.38,417.46 h 13.89 c 0.7,0 1.64,0 1.64,0.99 0,1 -0.94,1 -1.64,1 h -13.89 v 13.95 c 0,0.69 0,1.64 -1,1.64 -1,0 -1,-0.95 -1,-1.64 v -13.95 h -13.95 c -0.7,0 -1.64,0 -1.64,-1 0,-0.99 0.94,-0.99 1.64,-0.99 h 13.95 v -13.95 c 0,-0.7 0,-1.64 1,-1.64 1,0 1,0.94 1,1.64 z"
           id="path6501"
           style="fill:#000000;stroke-width:0" /><path
           d="m 566.38,408.94 -0.01,-0.07 -0.02,-0.08 -0.01,-0.07 -0.02,-0.08 -0.03,-0.16 -0.04,-0.16 -0.04,-0.16 -0.03,-0.16 -0.04,-0.16 -0.04,-0.16 -0.01,-0.08 -0.02,-0.07 -0.02,-0.07 -0.01,-0.07 -0.02,-0.07 -0.01,-0.07 -0.01,-0.06 -0.02,-0.06 -0.01,-0.05 -0.01,-0.06 -0.01,-0.05 0,-0.04 -0.01,-0.04 0,-0.04 -0.01,-0.03 0,-0.02 c 0,-0.9 0.7,-1.35 1.45,-1.35 0.6,0 1.5,0.4 1.84,1.4 0.05,0.1 0.65,2.44 0.95,3.68 l 1.1,4.49 c 0.29,1.09 0.59,2.19 0.84,3.34 0.2,0.84 0.6,2.28 0.65,2.48 0.75,1.55 3.39,6.08 8.12,6.08 2.24,0 2.69,-1.84 2.69,-3.49 0,-3.08 -2.44,-9.46 -3.24,-11.6 -0.45,-1.15 -0.5,-1.74 -0.5,-2.29 0,-2.34 1.75,-4.09 4.09,-4.09 4.68,0 6.52,7.28 6.52,7.67 0,0.5 -0.44,0.5 -0.6,0.5 -0.49,0 -0.49,-0.15 -0.74,-0.89 -1,-3.39 -2.64,-6.18 -5.08,-6.18 -0.85,0 -1.2,0.5 -1.2,1.64 0,1.25 0.45,2.44 0.9,3.54 0.94,2.64 3.04,8.12 3.04,10.96 0,3.33 -2.15,5.33 -5.73,5.33 -4.48,0 -6.93,-3.19 -7.77,-4.34 -0.25,2.79 -2.29,4.34 -4.58,4.34 -2.3,0 -3.24,-1.95 -3.74,-2.84 -0.8,-1.7 -1.49,-4.63 -1.49,-4.83 0,-0.5 0.49,-0.5 0.59,-0.5 0.5,0 0.55,0.05 0.85,1.14 0.84,3.54 1.84,5.93 3.64,5.93 0.99,0 1.54,-0.65 1.54,-2.29 0,-1.04 -0.15,-1.59 -0.8,-4.18 z"
           id="path6503"
           style="fill:#000000;stroke-width:0" /><path
           d="m 626.12,441.47 0.03,0.04 0.03,0.04 0.02,0.04 0.02,0.03 0.03,0.04 0.02,0.03 0.02,0.03 0.02,0.03 0.02,0.03 0.02,0.03 0.01,0.03 0.02,0.03 0.01,0.03 0.02,0.02 0.01,0.03 0.01,0.02 0.01,0.03 0.01,0.02 0.01,0.02 0.01,0.03 0.01,0.02 0.01,0.02 0,0.03 0.01,0.02 0,0.02 0.01,0.03 0,0.02 0.01,0.03 0,0.02 0,0.03 0,0.03 0,0.02 c 0,0.55 -0.45,1 -1,1 -0.49,0 -0.74,-0.35 -1.04,-0.7 -2.49,-3.39 -5.83,-4.73 -9.46,-4.73 -3.49,0 -6.58,1.25 -9.32,3.84 -0.95,0.84 -1.99,1.59 -3.59,1.59 l 0.05,-1.09 c 2.64,0 5.18,-3.69 5.18,-8.92 0,-5.38 -2.59,-8.97 -5.18,-8.97 h 0 c -1,0 -4.28,0.65 -4.28,8.92 0,8.32 3.24,8.97 4.28,8.97 l -0.05,1.09 c -3.78,0 -7.32,-4.18 -7.32,-10.01 0,-6.03 3.59,-10.06 7.32,-10.06 3.64,0 6.48,4.43 6.48,10.01 0,0.7 0,3.04 -1.05,5.63 3.24,-1.85 5.73,-2.09 7.52,-2.09 3.79,0 6.33,1.54 6.63,1.74 l 0.05,-0.05 -22.37,-33.33 c -0.44,-0.65 -0.44,-0.9 -0.44,-0.99 0,-0.55 0.49,-1 0.99,-1 0.5,0 0.6,0.2 1,0.75 z"
           id="path6505"
           style="fill:#000000;stroke-width:0" /><path
           d="m 630.66,413.22 -0.01,0.54 -0.03,0.52 -0.04,0.52 -0.06,0.5 -0.07,0.5 -0.09,0.48 -0.1,0.47 -0.12,0.46 -0.13,0.45 -0.14,0.44 -0.16,0.42 -0.17,0.4 -0.18,0.4 -0.2,0.38 -0.2,0.36 -0.22,0.34 -0.22,0.33 -0.24,0.31 -0.24,0.3 -0.26,0.27 -0.26,0.26 -0.27,0.24 -0.28,0.21 -0.29,0.2 -0.29,0.17 -0.3,0.16 -0.31,0.13 -0.31,0.11 -0.31,0.08 -0.32,0.06 -0.33,0.04 -0.33,0.02 c -3.78,0 -7.33,-4.19 -7.33,-10.02 0,-6.02 3.59,-10.06 7.33,-10.06 l 0.05,1.09 c -1,0 -4.28,0.65 -4.28,8.92 0,8.32 3.23,8.97 4.28,8.97 2.64,0 5.18,-3.69 5.18,-8.92 0,-5.38 -2.59,-8.97 -5.18,-8.97 h 0 l -0.05,-1.09 c 3.64,0 6.48,4.43 6.48,10.01 z"
           id="path6507"
           style="fill:#000000;stroke-width:0" /></g>    </g>
    <g
       id="g6665"
       transform="matrix(0.12526508,0,0,0.12526508,2.1251673,-1.896141)">
      <g
         word-spacing="normal"
         letter-spacing="normal"
         font-size-adjust="none"
         font-stretch="normal"
         font-weight="normal"
         font-variant="normal"
         font-style="normal"
         fill-rule="even-odd"
         stroke-miterlimit="10.433"
         xml:space="preserve"
         transform="matrix(1.0629921,0,0,-1.0629921,-186.02362,789.27165)"
         id="g6667"
         style="font-style:normal;font-variant:normal;font-weight:normal;font-stretch:normal;letter-spacing:normal;word-spacing:normal;text-anchor:start;fill:none;stroke:#000000;stroke-width:7.98307085;stroke-linecap:butt;stroke-linejoin:miter;stroke-miterlimit:10.43299961;stroke-opacity:1;stroke-dasharray:none;stroke-dashoffset:0"><path
           id="path6669"
           d="m 465.32,417.51 0.14,0 0.15,0 0.17,0 0.18,0 0.18,0.01 0.2,0 0.21,0.01 0.21,0.01 0.23,0.01 0.23,0.01 0.24,0.02 0.24,0.01 0.25,0.02 0.26,0.03 0.52,0.05 0.54,0.06 0.54,0.08 0.55,0.09 0.54,0.11 0.53,0.13 0.27,0.07 0.25,0.07 0.26,0.08 0.25,0.09 0.24,0.09 0.24,0.09 c 3.48,1.5 3.73,4.44 3.73,5.14 0,2.19 -1.89,4.23 -5.33,4.23 v -1.1 c 2.34,0 3.69,-1.44 3.69,-3.13 0,-5.19 -7.97,-5.19 -10.01,-5.19 h -2.05 c 1.95,7.58 7.08,8.32 8.37,8.32 v 1.1 c -5.53,0 -13.05,-4.84 -13.05,-13.55 0,-5.08 2.94,-9.02 7.82,-9.02 7.12,0 11.31,5.28 11.31,5.88 0,0.3 -0.3,0.65 -0.6,0.65 -0.25,0 -0.35,-0.1 -0.64,-0.5 -3.94,-4.93 -9.37,-4.93 -9.97,-4.93 -3.88,0 -4.33,4.18 -4.33,5.78 0,0.6 0.05,2.14 0.8,5.18 z"
           style="fill:#000000;stroke-width:0" /><path
           id="path6671"
           d="m 496.99,410.12 0,0.71 -0.02,0.68 -0.03,0.66 -0.04,0.64 -0.06,0.62 -0.08,0.59 -0.09,0.58 -0.11,0.56 -0.12,0.55 -0.15,0.53 -0.17,0.51 -0.19,0.5 -0.21,0.49 -0.24,0.48 -0.26,0.47 -0.14,0.24 -0.15,0.23 c -1.07,1.6 -3.24,2.99 -6.03,2.99 v -0.97 c 1.89,0 3.7,-1.15 4.33,-3.18 0.56,-1.88 0.59,-4.39 0.59,-7.42 0,-2.58 0,-5.17 -0.45,-7.36 -0.7,-3.17 -3.07,-3.94 -4.47,-3.94 h 0 c -1.6,0 -3.73,0.94 -4.43,3.8 -0.49,2.06 -0.49,4.92 -0.49,7.5 0,2.54 0,5.19 0.53,7.11 0.73,2.76 2.96,3.49 4.39,3.49 v 0.97 c -8.09,0 -8.09,-9.52 -8.09,-12.03 0,-2.51 0,-11.82 8.09,-11.82 8.09,0 8.09,9.31 8.09,11.82 z"
           style="fill:#000000;stroke-width:0" /><path
           id="path6673"
           d="m 544.83,417.46 0.16,0 0.16,0 0.15,0 0.08,0.01 0.08,0 0.07,0.01 0.08,0.01 0.07,0.01 0.07,0.01 0.07,0.01 0.07,0.02 0.06,0.02 0.07,0.02 0.06,0.03 0.05,0.02 0.06,0.04 0.05,0.03 0.05,0.04 0.05,0.04 0.04,0.05 0.04,0.05 0.01,0.02 0.02,0.03 0.02,0.03 0.01,0.03 0.02,0.03 0.01,0.04 0.01,0.03 0.01,0.03 0.01,0.04 0.01,0.04 0,0.04 0.01,0.04 0,0.04 0.01,0.04 0,0.05 0,0.04 c 0,1 -0.9,1 -1.74,1 h -26.95 c -0.85,0 -1.75,0 -1.75,-1 0,-0.99 0.9,-0.99 1.75,-0.99 z"
           style="fill:#000000;stroke-width:0" /><path
           id="path6675"
           d="m 566.38,408.94 -0.01,-0.07 -0.02,-0.08 -0.01,-0.07 -0.02,-0.08 -0.03,-0.16 -0.04,-0.16 -0.04,-0.16 -0.03,-0.16 -0.04,-0.16 -0.04,-0.16 -0.01,-0.08 -0.02,-0.07 -0.02,-0.07 -0.01,-0.07 -0.02,-0.07 -0.01,-0.07 -0.01,-0.06 -0.02,-0.06 -0.01,-0.05 -0.01,-0.06 -0.01,-0.05 0,-0.04 -0.01,-0.04 0,-0.04 -0.01,-0.03 0,-0.02 c 0,-0.9 0.7,-1.35 1.45,-1.35 0.6,0 1.5,0.4 1.84,1.4 0.05,0.1 0.65,2.44 0.95,3.68 l 1.1,4.49 c 0.29,1.09 0.59,2.19 0.84,3.34 0.2,0.84 0.6,2.28 0.65,2.48 0.75,1.55 3.39,6.08 8.12,6.08 2.24,0 2.69,-1.84 2.69,-3.49 0,-3.08 -2.44,-9.46 -3.24,-11.6 -0.45,-1.15 -0.5,-1.74 -0.5,-2.29 0,-2.34 1.75,-4.09 4.09,-4.09 4.68,0 6.52,7.28 6.52,7.67 0,0.5 -0.44,0.5 -0.6,0.5 -0.49,0 -0.49,-0.15 -0.74,-0.89 -1,-3.39 -2.64,-6.18 -5.08,-6.18 -0.85,0 -1.2,0.5 -1.2,1.64 0,1.25 0.45,2.44 0.9,3.54 0.94,2.64 3.04,8.12 3.04,10.96 0,3.33 -2.15,5.33 -5.73,5.33 -4.48,0 -6.93,-3.19 -7.77,-4.34 -0.25,2.79 -2.29,4.34 -4.58,4.34 -2.3,0 -3.24,-1.95 -3.74,-2.84 -0.8,-1.7 -1.49,-4.63 -1.49,-4.83 0,-0.5 0.49,-0.5 0.59,-0.5 0.5,0 0.55,0.05 0.85,1.14 0.84,3.54 1.84,5.93 3.64,5.93 0.99,0 1.54,-0.65 1.54,-2.29 0,-1.04 -0.15,-1.59 -0.8,-4.18 z"
           style="fill:#000000;stroke-width:0" /><path
           id="path6677"
           d="m 626.12,441.47 0.03,0.04 0.03,0.04 0.02,0.04 0.02,0.03 0.03,0.04 0.02,0.03 0.02,0.03 0.02,0.03 0.02,0.03 0.02,0.03 0.01,0.03 0.02,0.03 0.01,0.03 0.02,0.02 0.01,0.03 0.01,0.02 0.01,0.03 0.01,0.02 0.01,0.02 0.01,0.03 0.01,0.02 0.01,0.02 0,0.03 0.01,0.02 0,0.02 0.01,0.03 0,0.02 0.01,0.03 0,0.02 0,0.03 0,0.03 0,0.02 c 0,0.55 -0.45,1 -1,1 -0.49,0 -0.74,-0.35 -1.04,-0.7 -2.49,-3.39 -5.83,-4.73 -9.46,-4.73 -3.49,0 -6.58,1.25 -9.32,3.84 -0.95,0.84 -1.99,1.59 -3.59,1.59 l 0.05,-1.09 c 2.64,0 5.18,-3.69 5.18,-8.92 0,-5.38 -2.59,-8.97 -5.18,-8.97 h 0 c -1,0 -4.28,0.65 -4.28,8.92 0,8.32 3.24,8.97 4.28,8.97 l -0.05,1.09 c -3.78,0 -7.32,-4.18 -7.32,-10.01 0,-6.03 3.59,-10.06 7.32,-10.06 3.64,0 6.48,4.43 6.48,10.01 0,0.7 0,3.04 -1.05,5.63 3.24,-1.85 5.73,-2.09 7.52,-2.09 3.79,0 6.33,1.54 6.63,1.74 l 0.05,-0.05 -22.37,-33.33 c -0.44,-0.65 -0.44,-0.9 -0.44,-0.99 0,-0.55 0.49,-1 0.99,-1 0.5,0 0.6,0.2 1,0.75 z"
           style="fill:#000000;stroke-width:0" /><path
           id="path6679"
           d="m 630.66,413.22 -0.01,0.54 -0.03,0.52 -0.04,0.52 -0.06,0.5 -0.07,0.5 -0.09,0.48 -0.1,0.47 -0.12,0.46 -0.13,0.45 -0.14,0.44 -0.16,0.42 -0.17,0.4 -0.18,0.4 -0.2,0.38 -0.2,0.36 -0.22,0.34 -0.22,0.33 -0.24,0.31 -0.24,0.3 -0.26,0.27 -0.26,0.26 -0.27,0.24 -0.28,0.21 -0.29,0.2 -0.29,0.17 -0.3,0.16 -0.31,0.13 -0.31,0.11 -0.31,0.08 -0.32,0.06 -0.33,0.04 -0.33,0.02 c -3.78,0 -7.33,-4.19 -7.33,-10.02 0,-6.02 3.59,-10.06 7.33,-10.06 l 0.05,1.09 c -1,0 -4.28,0.65 -4.28,8.92 0,8.32 3.23,8.97 4.28,8.97 2.64,0 5.18,-3.69 5.18,-8.92 0,-5.38 -2.59,-8.97 -5.18,-8.97 h 0 l -0.05,-1.09 c 3.64,0 6.48,4.43 6.48,10.01 z"
           style="fill:#000000;stroke-width:0" /></g>    </g>
    <path
       style="fill:none;stroke:#000000;stroke-width:0.49999997;stroke-linecap:butt;stroke-linejoin:miter;stroke-miterlimit:4;stroke-opacity:1;stroke-dasharray:none"
       d="M 124.78577,27.362183 C 125,82.362182 125,82.362182 125,82.362182"
       id="path6766" />
    <text
       xml:space="preserve"
       style="font-size:12px;font-style:normal;font-variant:normal;font-weight:normal;font-stretch:normal;text-align:center;text-anchor:middle;fill:#000000;fill-opacity:1;stroke:none;font-family:TeXGyreAdventor;-inkscape-font-specification:TeXGyreAdventor"
       x="123.78906"
       y="92.362183"
       id="text6768"><tspan
         sodipodi:role="line"
         id="tspan6770"
         x="124.89844"
         y="92.362183"
         style="font-size:8px">Temps de </tspan><tspan
         sodipodi:role="line"
         x="123.78906"
         y="102.36218"
         style="font-size:8px"
         id="tspan6772">réponse à n%</tspan></text>
    <path
       style="fill:none;stroke:#000000;stroke-width:1px;stroke-linecap:butt;stroke-linejoin:miter;stroke-opacity:1;marker-end:url(#Arrow1Mend)"
       d="m 205.53297,82.362186 0,-75.0000031"
       id="path6776"
       sodipodi:nodetypes="cc" />
    <path
       sodipodi:nodetypes="cc"
       id="path6778"
       d="m 205.53297,82.362183 120,0"
       style="fill:none;stroke:#000000;stroke-width:1px;stroke-linecap:butt;stroke-linejoin:miter;stroke-opacity:1;marker-end:url(#Arrow1Mend)" />
    <path
       style="fill:none;stroke:#ff0000;stroke-width:1px;stroke-linecap:butt;stroke-linejoin:miter;stroke-opacity:1"
       d="m 205.53297,82.362183 0,-50 115,0"
       id="path6780"
       sodipodi:nodetypes="ccc" />
    <g
       id="g6782"
       transform="matrix(0.18886584,0,0,0.18886584,151.28684,-7.4491021)">
      <g
         word-spacing="normal"
         letter-spacing="normal"
         font-size-adjust="none"
         font-stretch="normal"
         font-weight="normal"
         font-variant="normal"
         font-style="normal"
         fill-rule="even-odd"
         stroke-miterlimit="10.433"
         xml:space="preserve"
         transform="matrix(1.0629921,0,0,-1.0629921,-186.02362,789.27165)"
         id="g6784"
         style="font-style:normal;font-variant:normal;font-weight:normal;font-stretch:normal;letter-spacing:normal;word-spacing:normal;text-anchor:start;fill:none;stroke:#000000;stroke-width:5.29476357;stroke-linecap:butt;stroke-linejoin:miter;stroke-miterlimit:10.43299961;stroke-opacity:1;stroke-dasharray:none;stroke-dashoffset:0"><path
           id="path6786"
           d="m 465.32,417.51 0.14,0 0.15,0 0.17,0 0.18,0 0.18,0.01 0.2,0 0.21,0.01 0.21,0.01 0.23,0.01 0.23,0.01 0.24,0.02 0.24,0.01 0.25,0.02 0.26,0.03 0.52,0.05 0.54,0.06 0.54,0.08 0.55,0.09 0.54,0.11 0.53,0.13 0.27,0.07 0.25,0.07 0.26,0.08 0.25,0.09 0.24,0.09 0.24,0.09 c 3.48,1.5 3.73,4.44 3.73,5.14 0,2.19 -1.89,4.23 -5.33,4.23 v -1.1 c 2.34,0 3.69,-1.44 3.69,-3.13 0,-5.19 -7.97,-5.19 -10.01,-5.19 h -2.05 c 1.95,7.58 7.08,8.32 8.37,8.32 v 1.1 c -5.53,0 -13.05,-4.84 -13.05,-13.55 0,-5.08 2.94,-9.02 7.82,-9.02 7.12,0 11.31,5.28 11.31,5.88 0,0.3 -0.3,0.65 -0.6,0.65 -0.25,0 -0.35,-0.1 -0.64,-0.5 -3.94,-4.93 -9.37,-4.93 -9.97,-4.93 -3.88,0 -4.33,4.18 -4.33,5.78 0,0.6 0.05,2.14 0.8,5.18 z"
           style="fill:#000000;stroke-width:0" /><path
           id="path6788"
           d="m 495.49,394.04 0,0.03 0,0.03 -0.01,0.01 0,0.02 0,0.01 -0.01,0.02 0,0.02 -0.01,0.01 -0.01,0.02 -0.01,0.02 -0.01,0.03 -0.01,0.02 -0.02,0.02 -0.02,0.03 -0.02,0.03 -0.02,0.03 -0.03,0.03 -0.03,0.04 -0.01,0.02 -0.02,0.02 -0.02,0.02 -0.02,0.02 -0.02,0.02 -0.02,0.03 -0.02,0.02 -0.02,0.02 -0.02,0.03 -0.03,0.02 -0.02,0.03 -0.03,0.03 -0.02,0.03 -0.03,0.03 -0.03,0.03 -0.03,0.03 -0.03,0.03 -0.03,0.03 -0.04,0.04 -0.03,0.03 -0.04,0.04 -0.03,0.03 -0.04,0.04 -0.04,0.04 c -6.23,6.28 -7.82,15.69 -7.82,23.31 0,8.67 1.89,17.34 8.02,23.57 0.65,0.59 0.65,0.69 0.65,0.84 0,0.35 -0.2,0.5 -0.5,0.5 -0.5,0 -4.98,-3.39 -7.92,-9.72 -2.54,-5.47 -3.14,-11 -3.14,-15.19 0,-3.88 0.55,-9.91 3.29,-15.54 2.99,-6.12 7.27,-9.36 7.77,-9.36 0.3,0 0.5,0.15 0.5,0.49 z"
           style="fill:#000000;stroke-width:0" /><path
           id="path6790"
           d="m 508.26,425.93 h 4.69 c 0.99,0 1.49,0 1.49,0.99 0,0.55 -0.5,0.55 -1.4,0.55 h -4.38 c 1.79,7.07 2.04,8.07 2.04,8.37 0,0.84 -0.59,1.34 -1.44,1.34 -0.15,0 -1.55,-0.05 -1.99,-1.79 l -1.95,-7.92 h -4.68 c -1,0 -1.5,0 -1.5,-0.95 0,-0.59 0.4,-0.59 1.4,-0.59 h 4.39 c -3.59,-14.15 -3.79,-15 -3.79,-15.89 0,-2.7 1.89,-4.59 4.58,-4.59 5.08,0 7.92,7.28 7.92,7.67 0,0.5 -0.4,0.5 -0.6,0.5 -0.45,0 -0.49,-0.15 -0.74,-0.69 -2.14,-5.19 -4.78,-6.38 -6.48,-6.38 -1.05,0 -1.54,0.65 -1.54,2.29 0,1.2 0.1,1.54 0.29,2.39 z"
           style="fill:#000000;stroke-width:0" /><path
           id="path6792"
           d="m 530.4,418.45 -0.01,0.37 0,0.39 -0.01,0.39 -0.01,0.41 -0.04,0.84 -0.06,0.88 -0.09,0.92 -0.1,0.94 -0.14,0.98 -0.16,1 -0.2,1.02 -0.23,1.04 -0.27,1.05 -0.3,1.06 -0.35,1.06 -0.39,1.07 -0.22,0.53 -0.22,0.54 -0.24,0.53 -0.25,0.53 c -2.99,6.12 -7.27,9.36 -7.77,9.36 -0.3,0 -0.5,-0.2 -0.5,-0.5 0,-0.15 0,-0.25 0.94,-1.15 4.89,-4.92 7.73,-12.85 7.73,-23.26 0,-8.52 -1.85,-17.28 -8.02,-23.56 -0.65,-0.6 -0.65,-0.69 -0.65,-0.85 0,-0.29 0.2,-0.49 0.5,-0.49 0.5,0 4.98,3.38 7.92,9.71 2.54,5.48 3.14,11.01 3.14,15.19 z"
           style="fill:#000000;stroke-width:0" /></g>    </g>
    <g
       id="g6794"
       transform="matrix(0.29648306,0,0,0.29648306,198.01359,-25.534449)">
      <g
         id="g6796"
         transform="matrix(1.0629921,0,0,-1.0629921,-186.02362,789.27165)"
         xml:space="preserve"
         stroke-miterlimit="10.433"
         fill-rule="even-odd"
         font-style="normal"
         font-variant="normal"
         font-weight="normal"
         font-stretch="normal"
         font-size-adjust="none"
         letter-spacing="normal"
         word-spacing="normal"
         style="font-style:normal;font-variant:normal;font-weight:normal;font-stretch:normal;letter-spacing:normal;word-spacing:normal;text-anchor:start;fill:none;stroke:#000000;stroke-width:3.37287402;stroke-linecap:butt;stroke-linejoin:miter;stroke-miterlimit:10.43299961;stroke-opacity:1;stroke-dasharray:none;stroke-dashoffset:0"><path
           d="m 547.88901,431.874 h 4.69 c 0.99,0 1.49,0 1.49,0.99 0,0.55 -0.5,0.55 -1.4,0.55 h -4.38 c 1.79,7.07 2.04,8.07 2.04,8.37 0,0.84 -0.59,1.34 -1.44,1.34 -0.15,0 -1.55,-0.05 -1.99,-1.79 l -1.95,-7.92 h -4.68 c -1,0 -1.5,0 -1.5,-0.95 0,-0.59 0.4,-0.59 1.4,-0.59 h 4.39 c -3.59,-14.15 -3.79,-15 -3.79,-15.89 0,-2.7 1.89,-4.59 4.58,-4.59 5.08,0 7.92,7.28 7.92,7.67 0,0.5 -0.4,0.5 -0.6,0.5 -0.45,0 -0.49,-0.15 -0.74,-0.69 -2.14,-5.19 -4.78,-6.38 -6.48,-6.38 -1.05,0 -1.54,0.65 -1.54,2.29 0,1.2 0.1,1.54 0.29,2.39 z"
           id="path6798"
           style="fill:#000000;stroke-width:0" /></g>    </g>
    <g
       id="g6800"
       transform="matrix(0.25972964,0,0,0.25972964,112.95429,-10.415293)">
      <g
         word-spacing="normal"
         letter-spacing="normal"
         font-size-adjust="none"
         font-stretch="normal"
         font-weight="normal"
         font-variant="normal"
         font-style="normal"
         fill-rule="even-odd"
         stroke-miterlimit="10.433"
         xml:space="preserve"
         transform="matrix(1.0629921,0,0,-1.0629921,-186.02362,789.27165)"
         id="g6802"
         style="font-style:normal;font-variant:normal;font-weight:normal;font-stretch:normal;letter-spacing:normal;word-spacing:normal;text-anchor:start;fill:none;stroke:#000000;stroke-width:3.85015726;stroke-linecap:butt;stroke-linejoin:miter;stroke-miterlimit:10.43299961;stroke-opacity:1;stroke-dasharray:none;stroke-dashoffset:0"><path
           id="path6804"
           d="m 492.86,427.72 -0.01,0.74 -0.05,0.73 -0.07,0.71 -0.11,0.7 -0.13,0.67 -0.16,0.66 -0.19,0.64 -0.22,0.63 -0.24,0.6 -0.27,0.58 -0.29,0.56 -0.32,0.54 -0.34,0.52 -0.37,0.5 -0.38,0.47 -0.42,0.46 -0.43,0.42 -0.45,0.41 -0.48,0.38 -0.49,0.35 -0.51,0.33 -0.53,0.3 -0.56,0.28 -0.56,0.25 -0.59,0.22 -0.6,0.2 -0.62,0.16 -0.63,0.14 -0.65,0.11 -0.66,0.07 -0.68,0.05 -0.69,0.02 -0.3,-1.25 c 4.09,0 8.57,-2.79 8.57,-10.21 0,-3.59 -1.35,-11.36 -6.28,-17.48 -2.39,-3.04 -6.47,-5.98 -10.66,-5.98 h 0 c -4.93,0 -8.42,4.03 -8.42,10.61 0,2.19 0.7,9.46 4.54,15.29 3.43,5.18 8.32,7.77 12.25,7.77 l 0.3,1.25 c -10.76,0 -21.72,-11.31 -21.72,-22.92 0,-8.27 5.58,-13.3 12.75,-13.3 10.56,0 21.67,10.91 21.67,22.82 z"
           style="fill:#000000;stroke-width:0" /></g>    </g>
    <path
       style="fill:none;stroke:#0000ff;stroke-width:1px;stroke-linecap:butt;stroke-linejoin:miter;stroke-opacity:1"
       d="M 205.53297,82.362182 C 220,82.362183 215,22.362183 225,22.362183 c 10,0 0,10 95.53297,10"
       id="path6806"
       sodipodi:nodetypes="csc" />
    <g
       transform="matrix(0.22663901,0,0,0.22663901,152.60972,-64.217624)"
       id="g6808">
      <g
         style="font-style:normal;font-variant:normal;font-weight:normal;font-stretch:normal;letter-spacing:normal;word-spacing:normal;text-anchor:start;fill:none;stroke:#000000;stroke-width:4.41230297;stroke-linecap:butt;stroke-linejoin:miter;stroke-miterlimit:10.43299961;stroke-opacity:1;stroke-dasharray:none;stroke-dashoffset:0"
         word-spacing="normal"
         letter-spacing="normal"
         font-size-adjust="none"
         font-stretch="normal"
         font-weight="normal"
         font-variant="normal"
         font-style="normal"
         fill-rule="even-odd"
         stroke-miterlimit="10.433"
         xml:space="preserve"
         transform="matrix(1.0629921,0,0,-1.0629921,-186.02362,789.27165)"
         id="g6810"><path
           style="fill:#000000;stroke-width:0"
           id="path6812"
           d="m 475.48,424.63 -0.13,-0.01 -0.13,-0.01 -0.12,-0.02 -0.13,-0.03 -0.12,-0.03 -0.11,-0.03 -0.11,-0.04 -0.12,-0.05 -0.1,-0.05 -0.11,-0.05 -0.1,-0.06 -0.09,-0.06 -0.1,-0.07 -0.08,-0.07 -0.09,-0.07 -0.08,-0.08 -0.08,-0.08 -0.07,-0.08 -0.07,-0.09 -0.07,-0.08 -0.06,-0.09 -0.05,-0.1 -0.05,-0.09 -0.05,-0.1 -0.04,-0.09 -0.03,-0.1 -0.03,-0.1 -0.03,-0.1 -0.02,-0.11 -0.01,-0.1 -0.01,-0.1 0,-0.1 c 0,-0.7 0.45,-1.44 1.54,-1.44 1.1,0 2.29,0.84 2.29,2.78 0,2.25 -2.14,4.29 -5.93,4.29 -6.57,0 -8.42,-5.08 -8.42,-7.27 0,-3.89 3.69,-4.64 5.14,-4.94 2.59,-0.49 5.18,-1.04 5.18,-3.78 0,-1.3 -1.15,-5.48 -7.13,-5.48 -0.69,0 -4.53,0 -5.67,2.64 1.89,-0.25 3.13,1.24 3.13,2.64 0,1.14 -0.79,1.74 -1.84,1.74 -1.29,0 -2.79,-1.04 -2.79,-3.28 0,-2.84 2.84,-4.84 7.12,-4.84 8.08,0 10.02,6.03 10.02,8.27 0,1.8 -0.95,3.04 -1.55,3.64 -1.34,1.39 -2.79,1.64 -4.98,2.09 -1.79,0.4 -3.79,0.75 -3.79,2.99 0,1.44 1.2,4.48 5.58,4.48 1.25,0 3.74,-0.35 4.49,-2.29 z" /><path
           style="fill:#000000;stroke-width:0"
           id="path6814"
           d="m 495.49,394.04 0,0.03 0,0.03 -0.01,0.01 0,0.02 0,0.01 -0.01,0.02 0,0.02 -0.01,0.01 -0.01,0.02 -0.01,0.02 -0.01,0.03 -0.01,0.02 -0.02,0.02 -0.02,0.03 -0.02,0.03 -0.02,0.03 -0.03,0.03 -0.03,0.04 -0.01,0.02 -0.02,0.02 -0.02,0.02 -0.02,0.02 -0.02,0.02 -0.02,0.03 -0.02,0.02 -0.02,0.02 -0.02,0.03 -0.03,0.02 -0.02,0.03 -0.03,0.03 -0.02,0.03 -0.03,0.03 -0.03,0.03 -0.03,0.03 -0.03,0.03 -0.03,0.03 -0.04,0.04 -0.03,0.03 -0.04,0.04 -0.03,0.03 -0.04,0.04 -0.04,0.04 c -6.23,6.28 -7.82,15.69 -7.82,23.31 0,8.67 1.89,17.34 8.02,23.57 0.65,0.59 0.65,0.69 0.65,0.84 0,0.35 -0.2,0.5 -0.5,0.5 -0.5,0 -4.98,-3.39 -7.92,-9.72 -2.54,-5.47 -3.14,-11 -3.14,-15.19 0,-3.88 0.55,-9.91 3.29,-15.54 2.99,-6.12 7.27,-9.36 7.77,-9.36 0.3,0 0.5,0.15 0.5,0.49 z" /><path
           style="fill:#000000;stroke-width:0"
           id="path6816"
           d="m 508.26,425.93 h 4.69 c 0.99,0 1.49,0 1.49,0.99 0,0.55 -0.5,0.55 -1.4,0.55 h -4.38 c 1.79,7.07 2.04,8.07 2.04,8.37 0,0.84 -0.59,1.34 -1.44,1.34 -0.15,0 -1.55,-0.05 -1.99,-1.79 l -1.95,-7.92 h -4.68 c -1,0 -1.5,0 -1.5,-0.95 0,-0.59 0.4,-0.59 1.4,-0.59 h 4.39 c -3.59,-14.15 -3.79,-15 -3.79,-15.89 0,-2.7 1.89,-4.59 4.58,-4.59 5.08,0 7.92,7.28 7.92,7.67 0,0.5 -0.4,0.5 -0.6,0.5 -0.45,0 -0.49,-0.15 -0.74,-0.69 -2.14,-5.19 -4.78,-6.38 -6.48,-6.38 -1.05,0 -1.54,0.65 -1.54,2.29 0,1.2 0.1,1.54 0.29,2.39 z" /><path
           style="fill:#000000;stroke-width:0"
           id="path6818"
           d="m 530.4,418.45 -0.01,0.37 0,0.39 -0.01,0.39 -0.01,0.41 -0.04,0.84 -0.06,0.88 -0.09,0.92 -0.1,0.94 -0.14,0.98 -0.16,1 -0.2,1.02 -0.23,1.04 -0.27,1.05 -0.3,1.06 -0.35,1.06 -0.39,1.07 -0.22,0.53 -0.22,0.54 -0.24,0.53 -0.25,0.53 c -2.99,6.12 -7.27,9.36 -7.77,9.36 -0.3,0 -0.5,-0.2 -0.5,-0.5 0,-0.15 0,-0.25 0.94,-1.15 4.89,-4.92 7.73,-12.85 7.73,-23.26 0,-8.52 -1.85,-17.28 -8.02,-23.56 -0.65,-0.6 -0.65,-0.69 -0.65,-0.85 0,-0.29 0.2,-0.49 0.5,-0.49 0.5,0 4.98,3.38 7.92,9.71 2.54,5.48 3.14,11.01 3.14,15.19 z" /></g>    </g>
    <text
       xml:space="preserve"
       style="font-size:12px;font-style:normal;font-variant:normal;font-weight:normal;font-stretch:normal;text-align:center;text-anchor:middle;fill:#000000;fill-opacity:1;stroke:none;font-family:TeXGyreAdventor;-inkscape-font-specification:TeXGyreAdventor"
       x="269.87109"
       y="122.36218"
       id="text6820"><tspan
         sodipodi:role="line"
         x="269.87109"
         y="122.36218"
         id="tspan6876">Système rapide</tspan></text>
    <path
       style="fill:none;stroke:#000000;stroke-width:0.5;stroke-linecap:butt;stroke-linejoin:miter;stroke-miterlimit:4;stroke-opacity:1;stroke-dasharray:none"
       d="m 205.53297,37.576414 c 115,-0.214231 115,-0.214231 115,-0.214231"
       id="path6824" />
    <path
       id="path6826"
       d="m 205.53297,27.576414 c 115,-0.214231 115,-0.214231 115,-0.214231"
       style="fill:none;stroke:#000000;stroke-width:0.5;stroke-linecap:butt;stroke-linejoin:miter;stroke-miterlimit:4;stroke-opacity:1;stroke-dasharray:none" />
    <g
       transform="matrix(0.18992075,0,0,0.18992075,131.92194,-33.248185)"
       id="g6828">
      <g
         style="font-style:normal;font-variant:normal;font-weight:normal;font-stretch:normal;letter-spacing:normal;word-spacing:normal;text-anchor:start;fill:none;stroke:#000000;stroke-width:5.26535416;stroke-linecap:butt;stroke-linejoin:miter;stroke-miterlimit:10.43299961;stroke-opacity:1;stroke-dasharray:none;stroke-dashoffset:0"
         id="g6830"
         transform="matrix(1.0629921,0,0,-1.0629921,-186.02362,789.27165)"
         xml:space="preserve"
         stroke-miterlimit="10.433"
         fill-rule="even-odd"
         font-style="normal"
         font-variant="normal"
         font-weight="normal"
         font-stretch="normal"
         font-size-adjust="none"
         letter-spacing="normal"
         word-spacing="normal"><path
           style="fill:#000000;stroke-width:0"
           d="m 465.32,417.51 0.14,0 0.15,0 0.17,0 0.18,0 0.18,0.01 0.2,0 0.21,0.01 0.21,0.01 0.23,0.01 0.23,0.01 0.24,0.02 0.24,0.01 0.25,0.02 0.26,0.03 0.52,0.05 0.54,0.06 0.54,0.08 0.55,0.09 0.54,0.11 0.53,0.13 0.27,0.07 0.25,0.07 0.26,0.08 0.25,0.09 0.24,0.09 0.24,0.09 c 3.48,1.5 3.73,4.44 3.73,5.14 0,2.19 -1.89,4.23 -5.33,4.23 v -1.1 c 2.34,0 3.69,-1.44 3.69,-3.13 0,-5.19 -7.97,-5.19 -10.01,-5.19 h -2.05 c 1.95,7.58 7.08,8.32 8.37,8.32 v 1.1 c -5.53,0 -13.05,-4.84 -13.05,-13.55 0,-5.08 2.94,-9.02 7.82,-9.02 7.12,0 11.31,5.28 11.31,5.88 0,0.3 -0.3,0.65 -0.6,0.65 -0.25,0 -0.35,-0.1 -0.64,-0.5 -3.94,-4.93 -9.37,-4.93 -9.97,-4.93 -3.88,0 -4.33,4.18 -4.33,5.78 0,0.6 0.05,2.14 0.8,5.18 z"
           id="path6832" /><path
           style="fill:#000000;stroke-width:0"
           d="m 496.99,410.12 0,0.71 -0.02,0.68 -0.03,0.66 -0.04,0.64 -0.06,0.62 -0.08,0.59 -0.09,0.58 -0.11,0.56 -0.12,0.55 -0.15,0.53 -0.17,0.51 -0.19,0.5 -0.21,0.49 -0.24,0.48 -0.26,0.47 -0.14,0.24 -0.15,0.23 c -1.07,1.6 -3.24,2.99 -6.03,2.99 v -0.97 c 1.89,0 3.7,-1.15 4.33,-3.18 0.56,-1.88 0.59,-4.39 0.59,-7.42 0,-2.58 0,-5.17 -0.45,-7.36 -0.7,-3.17 -3.07,-3.94 -4.47,-3.94 h 0 c -1.6,0 -3.73,0.94 -4.43,3.8 -0.49,2.06 -0.49,4.92 -0.49,7.5 0,2.54 0,5.19 0.53,7.11 0.73,2.76 2.96,3.49 4.39,3.49 v 0.97 c -8.09,0 -8.09,-9.52 -8.09,-12.03 0,-2.51 0,-11.82 8.09,-11.82 8.09,0 8.09,9.31 8.09,11.82 z"
           id="path6834" /></g>    </g>
    <g
       transform="matrix(0.12526508,0,0,0.12526508,248.12117,-19.997339)"
       id="g6836">
      <g
         style="font-style:normal;font-variant:normal;font-weight:normal;font-stretch:normal;letter-spacing:normal;word-spacing:normal;text-anchor:start;fill:none;stroke:#000000;stroke-width:7.98307085;stroke-linecap:butt;stroke-linejoin:miter;stroke-miterlimit:10.43299961;stroke-opacity:1;stroke-dasharray:none;stroke-dashoffset:0"
         word-spacing="normal"
         letter-spacing="normal"
         font-size-adjust="none"
         font-stretch="normal"
         font-weight="normal"
         font-variant="normal"
         font-style="normal"
         fill-rule="even-odd"
         stroke-miterlimit="10.433"
         xml:space="preserve"
         transform="matrix(1.0629921,0,0,-1.0629921,-186.02362,789.27165)"
         id="g6838"><path
           style="fill:#000000;stroke-width:0"
           id="path6840"
           d="m 465.32,417.51 0.14,0 0.15,0 0.17,0 0.18,0 0.18,0.01 0.2,0 0.21,0.01 0.21,0.01 0.23,0.01 0.23,0.01 0.24,0.02 0.24,0.01 0.25,0.02 0.26,0.03 0.52,0.05 0.54,0.06 0.54,0.08 0.55,0.09 0.54,0.11 0.53,0.13 0.27,0.07 0.25,0.07 0.26,0.08 0.25,0.09 0.24,0.09 0.24,0.09 c 3.48,1.5 3.73,4.44 3.73,5.14 0,2.19 -1.89,4.23 -5.33,4.23 v -1.1 c 2.34,0 3.69,-1.44 3.69,-3.13 0,-5.19 -7.97,-5.19 -10.01,-5.19 h -2.05 c 1.95,7.58 7.08,8.32 8.37,8.32 v 1.1 c -5.53,0 -13.05,-4.84 -13.05,-13.55 0,-5.08 2.94,-9.02 7.82,-9.02 7.12,0 11.31,5.28 11.31,5.88 0,0.3 -0.3,0.65 -0.6,0.65 -0.25,0 -0.35,-0.1 -0.64,-0.5 -3.94,-4.93 -9.37,-4.93 -9.97,-4.93 -3.88,0 -4.33,4.18 -4.33,5.78 0,0.6 0.05,2.14 0.8,5.18 z" /><path
           style="fill:#000000;stroke-width:0"
           id="path6842"
           d="m 496.99,410.12 0,0.71 -0.02,0.68 -0.03,0.66 -0.04,0.64 -0.06,0.62 -0.08,0.59 -0.09,0.58 -0.11,0.56 -0.12,0.55 -0.15,0.53 -0.17,0.51 -0.19,0.5 -0.21,0.49 -0.24,0.48 -0.26,0.47 -0.14,0.24 -0.15,0.23 c -1.07,1.6 -3.24,2.99 -6.03,2.99 v -0.97 c 1.89,0 3.7,-1.15 4.33,-3.18 0.56,-1.88 0.59,-4.39 0.59,-7.42 0,-2.58 0,-5.17 -0.45,-7.36 -0.7,-3.17 -3.07,-3.94 -4.47,-3.94 h 0 c -1.6,0 -3.73,0.94 -4.43,3.8 -0.49,2.06 -0.49,4.92 -0.49,7.5 0,2.54 0,5.19 0.53,7.11 0.73,2.76 2.96,3.49 4.39,3.49 v 0.97 c -8.09,0 -8.09,-9.52 -8.09,-12.03 0,-2.51 0,-11.82 8.09,-11.82 8.09,0 8.09,9.31 8.09,11.82 z" /><path
           style="fill:#000000;stroke-width:0"
           id="path6844"
           d="m 532.38,417.46 h 13.89 c 0.7,0 1.64,0 1.64,0.99 0,1 -0.94,1 -1.64,1 h -13.89 v 13.95 c 0,0.69 0,1.64 -1,1.64 -1,0 -1,-0.95 -1,-1.64 v -13.95 h -13.95 c -0.7,0 -1.64,0 -1.64,-1 0,-0.99 0.94,-0.99 1.64,-0.99 h 13.95 v -13.95 c 0,-0.7 0,-1.64 1,-1.64 1,0 1,0.94 1,1.64 z" /><path
           style="fill:#000000;stroke-width:0"
           id="path6846"
           d="m 566.38,408.94 -0.01,-0.07 -0.02,-0.08 -0.01,-0.07 -0.02,-0.08 -0.03,-0.16 -0.04,-0.16 -0.04,-0.16 -0.03,-0.16 -0.04,-0.16 -0.04,-0.16 -0.01,-0.08 -0.02,-0.07 -0.02,-0.07 -0.01,-0.07 -0.02,-0.07 -0.01,-0.07 -0.01,-0.06 -0.02,-0.06 -0.01,-0.05 -0.01,-0.06 -0.01,-0.05 0,-0.04 -0.01,-0.04 0,-0.04 -0.01,-0.03 0,-0.02 c 0,-0.9 0.7,-1.35 1.45,-1.35 0.6,0 1.5,0.4 1.84,1.4 0.05,0.1 0.65,2.44 0.95,3.68 l 1.1,4.49 c 0.29,1.09 0.59,2.19 0.84,3.34 0.2,0.84 0.6,2.28 0.65,2.48 0.75,1.55 3.39,6.08 8.12,6.08 2.24,0 2.69,-1.84 2.69,-3.49 0,-3.08 -2.44,-9.46 -3.24,-11.6 -0.45,-1.15 -0.5,-1.74 -0.5,-2.29 0,-2.34 1.75,-4.09 4.09,-4.09 4.68,0 6.52,7.28 6.52,7.67 0,0.5 -0.44,0.5 -0.6,0.5 -0.49,0 -0.49,-0.15 -0.74,-0.89 -1,-3.39 -2.64,-6.18 -5.08,-6.18 -0.85,0 -1.2,0.5 -1.2,1.64 0,1.25 0.45,2.44 0.9,3.54 0.94,2.64 3.04,8.12 3.04,10.96 0,3.33 -2.15,5.33 -5.73,5.33 -4.48,0 -6.93,-3.19 -7.77,-4.34 -0.25,2.79 -2.29,4.34 -4.58,4.34 -2.3,0 -3.24,-1.95 -3.74,-2.84 -0.8,-1.7 -1.49,-4.63 -1.49,-4.83 0,-0.5 0.49,-0.5 0.59,-0.5 0.5,0 0.55,0.05 0.85,1.14 0.84,3.54 1.84,5.93 3.64,5.93 0.99,0 1.54,-0.65 1.54,-2.29 0,-1.04 -0.15,-1.59 -0.8,-4.18 z" /><path
           style="fill:#000000;stroke-width:0"
           id="path6848"
           d="m 626.12,441.47 0.03,0.04 0.03,0.04 0.02,0.04 0.02,0.03 0.03,0.04 0.02,0.03 0.02,0.03 0.02,0.03 0.02,0.03 0.02,0.03 0.01,0.03 0.02,0.03 0.01,0.03 0.02,0.02 0.01,0.03 0.01,0.02 0.01,0.03 0.01,0.02 0.01,0.02 0.01,0.03 0.01,0.02 0.01,0.02 0,0.03 0.01,0.02 0,0.02 0.01,0.03 0,0.02 0.01,0.03 0,0.02 0,0.03 0,0.03 0,0.02 c 0,0.55 -0.45,1 -1,1 -0.49,0 -0.74,-0.35 -1.04,-0.7 -2.49,-3.39 -5.83,-4.73 -9.46,-4.73 -3.49,0 -6.58,1.25 -9.32,3.84 -0.95,0.84 -1.99,1.59 -3.59,1.59 l 0.05,-1.09 c 2.64,0 5.18,-3.69 5.18,-8.92 0,-5.38 -2.59,-8.97 -5.18,-8.97 h 0 c -1,0 -4.28,0.65 -4.28,8.92 0,8.32 3.24,8.97 4.28,8.97 l -0.05,1.09 c -3.78,0 -7.32,-4.18 -7.32,-10.01 0,-6.03 3.59,-10.06 7.32,-10.06 3.64,0 6.48,4.43 6.48,10.01 0,0.7 0,3.04 -1.05,5.63 3.24,-1.85 5.73,-2.09 7.52,-2.09 3.79,0 6.33,1.54 6.63,1.74 l 0.05,-0.05 -22.37,-33.33 c -0.44,-0.65 -0.44,-0.9 -0.44,-0.99 0,-0.55 0.49,-1 0.99,-1 0.5,0 0.6,0.2 1,0.75 z" /><path
           style="fill:#000000;stroke-width:0"
           id="path6850"
           d="m 630.66,413.22 -0.01,0.54 -0.03,0.52 -0.04,0.52 -0.06,0.5 -0.07,0.5 -0.09,0.48 -0.1,0.47 -0.12,0.46 -0.13,0.45 -0.14,0.44 -0.16,0.42 -0.17,0.4 -0.18,0.4 -0.2,0.38 -0.2,0.36 -0.22,0.34 -0.22,0.33 -0.24,0.31 -0.24,0.3 -0.26,0.27 -0.26,0.26 -0.27,0.24 -0.28,0.21 -0.29,0.2 -0.29,0.17 -0.3,0.16 -0.31,0.13 -0.31,0.11 -0.31,0.08 -0.32,0.06 -0.33,0.04 -0.33,0.02 c -3.78,0 -7.33,-4.19 -7.33,-10.02 0,-6.02 3.59,-10.06 7.33,-10.06 l 0.05,1.09 c -1,0 -4.28,0.65 -4.28,8.92 0,8.32 3.23,8.97 4.28,8.97 2.64,0 5.18,-3.69 5.18,-8.92 0,-5.38 -2.59,-8.97 -5.18,-8.97 h 0 l -0.05,-1.09 c 3.64,0 6.48,4.43 6.48,10.01 z" /></g>    </g>
    <g
       transform="matrix(0.12526508,0,0,0.12526508,255.1012,-0.15046857)"
       id="g6852">
      <g
         style="font-style:normal;font-variant:normal;font-weight:normal;font-stretch:normal;letter-spacing:normal;word-spacing:normal;text-anchor:start;fill:none;stroke:#000000;stroke-width:7.98307085;stroke-linecap:butt;stroke-linejoin:miter;stroke-miterlimit:10.43299961;stroke-opacity:1;stroke-dasharray:none;stroke-dashoffset:0"
         id="g6854"
         transform="matrix(1.0629921,0,0,-1.0629921,-186.02362,789.27165)"
         xml:space="preserve"
         stroke-miterlimit="10.433"
         fill-rule="even-odd"
         font-style="normal"
         font-variant="normal"
         font-weight="normal"
         font-stretch="normal"
         font-size-adjust="none"
         letter-spacing="normal"
         word-spacing="normal"><path
           style="fill:#000000;stroke-width:0"
           d="m 465.32,417.51 0.14,0 0.15,0 0.17,0 0.18,0 0.18,0.01 0.2,0 0.21,0.01 0.21,0.01 0.23,0.01 0.23,0.01 0.24,0.02 0.24,0.01 0.25,0.02 0.26,0.03 0.52,0.05 0.54,0.06 0.54,0.08 0.55,0.09 0.54,0.11 0.53,0.13 0.27,0.07 0.25,0.07 0.26,0.08 0.25,0.09 0.24,0.09 0.24,0.09 c 3.48,1.5 3.73,4.44 3.73,5.14 0,2.19 -1.89,4.23 -5.33,4.23 v -1.1 c 2.34,0 3.69,-1.44 3.69,-3.13 0,-5.19 -7.97,-5.19 -10.01,-5.19 h -2.05 c 1.95,7.58 7.08,8.32 8.37,8.32 v 1.1 c -5.53,0 -13.05,-4.84 -13.05,-13.55 0,-5.08 2.94,-9.02 7.82,-9.02 7.12,0 11.31,5.28 11.31,5.88 0,0.3 -0.3,0.65 -0.6,0.65 -0.25,0 -0.35,-0.1 -0.64,-0.5 -3.94,-4.93 -9.37,-4.93 -9.97,-4.93 -3.88,0 -4.33,4.18 -4.33,5.78 0,0.6 0.05,2.14 0.8,5.18 z"
           id="path6856" /><path
           style="fill:#000000;stroke-width:0"
           d="m 496.99,410.12 0,0.71 -0.02,0.68 -0.03,0.66 -0.04,0.64 -0.06,0.62 -0.08,0.59 -0.09,0.58 -0.11,0.56 -0.12,0.55 -0.15,0.53 -0.17,0.51 -0.19,0.5 -0.21,0.49 -0.24,0.48 -0.26,0.47 -0.14,0.24 -0.15,0.23 c -1.07,1.6 -3.24,2.99 -6.03,2.99 v -0.97 c 1.89,0 3.7,-1.15 4.33,-3.18 0.56,-1.88 0.59,-4.39 0.59,-7.42 0,-2.58 0,-5.17 -0.45,-7.36 -0.7,-3.17 -3.07,-3.94 -4.47,-3.94 h 0 c -1.6,0 -3.73,0.94 -4.43,3.8 -0.49,2.06 -0.49,4.92 -0.49,7.5 0,2.54 0,5.19 0.53,7.11 0.73,2.76 2.96,3.49 4.39,3.49 v 0.97 c -8.09,0 -8.09,-9.52 -8.09,-12.03 0,-2.51 0,-11.82 8.09,-11.82 8.09,0 8.09,9.31 8.09,11.82 z"
           id="path6858" /><path
           style="fill:#000000;stroke-width:0"
           d="m 544.83,417.46 0.16,0 0.16,0 0.15,0 0.08,0.01 0.08,0 0.07,0.01 0.08,0.01 0.07,0.01 0.07,0.01 0.07,0.01 0.07,0.02 0.06,0.02 0.07,0.02 0.06,0.03 0.05,0.02 0.06,0.04 0.05,0.03 0.05,0.04 0.05,0.04 0.04,0.05 0.04,0.05 0.01,0.02 0.02,0.03 0.02,0.03 0.01,0.03 0.02,0.03 0.01,0.04 0.01,0.03 0.01,0.03 0.01,0.04 0.01,0.04 0,0.04 0.01,0.04 0,0.04 0.01,0.04 0,0.05 0,0.04 c 0,1 -0.9,1 -1.74,1 h -26.95 c -0.85,0 -1.75,0 -1.75,-1 0,-0.99 0.9,-0.99 1.75,-0.99 z"
           id="path6860" /><path
           style="fill:#000000;stroke-width:0"
           d="m 566.38,408.94 -0.01,-0.07 -0.02,-0.08 -0.01,-0.07 -0.02,-0.08 -0.03,-0.16 -0.04,-0.16 -0.04,-0.16 -0.03,-0.16 -0.04,-0.16 -0.04,-0.16 -0.01,-0.08 -0.02,-0.07 -0.02,-0.07 -0.01,-0.07 -0.02,-0.07 -0.01,-0.07 -0.01,-0.06 -0.02,-0.06 -0.01,-0.05 -0.01,-0.06 -0.01,-0.05 0,-0.04 -0.01,-0.04 0,-0.04 -0.01,-0.03 0,-0.02 c 0,-0.9 0.7,-1.35 1.45,-1.35 0.6,0 1.5,0.4 1.84,1.4 0.05,0.1 0.65,2.44 0.95,3.68 l 1.1,4.49 c 0.29,1.09 0.59,2.19 0.84,3.34 0.2,0.84 0.6,2.28 0.65,2.48 0.75,1.55 3.39,6.08 8.12,6.08 2.24,0 2.69,-1.84 2.69,-3.49 0,-3.08 -2.44,-9.46 -3.24,-11.6 -0.45,-1.15 -0.5,-1.74 -0.5,-2.29 0,-2.34 1.75,-4.09 4.09,-4.09 4.68,0 6.52,7.28 6.52,7.67 0,0.5 -0.44,0.5 -0.6,0.5 -0.49,0 -0.49,-0.15 -0.74,-0.89 -1,-3.39 -2.64,-6.18 -5.08,-6.18 -0.85,0 -1.2,0.5 -1.2,1.64 0,1.25 0.45,2.44 0.9,3.54 0.94,2.64 3.04,8.12 3.04,10.96 0,3.33 -2.15,5.33 -5.73,5.33 -4.48,0 -6.93,-3.19 -7.77,-4.34 -0.25,2.79 -2.29,4.34 -4.58,4.34 -2.3,0 -3.24,-1.95 -3.74,-2.84 -0.8,-1.7 -1.49,-4.63 -1.49,-4.83 0,-0.5 0.49,-0.5 0.59,-0.5 0.5,0 0.55,0.05 0.85,1.14 0.84,3.54 1.84,5.93 3.64,5.93 0.99,0 1.54,-0.65 1.54,-2.29 0,-1.04 -0.15,-1.59 -0.8,-4.18 z"
           id="path6862" /><path
           style="fill:#000000;stroke-width:0"
           d="m 626.12,441.47 0.03,0.04 0.03,0.04 0.02,0.04 0.02,0.03 0.03,0.04 0.02,0.03 0.02,0.03 0.02,0.03 0.02,0.03 0.02,0.03 0.01,0.03 0.02,0.03 0.01,0.03 0.02,0.02 0.01,0.03 0.01,0.02 0.01,0.03 0.01,0.02 0.01,0.02 0.01,0.03 0.01,0.02 0.01,0.02 0,0.03 0.01,0.02 0,0.02 0.01,0.03 0,0.02 0.01,0.03 0,0.02 0,0.03 0,0.03 0,0.02 c 0,0.55 -0.45,1 -1,1 -0.49,0 -0.74,-0.35 -1.04,-0.7 -2.49,-3.39 -5.83,-4.73 -9.46,-4.73 -3.49,0 -6.58,1.25 -9.32,3.84 -0.95,0.84 -1.99,1.59 -3.59,1.59 l 0.05,-1.09 c 2.64,0 5.18,-3.69 5.18,-8.92 0,-5.38 -2.59,-8.97 -5.18,-8.97 h 0 c -1,0 -4.28,0.65 -4.28,8.92 0,8.32 3.24,8.97 4.28,8.97 l -0.05,1.09 c -3.78,0 -7.32,-4.18 -7.32,-10.01 0,-6.03 3.59,-10.06 7.32,-10.06 3.64,0 6.48,4.43 6.48,10.01 0,0.7 0,3.04 -1.05,5.63 3.24,-1.85 5.73,-2.09 7.52,-2.09 3.79,0 6.33,1.54 6.63,1.74 l 0.05,-0.05 -22.37,-33.33 c -0.44,-0.65 -0.44,-0.9 -0.44,-0.99 0,-0.55 0.49,-1 0.99,-1 0.5,0 0.6,0.2 1,0.75 z"
           id="path6864" /><path
           style="fill:#000000;stroke-width:0"
           d="m 630.66,413.22 -0.01,0.54 -0.03,0.52 -0.04,0.52 -0.06,0.5 -0.07,0.5 -0.09,0.48 -0.1,0.47 -0.12,0.46 -0.13,0.45 -0.14,0.44 -0.16,0.42 -0.17,0.4 -0.18,0.4 -0.2,0.38 -0.2,0.36 -0.22,0.34 -0.22,0.33 -0.24,0.31 -0.24,0.3 -0.26,0.27 -0.26,0.26 -0.27,0.24 -0.28,0.21 -0.29,0.2 -0.29,0.17 -0.3,0.16 -0.31,0.13 -0.31,0.11 -0.31,0.08 -0.32,0.06 -0.33,0.04 -0.33,0.02 c -3.78,0 -7.33,-4.19 -7.33,-10.02 0,-6.02 3.59,-10.06 7.33,-10.06 l 0.05,1.09 c -1,0 -4.28,0.65 -4.28,8.92 0,8.32 3.23,8.97 4.28,8.97 2.64,0 5.18,-3.69 5.18,-8.92 0,-5.38 -2.59,-8.97 -5.18,-8.97 h 0 l -0.05,-1.09 c 3.64,0 6.48,4.43 6.48,10.01 z"
           id="path6866" /></g>    </g>
    <path
       id="path6868"
       d="M 239.78577,27.362184 C 240,82.362183 240,82.362183 240,82.362183"
       style="fill:none;stroke:#000000;stroke-width:0.49999997;stroke-linecap:butt;stroke-linejoin:miter;stroke-miterlimit:4;stroke-opacity:1;stroke-dasharray:none" />
    <text
       id="text6870"
       y="92.362183"
       x="248.78906"
       style="font-size:12px;font-style:normal;font-variant:normal;font-weight:normal;font-stretch:normal;text-align:center;text-anchor:middle;fill:#000000;fill-opacity:1;stroke:none;font-family:TeXGyreAdventor;-inkscape-font-specification:TeXGyreAdventor"
       xml:space="preserve"><tspan
         style="font-size:8px"
         y="92.362183"
         x="249.89844"
         id="tspan6872"
         sodipodi:role="line">Temps de </tspan><tspan
         id="tspan6874"
         style="font-size:8px"
         y="102.36218"
         x="248.78906"
         sodipodi:role="line">réponse à n%</tspan></text>
  </g>
</svg>
