<?xml version="1.0" encoding="UTF-8" standalone="no"?>
<!-- Created with Inkscape (http://www.inkscape.org/) -->

<svg
   xmlns:dc="http://purl.org/dc/elements/1.1/"
   xmlns:cc="http://creativecommons.org/ns#"
   xmlns:rdf="http://www.w3.org/1999/02/22-rdf-syntax-ns#"
   xmlns:svg="http://www.w3.org/2000/svg"
   xmlns="http://www.w3.org/2000/svg"
   xmlns:sodipodi="http://sodipodi.sourceforge.net/DTD/sodipodi-0.dtd"
   xmlns:inkscape="http://www.inkscape.org/namespaces/inkscape"
   width="210mm"
   height="297mm"
   id="svg2"
   version="1.1"
   inkscape:version="0.47 r22583"
   sodipodi:docname="blocs2.svg"
   inkscape:export-filename="/home/xabi/Enseignement/JulesHaag/PTSI/PTSI_2010_2011/DM_DS_Interros/DS/DS_3_Asservissements_FreinageA318/Corrige/png/blocs2.png"
   inkscape:export-xdpi="300"
   inkscape:export-ydpi="300">
  <sodipodi:namedview
     id="base"
     pagecolor="#ffffff"
     bordercolor="#666666"
     borderopacity="1.0"
     inkscape:pageopacity="0.0"
     inkscape:pageshadow="2"
     inkscape:zoom="0.98994949"
     inkscape:cx="710.04221"
     inkscape:cy="686.8002"
     inkscape:document-units="px"
     inkscape:current-layer="layer1"
     showgrid="true"
     inkscape:window-width="864"
     inkscape:window-height="985"
     inkscape:window-x="69"
     inkscape:window-y="42"
     inkscape:window-maximized="0">
    <inkscape:grid
       id="grid2816"
       type="xygrid" />
  </sodipodi:namedview>
  <defs
     id="defs4">
    <marker
       inkscape:stockid="Arrow1Lend"
       orient="auto"
       refY="0.0"
       refX="0.0"
       id="Arrow1Lend"
       style="overflow:visible;">
      <path
         id="path5404"
         d="M 0.0,0.0 L 5.0,-5.0 L -12.5,0.0 L 5.0,5.0 L 0.0,0.0 z "
         style="fill-rule:evenodd;stroke:#000000;stroke-width:1.0pt;marker-start:none;"
         transform="scale(0.8) rotate(180) translate(12.5,0)" />
    </marker>
    <inkscape:perspective
       id="perspective10"
       inkscape:persp3d-origin="372.04724 : 350.78739 : 1"
       inkscape:vp_z="744.09448 : 526.18109 : 1"
       inkscape:vp_y="0 : 1000 : 0"
       inkscape:vp_x="0 : 526.18109 : 1"
       sodipodi:type="inkscape:persp3d" />
  </defs>
  <metadata
     id="metadata7">
    <rdf:RDF>
      <cc:Work
         rdf:about="">
        <dc:format>image/svg+xml</dc:format>
        <dc:type
           rdf:resource="http://purl.org/dc/dcmitype/StillImage" />
        <dc:title></dc:title>
      </cc:Work>
    </rdf:RDF>
  </metadata>
  <g
     id="layer1"
     inkscape:groupmode="layer"
     inkscape:label="Calque 1">
    <g
       id="g2825"
       transform="matrix(0.33981696,0,0,0.33981696,387.7112,371.93142)">
      <g
         word-spacing="normal"
         letter-spacing="normal"
         font-size-adjust="none"
         font-stretch="normal"
         font-weight="normal"
         font-variant="normal"
         font-style="normal"
         fill-rule="even-odd"
         stroke-miterlimit="10.433"
         xml:space="preserve"
         transform="matrix(1.0629921,0,0,-1.0629921,-186.02362,789.27165)"
         id="content"
         style="font-style:normal;font-variant:normal;font-weight:normal;font-stretch:normal;letter-spacing:normal;word-spacing:normal;text-anchor:start;fill:none;stroke:#000000;stroke-width:2.94276071;stroke-linecap:butt;stroke-linejoin:miter;stroke-miterlimit:10.43299961;stroke-opacity:1;stroke-dasharray:none;stroke-dashoffset:0"><path
           id="path2828"
           d="m 659.13,456.62 0,0.02 0,0.01 0,0.02 -0.01,0.02 0,0.01 0,0.02 -0.01,0.02 0,0.02 -0.01,0.02 -0.01,0.02 -0.01,0.02 -0.01,0.02 -0.01,0.02 -0.01,0.02 -0.01,0.02 -0.02,0.02 -0.01,0.02 -0.02,0.02 -0.02,0.02 -0.02,0.02 -0.02,0.02 -0.02,0.01 -0.03,0.02 -0.02,0.01 -0.03,0.01 -0.02,0.01 -0.01,0 -0.02,0.01 -0.01,0 -0.02,0.01 -0.02,0 -0.01,0.01 -0.02,0 -0.02,0 -0.02,0 -0.02,0 -0.02,0.01 -0.02,0 -0.02,0 c -0.25,0 -0.3,-0.05 -0.9,-0.75 l -2.39,-2.84 c -1.29,2.34 -3.88,3.59 -7.12,3.59 -6.33,0 -12.3,-5.73 -12.3,-11.76 0,-4.03 2.64,-6.32 5.18,-7.07 l 5.33,-1.4 c 1.84,-0.44 4.58,-1.19 4.58,-5.28 0,-4.48 -4.08,-9.16 -8.97,-9.16 -3.19,0 -8.71,1.09 -8.71,7.27 0,1.2 0.25,2.39 0.29,2.69 0.05,0.2 0.11,0.25 0.11,0.35 0,0.5 -0.35,0.55 -0.6,0.55 -0.25,0 -0.35,-0.05 -0.5,-0.2 -0.2,-0.2 -2.99,-11.56 -2.99,-11.71 0,-0.3 0.25,-0.5 0.55,-0.5 0.25,0 0.3,0.05 0.89,0.75 l 2.45,2.84 c 2.14,-2.89 5.52,-3.59 8.42,-3.59 6.77,0 12.65,6.63 12.65,12.81 0,3.43 -1.7,5.13 -2.45,5.83 -1.14,1.14 -1.88,1.34 -6.32,2.48 -1.1,0.3 -2.89,0.8 -3.34,0.9 -1.34,0.45 -3.04,1.89 -3.04,4.53 0,4.04 3.99,8.27 8.72,8.27 4.13,0 7.17,-2.14 7.17,-7.72 0,-1.59 -0.2,-2.49 -0.2,-2.79 0,-0.05 0,-0.5 0.6,-0.5 0.5,0 0.55,0.15 0.75,1 z"
           style="fill:#000000;stroke-width:0" /><path
           id="path2830"
           d="m 666.58,427.77 h 3.55 c 0.67,0 1.12,0 1.12,0.77 0,0.49 -0.45,0.49 -1.05,0.49 h -3.31 l 1.29,5.16 c 0.04,0.17 0.1,0.35 0.1,0.49 0,0.62 -0.48,1.11 -1.18,1.11 -0.87,0 -1.39,-0.59 -1.64,-1.5 -0.24,-0.87 0.21,0.81 -1.32,-5.26 h -3.56 c -0.66,0 -1.11,0 -1.11,-0.77 0,-0.49 0.41,-0.49 1.04,-0.49 h 3.31 l -2.05,-8.23 c -0.21,-0.87 -0.53,-2.12 -0.53,-2.58 0,-2.05 1.74,-3.31 3.73,-3.31 3.87,0 6.07,4.88 6.07,5.33 0,0.46 -0.45,0.46 -0.56,0.46 -0.41,0 -0.45,-0.07 -0.73,-0.66 -0.98,-2.2 -2.75,-4.15 -4.67,-4.15 -0.73,0 -1.22,0.45 -1.22,1.71 0,0.34 0.14,1.08 0.21,1.43 z"
           style="fill:#000000;stroke-width:0" /><polyline
           id="polyline2832"
           points="627,400 675.12,400 675.12,402.04 627,402.04 "
           style="fill:#000000;fill-rule:nonzero;stroke-width:0" /><path
           id="path2834"
           d="m 644.3,388.02 0,0.01 0,0 0,0.01 0,0.01 0,0.01 -0.01,0.01 0,0.02 0,0.02 0,0.02 -0.01,0.02 0,0.02 -0.01,0.02 -0.01,0.03 -0.01,0.02 -0.01,0.03 -0.01,0.02 -0.01,0.02 -0.02,0.03 -0.02,0.02 -0.02,0.03 -0.02,0.02 -0.01,0.01 -0.02,0.01 -0.01,0.01 -0.01,0.01 -0.02,0.01 -0.01,0.01 -0.02,0.01 -0.02,0.01 -0.01,0.01 -0.02,0.01 -0.02,0.01 -0.02,0 -0.02,0.01 -0.02,0.01 -0.02,0 -0.03,0.01 -0.02,0 -0.03,0.01 -0.02,0 -0.03,0 -0.02,0.01 -0.03,0 -0.03,0 -0.03,0 c -1.15,0 -4.78,-0.4 -6.08,-0.5 -0.4,-0.05 -0.95,-0.1 -0.95,-1 0,-0.59 0.45,-0.59 1.2,-0.59 2.39,0 2.49,-0.35 2.49,-0.85 l -0.15,-0.99 -7.22,-28.7 c -0.2,-0.69 -0.2,-0.8 -0.2,-1.09 0,-1.15 0.99,-1.4 1.44,-1.4 0.65,0 1.4,0.45 1.7,1.05 0.25,0.45 2.49,9.66 2.79,10.91 1.69,-0.15 5.78,-0.95 5.78,-4.24 0,-0.35 0,-0.55 -0.15,-1.04 -0.1,-0.6 -0.2,-1.2 -0.2,-1.75 0,-2.93 1.99,-4.93 4.58,-4.93 1.5,0 2.84,0.8 3.93,2.64 1.25,2.2 1.8,4.93 1.8,5.03 0,0.5 -0.45,0.5 -0.6,0.5 -0.5,0 -0.55,-0.2 -0.7,-0.89 -0.99,-3.64 -2.14,-6.18 -4.33,-6.18 -0.95,0 -1.6,0.55 -1.6,2.34 0,0.84 0.21,1.99 0.41,2.79 0.19,0.85 0.19,1.05 0.19,1.54 0,3.24 -3.13,4.69 -7.37,5.23 1.55,0.9 3.14,2.5 4.29,3.69 2.39,2.64 4.68,4.78 7.12,4.78 0.3,0 0.35,0 0.45,-0.05 0.59,-0.1 0.64,-0.1 1.04,-0.4 0.1,-0.05 0.1,-0.09 0.2,-0.2 -2.39,-0.15 -2.84,-2.09 -2.84,-2.68 0,-0.8 0.55,-1.75 1.9,-1.75 1.29,0 2.73,1.1 2.73,3.04 0,1.5 -1.14,3.14 -3.38,3.14 -1.4,0 -3.69,-0.4 -7.27,-4.39 -1.7,-1.89 -3.64,-3.88 -5.53,-4.63 z"
           style="fill:#000000;stroke-width:0" /><path
           id="path2836"
           d="m 664.58,360.77 h 3.55 c 0.67,0 1.12,0 1.12,0.77 0,0.49 -0.45,0.49 -1.05,0.49 h -3.31 l 1.29,5.16 c 0.04,0.17 0.1,0.35 0.1,0.49 0,0.62 -0.48,1.11 -1.18,1.11 -0.87,0 -1.39,-0.59 -1.64,-1.5 -0.24,-0.87 0.21,0.81 -1.32,-5.26 h -3.56 c -0.66,0 -1.11,0 -1.11,-0.77 0,-0.49 0.41,-0.49 1.04,-0.49 h 3.31 l -2.05,-8.23 c -0.21,-0.87 -0.53,-2.12 -0.53,-2.58 0,-2.05 1.74,-3.31 3.73,-3.31 3.87,0 6.07,4.88 6.07,5.33 0,0.46 -0.45,0.46 -0.56,0.46 -0.41,0 -0.45,-0.07 -0.73,-0.66 -0.98,-2.2 -2.75,-4.15 -4.67,-4.15 -0.73,0 -1.22,0.45 -1.22,1.71 0,0.34 0.14,1.08 0.21,1.43 z"
           style="fill:#000000;stroke-width:0" /><polyline
           id="polyline2838"
           points="462,339 841.92,339 841.92,341.04 462,341.04 "
           style="fill:#000000;fill-rule:nonzero;stroke-width:0" /><path
           id="path2840"
           d="m 476.64,309.88 0,0.05 0,0.06 0,0.05 0,0.05 0,0.05 0,0.05 0,0.04 0,0.05 0,0.04 0,0.04 0,0.04 0,0.04 0,0.04 -0.01,0.04 0,0.03 0,0.04 -0.01,0.03 0,0.03 -0.01,0.06 -0.01,0.05 -0.02,0.05 -0.01,0.05 -0.02,0.04 -0.02,0.04 -0.03,0.04 -0.03,0.03 -0.03,0.02 -0.03,0.03 -0.04,0.02 -0.05,0.02 -0.02,0.01 -0.03,0.01 -0.02,0 -0.03,0.01 -0.03,0.01 -0.03,0 -0.03,0.01 -0.03,0 -0.03,0.01 -0.04,0 -0.04,0 -0.03,0 -0.04,0.01 -0.04,0 -0.04,0 -0.05,0 -0.04,0 -0.05,0 -0.05,0.01 -0.05,0 -0.05,0 -0.05,0 c -3.09,-3.19 -7.47,-3.19 -9.07,-3.19 v -1.55 c 1,0 3.94,0 6.53,1.3 v -25.81 c 0,-1.79 -0.15,-2.39 -4.63,-2.39 h -1.6 V 278 h 16.14 v 1.54 h -1.59 c -4.49,0 -4.64,0.55 -4.64,2.39 z"
           style="fill:#000000;stroke-width:0" /><path
           id="path2842"
           d="m 518.38,289.46 h 13.89 c 0.7,0 1.64,0 1.64,0.99 0,1 -0.94,1 -1.64,1 h -13.89 v 13.95 c 0,0.69 0,1.64 -1,1.64 -1,0 -1,-0.95 -1,-1.64 v -13.95 h -13.95 c -0.7,0 -1.64,0 -1.64,-1 0,-0.99 0.94,-0.99 1.64,-0.99 h 13.95 v -13.95 c 0,-0.7 0,-1.64 1,-1.64 1,0 1,0.94 1,1.64 z"
           style="fill:#000000;stroke-width:0" /><path
           id="path2844"
           d="m 587.73,329.93 -0.15,0 -0.15,0 -0.14,0 -0.14,-0.01 -0.14,-0.01 -0.14,-0.02 -0.07,-0.01 -0.07,-0.01 -0.07,-0.01 -0.07,-0.02 -0.06,-0.01 -0.07,-0.02 -0.07,-0.03 -0.07,-0.02 -0.06,-0.03 -0.07,-0.03 -0.07,-0.03 -0.06,-0.04 -0.07,-0.03 -0.06,-0.05 -0.07,-0.04 -0.06,-0.05 -0.07,-0.05 -0.06,-0.06 -0.07,-0.06 -0.07,-0.06 c -0.79,-0.75 -0.89,-1.59 -0.89,-1.94 0,-1.2 0.89,-1.74 1.84,-1.74 1.45,0 2.79,1.19 2.79,3.18 0,2.45 -2.34,4.29 -5.88,4.29 -6.72,0 -13.35,-7.13 -13.35,-14.15 0,-4.48 2.89,-8.42 8.07,-8.42 7.12,0 11.31,5.28 11.31,5.88 0,0.3 -0.3,0.65 -0.6,0.65 -0.25,0 -0.35,-0.1 -0.64,-0.5 -3.94,-4.93 -9.37,-4.93 -9.97,-4.93 -3.14,0 -4.48,2.44 -4.48,5.43 0,2.04 1,6.87 2.69,9.96 1.54,2.84 4.28,4.98 7.02,4.98 1.7,0 3.59,-0.65 4.29,-1.99 z"
           style="fill:#000000;stroke-width:0" /><path
           id="path2846"
           d="m 598.58,317.77 h 3.55 c 0.67,0 1.12,0 1.12,0.77 0,0.49 -0.45,0.49 -1.05,0.49 h -3.31 l 1.29,5.16 c 0.04,0.17 0.1,0.35 0.1,0.49 0,0.62 -0.48,1.11 -1.18,1.11 -0.87,0 -1.39,-0.59 -1.64,-1.5 -0.24,-0.87 0.21,0.81 -1.32,-5.26 h -3.56 c -0.66,0 -1.11,0 -1.11,-0.77 0,-0.49 0.41,-0.49 1.04,-0.49 h 3.31 l -2.05,-8.23 c -0.21,-0.87 -0.53,-2.12 -0.53,-2.58 0,-2.05 1.74,-3.31 3.73,-3.31 3.87,0 6.07,4.88 6.07,5.33 0,0.46 -0.45,0.46 -0.56,0.46 -0.41,0 -0.45,-0.07 -0.73,-0.66 -0.98,-2.2 -2.75,-4.15 -4.67,-4.15 -0.73,0 -1.22,0.45 -1.22,1.71 0,0.34 0.14,1.08 0.21,1.43 z"
           style="fill:#000000;stroke-width:0" /><polyline
           id="polyline2848"
           points="553,289 621.4,289 621.4,291.04 553,291.04 "
           style="fill:#000000;fill-rule:nonzero;stroke-width:0" /><path
           id="path2850"
           d="m 559.33,246.84 5.27,5.12 c 7.78,6.88 10.77,9.57 10.77,14.55 0,5.68 -4.49,9.67 -10.57,9.67 -5.62,0 -9.31,-4.59 -9.31,-9.02 0,-2.79 2.49,-2.79 2.64,-2.79 0.85,0 2.59,0.6 2.59,2.64 0,1.29 -0.9,2.59 -2.64,2.59 -0.4,0 -0.5,0 -0.65,-0.05 1.15,3.24 3.84,5.08 6.73,5.08 4.53,0 6.67,-4.03 6.67,-8.12 0,-3.98 -2.49,-7.92 -5.23,-11.01 l -9.56,-10.66 c -0.55,-0.54 -0.55,-0.64 -0.55,-1.84 h 18.48 l 1.4,8.67 h -1.25 c -0.25,-1.5 -0.6,-3.69 -1.1,-4.44 -0.34,-0.39 -3.63,-0.39 -4.73,-0.39 z"
           style="fill:#000000;stroke-width:0" /><path
           id="path2852"
           d="m 592.3,277.02 0,0.01 0,0 0,0.01 0,0.01 0,0.01 -0.01,0.01 0,0.02 0,0.02 0,0.02 -0.01,0.02 0,0.02 -0.01,0.02 -0.01,0.03 -0.01,0.02 -0.01,0.03 -0.01,0.02 -0.01,0.02 -0.02,0.03 -0.02,0.02 -0.02,0.03 -0.02,0.02 -0.01,0.01 -0.02,0.01 -0.01,0.01 -0.01,0.01 -0.02,0.01 -0.01,0.01 -0.02,0.01 -0.02,0.01 -0.01,0.01 -0.02,0.01 -0.02,0.01 -0.02,0 -0.02,0.01 -0.02,0.01 -0.02,0 -0.03,0.01 -0.02,0 -0.03,0.01 -0.02,0 -0.03,0 -0.02,0.01 -0.03,0 -0.03,0 -0.03,0 c -1.15,0 -4.78,-0.4 -6.08,-0.5 -0.4,-0.05 -0.95,-0.1 -0.95,-1 0,-0.59 0.45,-0.59 1.2,-0.59 2.39,0 2.49,-0.35 2.49,-0.85 l -0.15,-0.99 -7.22,-28.7 c -0.2,-0.69 -0.2,-0.79 -0.2,-1.09 0,-1.15 0.99,-1.4 1.44,-1.4 0.65,0 1.4,0.45 1.7,1.05 0.25,0.45 2.49,9.66 2.79,10.91 1.69,-0.15 5.78,-0.95 5.78,-4.24 0,-0.35 0,-0.55 -0.15,-1.04 -0.1,-0.6 -0.2,-1.2 -0.2,-1.75 0,-2.93 1.99,-4.93 4.58,-4.93 1.5,0 2.84,0.8 3.93,2.64 1.25,2.2 1.8,4.93 1.8,5.03 0,0.5 -0.45,0.5 -0.6,0.5 -0.5,0 -0.55,-0.2 -0.7,-0.89 -0.99,-3.64 -2.14,-6.18 -4.33,-6.18 -0.95,0 -1.6,0.55 -1.6,2.34 0,0.84 0.21,1.99 0.41,2.79 0.19,0.85 0.19,1.05 0.19,1.54 0,3.24 -3.13,4.69 -7.37,5.23 1.55,0.9 3.14,2.5 4.29,3.69 2.39,2.64 4.68,4.78 7.12,4.78 0.3,0 0.35,0 0.45,-0.05 0.59,-0.1 0.64,-0.1 1.04,-0.4 0.1,-0.05 0.1,-0.09 0.2,-0.2 -2.39,-0.15 -2.84,-2.09 -2.84,-2.68 0,-0.8 0.55,-1.75 1.9,-1.75 1.29,0 2.73,1.1 2.73,3.04 0,1.5 -1.14,3.14 -3.38,3.14 -1.4,0 -3.69,-0.4 -7.27,-4.39 -1.7,-1.89 -3.64,-3.88 -5.53,-4.63 z"
           style="fill:#000000;stroke-width:0" /><path
           id="path2854"
           d="m 612.58,249.77 h 3.55 c 0.67,0 1.12,0 1.12,0.77 0,0.49 -0.45,0.49 -1.05,0.49 h -3.31 l 1.29,5.16 c 0.04,0.17 0.1,0.35 0.1,0.49 0,0.62 -0.48,1.11 -1.18,1.11 -0.87,0 -1.39,-0.59 -1.64,-1.5 -0.24,-0.87 0.21,0.81 -1.32,-5.26 h -3.56 c -0.66,0 -1.11,0 -1.11,-0.77 0,-0.49 0.41,-0.49 1.04,-0.49 h 3.31 l -2.05,-8.23 c -0.21,-0.87 -0.53,-2.12 -0.53,-2.58 0,-2.05 1.74,-3.31 3.73,-3.31 3.87,0 6.07,4.88 6.07,5.33 0,0.46 -0.45,0.46 -0.56,0.46 -0.41,0 -0.45,-0.07 -0.73,-0.66 -0.98,-2.2 -2.75,-4.15 -4.67,-4.15 -0.73,0 -1.22,0.45 -1.22,1.71 0,0.34 0.14,1.08 0.21,1.43 z"
           style="fill:#000000;stroke-width:0" /><path
           id="path2856"
           d="m 630.24,271.92 -0.03,-0.15 -0.04,-0.15 -0.03,-0.14 -0.04,-0.13 -0.03,-0.13 -0.04,-0.11 -0.03,-0.12 -0.04,-0.1 -0.04,-0.1 -0.04,-0.09 -0.04,-0.09 -0.05,-0.08 -0.05,-0.07 -0.05,-0.07 -0.06,-0.07 -0.06,-0.05 -0.07,-0.06 -0.07,-0.05 -0.08,-0.04 -0.09,-0.04 -0.09,-0.04 -0.1,-0.03 -0.11,-0.03 -0.12,-0.02 -0.13,-0.02 -0.13,-0.02 -0.07,0 -0.08,-0.01 -0.07,-0.01 -0.08,0 -0.08,-0.01 -0.09,0 -0.08,0 -0.09,-0.01 -0.09,0 -0.1,0 -0.1,0 -0.1,0 c -0.6,0 -1.14,0 -1.14,-0.95 0,-0.39 0.25,-0.59 0.64,-0.59 h 9.12 c 0.25,0 0.9,0 0.9,0.99 0,0.55 -0.5,0.55 -1.2,0.55 -2.49,0 -2.49,0.35 -2.49,0.8 0,0.59 2.09,8.71 2.44,9.96 0.65,-1.44 2.04,-3.19 4.58,-3.19 l -0.05,1.1 c -3.28,0 -3.93,4.13 -3.93,4.43 0,0.1 0,0.2 0.15,0.8 l 2.44,9.76 c 0.34,1.35 1.69,2.74 2.59,3.49 1.74,1.54 3.18,1.89 4.03,1.89 1.99,0 3.19,-1.74 3.19,-4.68 0,-2.94 -1.64,-8.67 -2.54,-10.56 -1.69,-3.49 -4.08,-5.13 -5.93,-5.13 l 0.05,-1.1 c 5.78,0 12.01,7.28 12.01,14.6 0,4.68 -2.84,7.97 -6.63,7.97 -2.49,0 -4.88,-1.8 -6.52,-3.74 -0.5,2.69 -2.64,3.74 -4.49,3.74 -2.29,0 -3.24,-1.95 -3.68,-2.84 -0.9,-1.7 -1.55,-4.68 -1.55,-4.83 0,-0.5 0.5,-0.5 0.6,-0.5 0.5,0 0.55,0.05 0.85,1.14 0.85,3.54 1.84,5.93 3.63,5.93 0.85,0 1.55,-0.4 1.55,-2.29 0,-1.15 -0.15,-1.69 -0.35,-2.54 z"
           style="fill:#000000;stroke-width:0" /><path
           id="path2858"
           d="m 684.38,289.46 h 13.89 c 0.7,0 1.64,0 1.64,0.99 0,1 -0.94,1 -1.64,1 h -13.89 v 13.95 c 0,0.69 0,1.64 -1,1.64 -1,0 -1,-0.95 -1,-1.64 v -13.95 h -13.95 c -0.7,0 -1.64,0 -1.64,-1 0,-0.99 0.94,-0.99 1.64,-0.99 h 13.95 v -13.95 c 0,-0.7 0,-1.64 1,-1.64 1,0 1,0.94 1,1.64 z"
           style="fill:#000000;stroke-width:0" /><path
           id="path2860"
           d="m 727.38,313.94 -0.01,-0.07 -0.02,-0.08 -0.01,-0.07 -0.02,-0.08 -0.03,-0.16 -0.04,-0.16 -0.04,-0.16 -0.03,-0.16 -0.04,-0.16 -0.04,-0.16 -0.01,-0.08 -0.02,-0.07 -0.02,-0.07 -0.01,-0.07 -0.02,-0.07 -0.01,-0.07 -0.01,-0.06 -0.02,-0.06 -0.01,-0.05 -0.01,-0.06 -0.01,-0.05 0,-0.04 -0.01,-0.04 0,-0.04 -0.01,-0.03 0,-0.02 c 0,-0.9 0.7,-1.35 1.45,-1.35 0.6,0 1.5,0.4 1.84,1.4 0.05,0.1 0.65,2.44 0.95,3.68 l 1.1,4.49 c 0.29,1.09 0.59,2.19 0.84,3.34 0.2,0.84 0.6,2.28 0.65,2.48 0.75,1.55 3.39,6.08 8.12,6.08 2.24,0 2.69,-1.84 2.69,-3.49 0,-1.24 -0.35,-2.64 -0.75,-4.13 l -1.39,-5.78 -1,-3.79 c -0.2,-0.99 -0.65,-2.68 -0.65,-2.93 0,-0.9 0.7,-1.35 1.45,-1.35 1.54,0 1.84,1.25 2.24,2.84 0.7,2.79 2.54,10.07 2.99,12.01 0.15,0.65 2.79,6.62 8.22,6.62 2.14,0 2.69,-1.69 2.69,-3.49 0,-2.84 -2.1,-8.51 -3.09,-11.15 -0.45,-1.2 -0.65,-1.75 -0.65,-2.74 0,-2.34 1.75,-4.09 4.09,-4.09 4.68,0 6.52,7.28 6.52,7.67 0,0.5 -0.45,0.5 -0.59,0.5 -0.5,0 -0.5,-0.15 -0.75,-0.89 -0.75,-2.64 -2.35,-6.18 -5.08,-6.18 -0.85,0 -1.2,0.5 -1.2,1.64 0,1.25 0.45,2.44 0.9,3.54 0.95,2.59 3.03,8.12 3.03,10.96 0,3.24 -1.99,5.33 -5.72,5.33 -3.74,0 -6.28,-2.2 -8.12,-4.84 -0.05,0.65 -0.2,2.35 -1.6,3.54 -1.24,1.05 -2.84,1.3 -4.08,1.3 -4.48,0 -6.93,-3.19 -7.77,-4.34 -0.25,2.84 -2.34,4.34 -4.58,4.34 -2.3,0 -3.24,-1.95 -3.69,-2.84 -0.9,-1.75 -1.54,-4.68 -1.54,-4.83 0,-0.5 0.49,-0.5 0.59,-0.5 0.5,0 0.55,0.05 0.85,1.14 0.84,3.54 1.84,5.93 3.64,5.93 0.79,0 1.54,-0.4 1.54,-2.29 0,-1.04 -0.15,-1.59 -0.8,-4.18 z"
           style="fill:#000000;stroke-width:0" /><path
           id="path2862"
           d="m 775.58,317.77 h 3.55 c 0.67,0 1.12,0 1.12,0.77 0,0.49 -0.45,0.49 -1.05,0.49 h -3.31 l 1.29,5.16 c 0.04,0.17 0.1,0.35 0.1,0.49 0,0.62 -0.48,1.11 -1.18,1.11 -0.87,0 -1.39,-0.59 -1.64,-1.5 -0.24,-0.87 0.21,0.81 -1.32,-5.26 h -3.56 c -0.66,0 -1.11,0 -1.11,-0.77 0,-0.49 0.41,-0.49 1.04,-0.49 h 3.31 l -2.05,-8.23 c -0.21,-0.87 -0.53,-2.12 -0.53,-2.58 0,-2.05 1.74,-3.31 3.73,-3.31 3.87,0 6.07,4.88 6.07,5.33 0,0.46 -0.45,0.46 -0.56,0.46 -0.41,0 -0.45,-0.07 -0.73,-0.66 -0.98,-2.2 -2.75,-4.15 -4.67,-4.15 -0.73,0 -1.22,0.45 -1.22,1.71 0,0.34 0.14,1.08 0.21,1.43 z"
           style="fill:#000000;stroke-width:0" /><polyline
           id="polyline2864"
           points="720,289 788.4,289 788.4,291.04 720,291.04 "
           style="fill:#000000;fill-rule:nonzero;stroke-width:0" /><path
           id="path2866"
           d="m 726.33,246.84 5.27,5.12 c 7.78,6.88 10.77,9.57 10.77,14.55 0,5.68 -4.49,9.67 -10.57,9.67 -5.62,0 -9.31,-4.59 -9.31,-9.02 0,-2.79 2.49,-2.79 2.64,-2.79 0.85,0 2.59,0.6 2.59,2.64 0,1.29 -0.9,2.59 -2.64,2.59 -0.4,0 -0.5,0 -0.65,-0.05 1.15,3.24 3.84,5.08 6.73,5.08 4.53,0 6.67,-4.03 6.67,-8.12 0,-3.98 -2.49,-7.92 -5.23,-11.01 l -9.56,-10.66 c -0.55,-0.54 -0.55,-0.64 -0.55,-1.84 h 18.48 l 1.4,8.67 h -1.25 c -0.25,-1.5 -0.6,-3.69 -1.1,-4.44 -0.34,-0.39 -3.63,-0.39 -4.73,-0.39 z"
           style="fill:#000000;stroke-width:0" /><path
           id="path2868"
           d="m 759.3,277.02 0,0.01 0,0 0,0.01 0,0.01 0,0.01 -0.01,0.01 0,0.02 0,0.02 0,0.02 -0.01,0.02 0,0.02 -0.01,0.02 -0.01,0.03 -0.01,0.02 -0.01,0.03 -0.01,0.02 -0.01,0.02 -0.02,0.03 -0.02,0.02 -0.02,0.03 -0.02,0.02 -0.01,0.01 -0.02,0.01 -0.01,0.01 -0.01,0.01 -0.02,0.01 -0.01,0.01 -0.02,0.01 -0.02,0.01 -0.01,0.01 -0.02,0.01 -0.02,0.01 -0.02,0 -0.02,0.01 -0.02,0.01 -0.02,0 -0.03,0.01 -0.02,0 -0.03,0.01 -0.02,0 -0.03,0 -0.02,0.01 -0.03,0 -0.03,0 -0.03,0 c -1.15,0 -4.78,-0.4 -6.08,-0.5 -0.4,-0.05 -0.95,-0.1 -0.95,-1 0,-0.59 0.45,-0.59 1.2,-0.59 2.39,0 2.49,-0.35 2.49,-0.85 l -0.15,-0.99 -7.22,-28.7 c -0.2,-0.69 -0.2,-0.79 -0.2,-1.09 0,-1.15 0.99,-1.4 1.44,-1.4 0.65,0 1.4,0.45 1.7,1.05 0.25,0.45 2.49,9.66 2.79,10.91 1.69,-0.15 5.78,-0.95 5.78,-4.24 0,-0.35 0,-0.55 -0.15,-1.04 -0.1,-0.6 -0.2,-1.2 -0.2,-1.75 0,-2.93 1.99,-4.93 4.58,-4.93 1.5,0 2.84,0.8 3.93,2.64 1.25,2.2 1.8,4.93 1.8,5.03 0,0.5 -0.45,0.5 -0.6,0.5 -0.5,0 -0.55,-0.2 -0.7,-0.89 -0.99,-3.64 -2.14,-6.18 -4.33,-6.18 -0.95,0 -1.6,0.55 -1.6,2.34 0,0.84 0.21,1.99 0.41,2.79 0.19,0.85 0.19,1.05 0.19,1.54 0,3.24 -3.13,4.69 -7.37,5.23 1.55,0.9 3.14,2.5 4.29,3.69 2.39,2.64 4.68,4.78 7.12,4.78 0.3,0 0.35,0 0.45,-0.05 0.59,-0.1 0.64,-0.1 1.04,-0.4 0.1,-0.05 0.1,-0.09 0.2,-0.2 -2.39,-0.15 -2.84,-2.09 -2.84,-2.68 0,-0.8 0.55,-1.75 1.9,-1.75 1.29,0 2.73,1.1 2.73,3.04 0,1.5 -1.14,3.14 -3.38,3.14 -1.4,0 -3.69,-0.4 -7.27,-4.39 -1.7,-1.89 -3.64,-3.88 -5.53,-4.63 z"
           style="fill:#000000;stroke-width:0" /><path
           id="path2870"
           d="m 779.58,249.77 h 3.55 c 0.67,0 1.12,0 1.12,0.77 0,0.49 -0.45,0.49 -1.05,0.49 h -3.31 l 1.29,5.16 c 0.04,0.17 0.1,0.35 0.1,0.49 0,0.62 -0.48,1.11 -1.18,1.11 -0.87,0 -1.39,-0.59 -1.64,-1.5 -0.24,-0.87 0.21,0.81 -1.32,-5.26 h -3.56 c -0.66,0 -1.11,0 -1.11,-0.77 0,-0.49 0.41,-0.49 1.04,-0.49 h 3.31 l -2.05,-8.23 c -0.21,-0.87 -0.53,-2.12 -0.53,-2.58 0,-2.05 1.74,-3.31 3.73,-3.31 3.87,0 6.07,4.88 6.07,5.33 0,0.46 -0.45,0.46 -0.56,0.46 -0.41,0 -0.45,-0.07 -0.73,-0.66 -0.98,-2.2 -2.75,-4.15 -4.67,-4.15 -0.73,0 -1.22,0.45 -1.22,1.71 0,0.34 0.14,1.08 0.21,1.43 z"
           style="fill:#000000;stroke-width:0" /><path
           id="path2872"
           d="m 796.24,271.92 -0.03,-0.15 -0.04,-0.15 -0.03,-0.14 -0.04,-0.13 -0.03,-0.13 -0.04,-0.11 -0.03,-0.12 -0.04,-0.1 -0.04,-0.1 -0.04,-0.09 -0.04,-0.09 -0.05,-0.08 -0.05,-0.07 -0.05,-0.07 -0.06,-0.07 -0.06,-0.05 -0.07,-0.06 -0.07,-0.05 -0.08,-0.04 -0.09,-0.04 -0.09,-0.04 -0.1,-0.03 -0.11,-0.03 -0.12,-0.02 -0.13,-0.02 -0.13,-0.02 -0.07,0 -0.08,-0.01 -0.07,-0.01 -0.08,0 -0.08,-0.01 -0.09,0 -0.08,0 -0.09,-0.01 -0.09,0 -0.1,0 -0.1,0 -0.1,0 c -0.6,0 -1.14,0 -1.14,-0.95 0,-0.39 0.25,-0.59 0.64,-0.59 h 9.12 c 0.25,0 0.9,0 0.9,0.99 0,0.55 -0.5,0.55 -1.2,0.55 -2.49,0 -2.49,0.35 -2.49,0.8 0,0.59 2.09,8.71 2.44,9.96 0.65,-1.44 2.04,-3.19 4.58,-3.19 l -0.05,1.1 c -3.28,0 -3.93,4.13 -3.93,4.43 0,0.1 0,0.2 0.15,0.8 l 2.44,9.76 c 0.34,1.35 1.69,2.74 2.59,3.49 1.74,1.54 3.18,1.89 4.03,1.89 1.99,0 3.19,-1.74 3.19,-4.68 0,-2.94 -1.64,-8.67 -2.54,-10.56 -1.69,-3.49 -4.08,-5.13 -5.93,-5.13 l 0.05,-1.1 c 5.78,0 12.01,7.28 12.01,14.6 0,4.68 -2.84,7.97 -6.63,7.97 -2.49,0 -4.88,-1.8 -6.52,-3.74 -0.5,2.69 -2.64,3.74 -4.49,3.74 -2.29,0 -3.24,-1.95 -3.68,-2.84 -0.9,-1.7 -1.55,-4.68 -1.55,-4.83 0,-0.5 0.5,-0.5 0.6,-0.5 0.5,0 0.55,0.05 0.85,1.14 0.85,3.54 1.84,5.93 3.63,5.93 0.85,0 1.55,-0.4 1.55,-2.29 0,-1.15 -0.15,-1.69 -0.35,-2.54 z"
           style="fill:#000000;stroke-width:0" /><path
           id="path2874"
           d="m 836.61,298.35 h -1.19 c -0.1,-0.77 -0.45,-2.83 -0.9,-3.18 -0.28,-0.21 -2.97,-0.21 -3.45,-0.21 h -6.42 c 3.66,3.25 4.88,4.22 6.97,5.86 2.58,2.06 4.99,4.22 4.99,7.54 0,4.21 -3.7,6.79 -8.16,6.79 -4.33,0 -7.25,-3.03 -7.25,-6.24 0,-1.78 1.5,-1.95 1.84,-1.95 0.84,0 1.86,0.59 1.86,1.85 0,0.62 -0.25,1.85 -2.06,1.85 1.08,2.47 3.45,3.24 5.09,3.24 3.48,0 5.3,-2.72 5.3,-5.54 0,-3.04 -2.16,-5.45 -3.28,-6.7 l -8.4,-8.3 c -0.35,-0.31 -0.35,-0.38 -0.35,-1.36 h 14.36 z"
           style="fill:#000000;stroke-width:0" /></g>    </g>
    <g
       id="g2940"
       transform="matrix(0.37773168,0,0,0.37773168,-59.295319,362.73961)">
      <g
         id="g2942"
         transform="matrix(1.0629921,0,0,-1.0629921,-186.02362,789.27165)"
         xml:space="preserve"
         stroke-miterlimit="10.433"
         fill-rule="even-odd"
         font-style="normal"
         font-variant="normal"
         font-weight="normal"
         font-stretch="normal"
         font-size-adjust="none"
         letter-spacing="normal"
         word-spacing="normal"
         style="font-style:normal;font-variant:normal;font-weight:normal;font-stretch:normal;letter-spacing:normal;word-spacing:normal;text-anchor:start;fill:none;stroke:#000000;stroke-width:2.64738178;stroke-linecap:butt;stroke-linejoin:miter;stroke-miterlimit:10.43299961;stroke-opacity:1;stroke-dasharray:none;stroke-dashoffset:0"><path
           d="m 474.63,436.19 0.04,0.16 0.04,0.16 0.04,0.15 0.04,0.14 0.04,0.14 0.05,0.12 0.04,0.13 0.05,0.11 0.06,0.11 0.06,0.1 0.06,0.1 0.07,0.09 0.08,0.08 0.09,0.08 0.09,0.08 0.11,0.06 0.11,0.07 0.13,0.05 0.14,0.06 0.15,0.05 0.16,0.04 0.09,0.02 0.09,0.02 0.09,0.01 0.1,0.02 0.1,0.02 0.11,0.01 0.11,0.01 0.11,0.02 0.12,0.01 0.12,0.01 0.13,0.01 0.13,0.01 0.14,0.01 0.14,0 0.14,0.01 0.15,0 0.16,0.01 0.16,0 0.16,0 0.18,0.01 0.17,0 0.18,0 c 1.2,0 1.6,0 1.6,0.95 0,0.59 -0.55,0.59 -0.75,0.59 h -13.2 c -0.35,0 -1,0 -1,-0.99 0,-0.55 0.45,-0.55 1.4,-0.55 2.09,0 3.43,0 3.43,-0.95 0,-0.25 0,-0.35 -0.09,-0.8 l -6.73,-26.84 c -0.45,-1.85 -0.6,-2.35 -4.53,-2.35 -1.15,0 -1.59,0 -1.59,-0.99 0,-0.55 0.59,-0.55 0.74,-0.55 h 13.2 c 0.4,0 1,0 1,0.95 0,0.59 -0.4,0.59 -1.5,0.59 -0.89,0 -1.14,0 -2.14,0.1 -1.04,0.1 -1.24,0.3 -1.24,0.85 0,0.4 0.1,0.8 0.2,1.15 z"
           id="path2944"
           style="fill:#000000;stroke-width:0" /><path
           d="m 497.49,394.04 0,0.03 0,0.03 -0.01,0.01 0,0.02 0,0.01 -0.01,0.02 0,0.02 -0.01,0.01 -0.01,0.02 -0.01,0.02 -0.01,0.03 -0.01,0.02 -0.02,0.02 -0.02,0.03 -0.02,0.03 -0.02,0.03 -0.03,0.03 -0.03,0.04 -0.01,0.02 -0.02,0.02 -0.02,0.02 -0.02,0.02 -0.02,0.02 -0.02,0.03 -0.02,0.02 -0.02,0.02 -0.02,0.03 -0.03,0.02 -0.02,0.03 -0.03,0.03 -0.02,0.03 -0.03,0.03 -0.03,0.03 -0.03,0.03 -0.03,0.03 -0.03,0.03 -0.04,0.04 -0.03,0.03 -0.04,0.04 -0.03,0.03 -0.04,0.04 -0.04,0.04 c -6.23,6.28 -7.82,15.69 -7.82,23.31 0,8.67 1.89,17.34 8.02,23.57 0.65,0.59 0.65,0.69 0.65,0.84 0,0.35 -0.2,0.5 -0.5,0.5 -0.5,0 -4.98,-3.39 -7.92,-9.72 -2.54,-5.47 -3.14,-11 -3.14,-15.19 0,-3.88 0.55,-9.91 3.29,-15.54 2.99,-6.12 7.27,-9.36 7.77,-9.36 0.3,0 0.5,0.15 0.5,0.49 z"
           id="path2946"
           style="fill:#000000;stroke-width:0" /><path
           d="m 503.24,399.92 -0.03,-0.15 -0.04,-0.15 -0.03,-0.14 -0.04,-0.13 -0.03,-0.13 -0.04,-0.11 -0.03,-0.12 -0.04,-0.1 -0.04,-0.1 -0.04,-0.09 -0.04,-0.09 -0.05,-0.08 -0.05,-0.07 -0.05,-0.07 -0.06,-0.07 -0.06,-0.05 -0.07,-0.06 -0.07,-0.05 -0.08,-0.04 -0.09,-0.04 -0.09,-0.04 -0.1,-0.03 -0.11,-0.03 -0.12,-0.02 -0.13,-0.02 -0.13,-0.02 -0.07,0 -0.08,-0.01 -0.07,-0.01 -0.08,0 -0.08,-0.01 -0.09,0 -0.08,0 -0.09,-0.01 -0.09,0 -0.1,0 -0.1,0 -0.1,0 c -0.6,0 -1.14,0 -1.14,-0.95 0,-0.39 0.25,-0.59 0.64,-0.59 h 9.12 c 0.25,0 0.9,0 0.9,0.99 0,0.55 -0.5,0.55 -1.2,0.55 -2.49,0 -2.49,0.35 -2.49,0.8 0,0.59 2.09,8.71 2.44,9.96 0.65,-1.44 2.04,-3.19 4.58,-3.19 l -0.05,1.1 c -3.28,0 -3.93,4.13 -3.93,4.43 0,0.1 0,0.2 0.15,0.8 l 2.44,9.76 c 0.34,1.35 1.69,2.74 2.59,3.49 1.74,1.54 3.18,1.89 4.03,1.89 1.99,0 3.19,-1.74 3.19,-4.68 0,-2.94 -1.64,-8.67 -2.54,-10.56 -1.69,-3.49 -4.08,-5.13 -5.93,-5.13 l 0.05,-1.1 c 5.78,0 12.01,7.28 12.01,14.6 0,4.68 -2.84,7.97 -6.63,7.97 -2.49,0 -4.88,-1.8 -6.52,-3.74 -0.5,2.69 -2.64,3.74 -4.49,3.74 -2.29,0 -3.23,-1.95 -3.68,-2.84 -0.9,-1.7 -1.55,-4.68 -1.55,-4.83 0,-0.5 0.5,-0.5 0.6,-0.5 0.5,0 0.55,0.05 0.85,1.14 0.85,3.54 1.84,5.93 3.63,5.93 0.85,0 1.55,-0.4 1.55,-2.29 0,-1.15 -0.15,-1.69 -0.35,-2.54 z"
           id="path2948"
           style="fill:#000000;stroke-width:0" /><path
           d="m 540.4,418.45 -0.01,0.37 0,0.39 -0.01,0.39 -0.01,0.41 -0.04,0.84 -0.06,0.88 -0.09,0.92 -0.1,0.94 -0.14,0.98 -0.16,1 -0.2,1.02 -0.23,1.04 -0.27,1.05 -0.3,1.06 -0.35,1.06 -0.39,1.07 -0.22,0.53 -0.22,0.54 -0.24,0.53 -0.25,0.53 c -2.99,6.12 -7.27,9.36 -7.77,9.36 -0.3,0 -0.5,-0.2 -0.5,-0.5 0,-0.15 0,-0.25 0.94,-1.15 4.89,-4.92 7.73,-12.85 7.73,-23.26 0,-8.52 -1.85,-17.28 -8.02,-23.56 -0.65,-0.6 -0.65,-0.69 -0.65,-0.85 0,-0.29 0.2,-0.49 0.5,-0.49 0.5,0 4.98,3.38 7.92,9.71 2.54,5.48 3.14,11.01 3.14,15.19 z"
           id="path2950"
           style="fill:#000000;stroke-width:0" /></g>    </g>
    <g
       id="g3028"
       transform="matrix(0.45867419,0,0,0.45867419,-11.725986,354.8829)">
      <g
         word-spacing="normal"
         letter-spacing="normal"
         font-size-adjust="none"
         font-stretch="normal"
         font-weight="normal"
         font-variant="normal"
         font-style="normal"
         fill-rule="even-odd"
         stroke-miterlimit="10.433"
         xml:space="preserve"
         transform="matrix(1.0629921,0,0,-1.0629921,-186.02362,789.27165)"
         id="g3030"
         style="font-style:normal;font-variant:normal;font-weight:normal;font-stretch:normal;letter-spacing:normal;word-spacing:normal;text-anchor:start;fill:none;stroke:#000000;stroke-width:2.18019676;stroke-linecap:butt;stroke-linejoin:miter;stroke-miterlimit:10.43299961;stroke-opacity:1;stroke-dasharray:none;stroke-dashoffset:0"><path
           id="path3032"
           d="m 481.36,426.12 -0.01,0.02 -0.01,0.02 0,0.01 -0.01,0.02 -0.01,0.02 -0.01,0.02 -0.01,0.02 -0.01,0.03 0,0.02 -0.02,0.02 -0.01,0.03 -0.01,0.02 -0.02,0.05 -0.02,0.05 -0.02,0.05 -0.02,0.05 -0.01,0.03 -0.01,0.02 -0.01,0.03 0,0.02 -0.01,0.02 -0.01,0.02 0,0.02 -0.01,0.02 0,0.02 0,0.02 0,0.02 0,0.01 c 0,0.05 0.89,0.75 1.44,1.15 l 8.72,6.72 c 4.68,3.44 6.62,3.64 8.12,3.79 0.4,0.05 0.9,0.1 0.9,0.99 0,0.2 -0.16,0.55 -0.56,0.55 h -9.06 c -0.35,0 -0.95,0 -0.95,-0.99 0,-0.35 0.25,-0.5 0.6,-0.55 1.1,-0.1 1.55,-0.35 1.55,-1.05 0,-0.89 -1.5,-2.04 -1.8,-2.29 l -19.43,-14.94 3.99,15.99 c 0.45,1.79 0.55,2.29 4.18,2.29 1.25,0 1.7,0 1.7,0.99 0,0.45 -0.4,0.55 -0.7,0.55 h -12.8 c -0.35,0 -1,0 -1,-0.95 0,-0.59 0.45,-0.59 1.45,-0.59 0.65,0 1.54,-0.05 2.14,-0.1 0.79,-0.1 1.1,-0.25 1.1,-0.8 0,-0.2 -0.06,-0.35 -0.2,-0.94 l -6.68,-26.75 c -0.5,-1.95 -0.6,-2.35 -4.53,-2.35 -0.85,0 -1.4,0 -1.4,-0.94 0,-0.6 0.6,-0.6 0.75,-0.6 1.4,0 4.93,0.15 6.32,0.15 1.05,0 2.15,-0.05 3.2,-0.05 1.09,0 2.19,-0.1 3.23,-0.1 0.35,0 1,0 1,1 0,0.54 -0.45,0.54 -1.4,0.54 -1.84,0 -3.23,0 -3.23,0.9 0,0.35 0.29,1.45 0.44,2.19 0.7,2.59 1.35,5.23 2,7.82 l 7.42,5.78 5.78,-13.4 c 0.6,-1.34 0.6,-1.44 0.6,-1.74 0,-1.5 -2.15,-1.55 -2.59,-1.55 -0.55,0 -1.1,0 -1.1,-0.99 0,-0.55 0.6,-0.55 0.7,-0.55 h 10.95 c 0.25,0 0.9,0 0.9,1 0,0.54 -0.55,0.54 -0.99,0.54 -2.05,0.05 -2.69,0.5 -3.44,2.25 z"
           style="fill:#000000;stroke-width:0" /><path
           id="path3034"
           d="m 509.68,421.18 0,0.04 0,0.04 0,0.04 0,0.04 0,0.04 0,0.04 0,0.03 0,0.04 -0.01,0.03 0,0.03 0,0.04 0,0.03 -0.01,0.02 0,0.03 0,0.03 -0.01,0.03 0,0.02 0,0.02 -0.02,0.05 -0.01,0.04 -0.01,0.04 -0.02,0.03 -0.02,0.03 -0.02,0.03 -0.03,0.03 -0.02,0.02 -0.03,0.02 -0.04,0.02 -0.03,0.01 -0.04,0.01 -0.05,0.02 -0.05,0 -0.02,0.01 -0.03,0 -0.03,0.01 -0.02,0 -0.03,0 -0.03,0 -0.04,0 -0.03,0.01 -0.03,0 -0.04,0 -0.03,0 -0.04,0 -0.04,0 -0.04,0 -0.04,0 -0.04,0 -0.05,0 -0.04,0 c -2.24,-2.19 -5.41,-2.23 -6.84,-2.23 v -1.25 c 0.84,0 3.14,0 5.06,0.97 v -17.78 c 0,-1.15 0,-1.61 -3.49,-1.61 h -1.33 V 399 h 12.45 v 1.25 h -1.32 c -3.49,0 -3.49,0.46 -3.49,1.61 z"
           style="fill:#000000;stroke-width:0" /></g>    </g>
    <g
       id="g3120"
       transform="matrix(0.45867419,0,0,0.45867419,108.00098,354.8829)">
      <g
         id="g3122"
         transform="matrix(1.0629921,0,0,-1.0629921,-186.02362,789.27165)"
         xml:space="preserve"
         stroke-miterlimit="10.433"
         fill-rule="even-odd"
         font-style="normal"
         font-variant="normal"
         font-weight="normal"
         font-stretch="normal"
         font-size-adjust="none"
         letter-spacing="normal"
         word-spacing="normal"
         style="font-style:normal;font-variant:normal;font-weight:normal;font-stretch:normal;letter-spacing:normal;word-spacing:normal;text-anchor:start;fill:none;stroke:#000000;stroke-width:2.18019676;stroke-linecap:butt;stroke-linejoin:miter;stroke-miterlimit:10.43299961;stroke-opacity:1;stroke-dasharray:none;stroke-dashoffset:0"><path
           d="m 481.36,426.12 -0.01,0.02 -0.01,0.02 0,0.01 -0.01,0.02 -0.01,0.02 -0.01,0.02 -0.01,0.02 -0.01,0.03 0,0.02 -0.02,0.02 -0.01,0.03 -0.01,0.02 -0.02,0.05 -0.02,0.05 -0.02,0.05 -0.02,0.05 -0.01,0.03 -0.01,0.02 -0.01,0.03 0,0.02 -0.01,0.02 -0.01,0.02 0,0.02 -0.01,0.02 0,0.02 0,0.02 0,0.02 0,0.01 c 0,0.05 0.89,0.75 1.44,1.15 l 8.72,6.72 c 4.68,3.44 6.62,3.64 8.12,3.79 0.4,0.05 0.9,0.1 0.9,0.99 0,0.2 -0.16,0.55 -0.56,0.55 h -9.06 c -0.35,0 -0.95,0 -0.95,-0.99 0,-0.35 0.25,-0.5 0.6,-0.55 1.1,-0.1 1.55,-0.35 1.55,-1.05 0,-0.89 -1.5,-2.04 -1.8,-2.29 l -19.43,-14.94 3.99,15.99 c 0.45,1.79 0.55,2.29 4.18,2.29 1.25,0 1.7,0 1.7,0.99 0,0.45 -0.4,0.55 -0.7,0.55 h -12.8 c -0.35,0 -1,0 -1,-0.95 0,-0.59 0.45,-0.59 1.45,-0.59 0.65,0 1.54,-0.05 2.14,-0.1 0.79,-0.1 1.1,-0.25 1.1,-0.8 0,-0.2 -0.06,-0.35 -0.2,-0.94 l -6.68,-26.75 c -0.5,-1.95 -0.6,-2.35 -4.53,-2.35 -0.85,0 -1.4,0 -1.4,-0.94 0,-0.6 0.6,-0.6 0.75,-0.6 1.4,0 4.93,0.15 6.32,0.15 1.05,0 2.15,-0.05 3.2,-0.05 1.09,0 2.19,-0.1 3.23,-0.1 0.35,0 1,0 1,1 0,0.54 -0.45,0.54 -1.4,0.54 -1.84,0 -3.23,0 -3.23,0.9 0,0.35 0.29,1.45 0.44,2.19 0.7,2.59 1.35,5.23 2,7.82 l 7.42,5.78 5.78,-13.4 c 0.6,-1.34 0.6,-1.44 0.6,-1.74 0,-1.5 -2.15,-1.55 -2.59,-1.55 -0.55,0 -1.1,0 -1.1,-0.99 0,-0.55 0.6,-0.55 0.7,-0.55 h 10.95 c 0.25,0 0.9,0 0.9,1 0,0.54 -0.55,0.54 -0.99,0.54 -2.05,0.05 -2.69,0.5 -3.44,2.25 z"
           id="path3124"
           style="fill:#000000;stroke-width:0" /><path
           d="m 515.61,405.35 h -1.19 c -0.1,-0.77 -0.45,-2.83 -0.9,-3.18 -0.28,-0.21 -2.97,-0.21 -3.45,-0.21 h -6.42 c 3.66,3.25 4.88,4.22 6.97,5.86 2.58,2.06 4.99,4.22 4.99,7.54 0,4.21 -3.7,6.79 -8.16,6.79 -4.33,0 -7.25,-3.03 -7.25,-6.24 0,-1.78 1.5,-1.95 1.84,-1.95 0.84,0 1.85,0.59 1.85,1.85 0,0.62 -0.24,1.85 -2.05,1.85 1.08,2.47 3.45,3.24 5.09,3.24 3.48,0 5.3,-2.72 5.3,-5.54 0,-3.04 -2.16,-5.45 -3.28,-6.7 l -8.4,-8.3 c -0.35,-0.31 -0.35,-0.38 -0.35,-1.36 h 14.36 z"
           id="path3126"
           style="fill:#000000;stroke-width:0" /></g>    </g>
    <g
       id="g3220"
       transform="matrix(0.45097831,0,0,0.45097831,230.47699,357.35738)">
      <g
         word-spacing="normal"
         letter-spacing="normal"
         font-size-adjust="none"
         font-stretch="normal"
         font-weight="normal"
         font-variant="normal"
         font-style="normal"
         fill-rule="even-odd"
         stroke-miterlimit="10.433"
         xml:space="preserve"
         transform="matrix(1.0629921,0,0,-1.0629921,-186.02362,789.27165)"
         id="g3222"
         style="font-style:normal;font-variant:normal;font-weight:normal;font-stretch:normal;letter-spacing:normal;word-spacing:normal;text-anchor:start;fill:none;stroke:#000000;stroke-width:2.2174015;stroke-linecap:butt;stroke-linejoin:miter;stroke-miterlimit:10.43299961;stroke-opacity:1;stroke-dasharray:none;stroke-dashoffset:0"><path
           id="path3224"
           d="m 481.36,426.12 -0.01,0.02 -0.01,0.02 0,0.01 -0.01,0.02 -0.01,0.02 -0.01,0.02 -0.01,0.02 -0.01,0.03 0,0.02 -0.02,0.02 -0.01,0.03 -0.01,0.02 -0.02,0.05 -0.02,0.05 -0.02,0.05 -0.02,0.05 -0.01,0.03 -0.01,0.02 -0.01,0.03 0,0.02 -0.01,0.02 -0.01,0.02 0,0.02 -0.01,0.02 0,0.02 0,0.02 0,0.02 0,0.01 c 0,0.05 0.89,0.75 1.44,1.15 l 8.72,6.72 c 4.68,3.44 6.62,3.64 8.12,3.79 0.4,0.05 0.9,0.1 0.9,0.99 0,0.2 -0.16,0.55 -0.56,0.55 h -9.06 c -0.35,0 -0.95,0 -0.95,-0.99 0,-0.35 0.25,-0.5 0.6,-0.55 1.1,-0.1 1.55,-0.35 1.55,-1.05 0,-0.89 -1.5,-2.04 -1.8,-2.29 l -19.43,-14.94 3.99,15.99 c 0.45,1.79 0.55,2.29 4.18,2.29 1.25,0 1.7,0 1.7,0.99 0,0.45 -0.4,0.55 -0.7,0.55 h -12.8 c -0.35,0 -1,0 -1,-0.95 0,-0.59 0.45,-0.59 1.45,-0.59 0.65,0 1.54,-0.05 2.14,-0.1 0.79,-0.1 1.1,-0.25 1.1,-0.8 0,-0.2 -0.06,-0.35 -0.2,-0.94 l -6.68,-26.75 c -0.5,-1.95 -0.6,-2.35 -4.53,-2.35 -0.85,0 -1.4,0 -1.4,-0.94 0,-0.6 0.6,-0.6 0.75,-0.6 1.4,0 4.93,0.15 6.32,0.15 1.05,0 2.15,-0.05 3.2,-0.05 1.09,0 2.19,-0.1 3.23,-0.1 0.35,0 1,0 1,1 0,0.54 -0.45,0.54 -1.4,0.54 -1.84,0 -3.23,0 -3.23,0.9 0,0.35 0.29,1.45 0.44,2.19 0.7,2.59 1.35,5.23 2,7.82 l 7.42,5.78 5.78,-13.4 c 0.6,-1.34 0.6,-1.44 0.6,-1.74 0,-1.5 -2.15,-1.55 -2.59,-1.55 -0.55,0 -1.1,0 -1.1,-0.99 0,-0.55 0.6,-0.55 0.7,-0.55 h 10.95 c 0.25,0 0.9,0 0.9,1 0,0.54 -0.55,0.54 -0.99,0.54 -2.05,0.05 -2.69,0.5 -3.44,2.25 z"
           style="fill:#000000;stroke-width:0" /><path
           id="path3226"
           d="m 507.52,410.64 0.25,0 0.25,-0.02 0.24,-0.02 0.24,-0.04 0.23,-0.05 0.23,-0.06 0.22,-0.07 0.22,-0.09 0.21,-0.09 0.2,-0.11 0.19,-0.11 0.19,-0.13 0.18,-0.13 0.18,-0.15 0.17,-0.16 0.15,-0.17 0.16,-0.18 0.14,-0.2 0.13,-0.2 0.13,-0.21 0.12,-0.23 0.11,-0.23 0.09,-0.25 0.09,-0.26 0.08,-0.27 0.07,-0.28 0.06,-0.29 0.05,-0.3 0.04,-0.31 0.03,-0.32 0.02,-0.33 0,-0.35 c 0,-4.32 -2.51,-5.61 -4.53,-5.61 -1.39,0 -4.46,0.38 -5.93,2.44 1.64,0.07 2.02,1.22 2.02,1.95 0,1.12 -0.83,1.92 -1.91,1.92 -0.98,0 -1.96,-0.59 -1.96,-2.02 0,-3.28 3.63,-5.41 7.85,-5.41 4.84,0 8.19,3.25 8.19,6.73 0,2.72 -2.23,5.44 -6.06,6.24 3.66,1.33 4.98,3.94 4.98,6.07 0,2.76 -3.17,4.81 -7.04,4.81 -3.87,0 -6.84,-1.88 -6.84,-4.67 0,-1.18 0.77,-1.85 1.82,-1.85 1.08,0 1.77,0.8 1.77,1.78 0,1.01 -0.69,1.75 -1.77,1.81 1.22,1.54 3.62,1.92 4.92,1.92 1.56,0 3.76,-0.76 3.76,-3.8 0,-1.46 -0.49,-3.07 -1.39,-4.15 -1.16,-1.32 -2.13,-1.39 -3.87,-1.5 -0.88,-0.07 -0.95,-0.07 -1.12,-0.1 -0.07,0 -0.35,-0.07 -0.35,-0.46 0,-0.49 0.31,-0.49 0.91,-0.49 z"
           style="fill:#000000;stroke-width:0" /></g>    </g>
    <g
       id="g3576"
       transform="matrix(0.26218757,0,0,0.26218757,221.3028,408.22722)">
      <g
         id="g3578"
         transform="matrix(1.0629921,0,0,-1.0629921,-186.02362,789.27165)"
         xml:space="preserve"
         stroke-miterlimit="10.433"
         fill-rule="even-odd"
         font-style="normal"
         font-variant="normal"
         font-weight="normal"
         font-stretch="normal"
         font-size-adjust="none"
         letter-spacing="normal"
         word-spacing="normal"
         style="font-style:normal;font-variant:normal;font-weight:normal;font-stretch:normal;letter-spacing:normal;word-spacing:normal;text-anchor:start;fill:none;stroke:#000000;stroke-width:3.81406331;stroke-linecap:butt;stroke-linejoin:miter;stroke-miterlimit:10.43299961;stroke-opacity:1;stroke-dasharray:none;stroke-dashoffset:0"><path
           d="m 478.02,440.77 -0.04,0.06 -0.03,0.06 -0.03,0.05 -0.02,0.05 -0.03,0.06 -0.03,0.04 -0.03,0.05 -0.02,0.04 -0.03,0.05 -0.03,0.04 -0.02,0.03 -0.03,0.04 -0.03,0.03 -0.03,0.03 -0.03,0.03 -0.03,0.03 -0.04,0.03 -0.03,0.02 -0.04,0.02 -0.04,0.02 -0.04,0.02 -0.04,0.02 -0.05,0.02 -0.05,0.01 -0.05,0.01 -0.05,0.01 -0.06,0.01 -0.06,0.01 -0.07,0 -0.07,0.01 -0.07,0 -0.08,0 c -0.84,0 -0.94,-0.25 -1.29,-0.9 l -0.3,-4.09 13.4,-26.89 h -26.85 l 13.45,26.89 0.3,4.09 L 458.59,407 c -0.25,-0.45 -0.25,-0.55 -0.25,-0.6 0,-0.4 0.3,-0.4 1.1,-0.4 h 34.57 c 0.79,0 1.09,0 1.09,0.4 0,0.05 0,0.15 -0.24,0.6 z"
           id="path3580"
           style="fill:#000000;stroke-width:0" /><path
           d="m 529.13,440.62 0,0.02 0,0.01 0,0.02 -0.01,0.02 0,0.01 0,0.02 -0.01,0.02 0,0.02 -0.01,0.02 -0.01,0.02 -0.01,0.02 -0.01,0.02 -0.01,0.02 -0.01,0.02 -0.01,0.02 -0.02,0.02 -0.01,0.02 -0.02,0.02 -0.02,0.02 -0.02,0.02 -0.02,0.02 -0.02,0.01 -0.03,0.02 -0.02,0.01 -0.03,0.01 -0.02,0.01 -0.01,0 -0.02,0.01 -0.01,0 -0.02,0.01 -0.02,0 -0.01,0.01 -0.02,0 -0.02,0 -0.02,0 -0.02,0 -0.02,0.01 -0.02,0 -0.02,0 c -0.25,0 -0.3,-0.05 -0.9,-0.75 l -2.39,-2.84 c -1.29,2.34 -3.88,3.59 -7.12,3.59 -6.33,0 -12.3,-5.73 -12.3,-11.76 0,-4.03 2.64,-6.32 5.18,-7.07 l 5.33,-1.4 c 1.84,-0.44 4.58,-1.19 4.58,-5.28 0,-4.48 -4.08,-9.16 -8.97,-9.16 -3.19,0 -8.71,1.09 -8.71,7.27 0,1.2 0.25,2.39 0.29,2.69 0.05,0.2 0.11,0.25 0.11,0.35 0,0.5 -0.35,0.55 -0.6,0.55 -0.25,0 -0.35,-0.05 -0.5,-0.2 -0.2,-0.2 -2.99,-11.56 -2.99,-11.71 0,-0.3 0.25,-0.5 0.55,-0.5 0.25,0 0.3,0.05 0.9,0.75 l 2.44,2.84 c 2.14,-2.89 5.52,-3.59 8.41,-3.59 6.78,0 12.66,6.63 12.66,12.81 0,3.43 -1.7,5.13 -2.45,5.83 -1.14,1.14 -1.88,1.34 -6.32,2.48 -1.1,0.3 -2.89,0.8 -3.34,0.9 -1.34,0.45 -3.04,1.89 -3.04,4.53 0,4.04 3.99,8.27 8.72,8.27 4.13,0 7.17,-2.14 7.17,-7.72 0,-1.59 -0.2,-2.49 -0.2,-2.79 0,-0.05 0,-0.5 0.6,-0.5 0.5,0 0.55,0.15 0.75,1 z"
           id="path3582"
           style="fill:#000000;stroke-width:0" /><path
           d="m 547.49,394.04 0,0.03 0,0.03 -0.01,0.01 0,0.02 0,0.01 -0.01,0.02 0,0.02 -0.01,0.01 -0.01,0.02 -0.01,0.02 -0.01,0.03 -0.01,0.02 -0.02,0.02 -0.02,0.03 -0.02,0.03 -0.02,0.03 -0.03,0.03 -0.03,0.04 -0.01,0.02 -0.02,0.02 -0.02,0.02 -0.02,0.02 -0.02,0.02 -0.02,0.03 -0.02,0.02 -0.02,0.02 -0.02,0.03 -0.03,0.02 -0.02,0.03 -0.03,0.03 -0.02,0.03 -0.03,0.03 -0.03,0.03 -0.03,0.03 -0.03,0.03 -0.03,0.03 -0.04,0.04 -0.03,0.03 -0.04,0.04 -0.03,0.03 -0.04,0.04 -0.04,0.04 c -6.23,6.28 -7.82,15.69 -7.82,23.31 0,8.67 1.9,17.34 8.02,23.57 0.65,0.59 0.65,0.69 0.65,0.84 0,0.35 -0.2,0.5 -0.5,0.5 -0.5,0 -4.98,-3.39 -7.92,-9.72 -2.54,-5.47 -3.14,-11 -3.14,-15.19 0,-3.88 0.55,-9.91 3.29,-15.54 2.99,-6.12 7.27,-9.36 7.77,-9.36 0.3,0 0.5,0.15 0.5,0.49 z"
           id="path3584"
           style="fill:#000000;stroke-width:0" /><path
           d="m 552.24,399.92 -0.03,-0.15 -0.04,-0.15 -0.03,-0.14 -0.04,-0.13 -0.03,-0.13 -0.04,-0.11 -0.03,-0.12 -0.04,-0.1 -0.04,-0.1 -0.04,-0.09 -0.04,-0.09 -0.05,-0.08 -0.05,-0.07 -0.05,-0.07 -0.06,-0.07 -0.06,-0.05 -0.07,-0.06 -0.07,-0.05 -0.08,-0.04 -0.09,-0.04 -0.09,-0.04 -0.1,-0.03 -0.11,-0.03 -0.12,-0.02 -0.13,-0.02 -0.13,-0.02 -0.07,0 -0.08,-0.01 -0.07,-0.01 -0.08,0 -0.08,-0.01 -0.09,0 -0.08,0 -0.09,-0.01 -0.09,0 -0.1,0 -0.1,0 -0.1,0 c -0.6,0 -1.14,0 -1.14,-0.95 0,-0.39 0.25,-0.59 0.64,-0.59 h 9.12 c 0.25,0 0.9,0 0.9,0.99 0,0.55 -0.5,0.55 -1.2,0.55 -2.49,0 -2.49,0.35 -2.49,0.8 0,0.59 2.09,8.71 2.44,9.96 0.65,-1.44 2.04,-3.19 4.58,-3.19 l -0.05,1.1 c -3.28,0 -3.93,4.13 -3.93,4.43 0,0.1 0,0.2 0.15,0.8 l 2.44,9.76 c 0.34,1.35 1.69,2.74 2.59,3.49 1.74,1.54 3.18,1.89 4.03,1.89 1.99,0 3.19,-1.74 3.19,-4.68 0,-2.94 -1.64,-8.67 -2.54,-10.56 -1.69,-3.49 -4.08,-5.13 -5.93,-5.13 l 0.05,-1.1 c 5.78,0 12.01,7.28 12.01,14.6 0,4.68 -2.84,7.97 -6.63,7.97 -2.49,0 -4.88,-1.8 -6.52,-3.74 -0.5,2.69 -2.64,3.74 -4.49,3.74 -2.29,0 -3.24,-1.95 -3.68,-2.84 -0.9,-1.7 -1.55,-4.68 -1.55,-4.83 0,-0.5 0.5,-0.5 0.6,-0.5 0.5,0 0.55,0.05 0.85,1.14 0.85,3.54 1.84,5.93 3.63,5.93 0.85,0 1.55,-0.4 1.55,-2.29 0,-1.15 -0.15,-1.69 -0.35,-2.54 z"
           id="path3586"
           style="fill:#000000;stroke-width:0" /><path
           d="m 589.4,418.45 -0.01,0.37 0,0.39 -0.01,0.39 -0.01,0.41 -0.04,0.84 -0.06,0.88 -0.09,0.92 -0.1,0.94 -0.14,0.98 -0.16,1 -0.2,1.02 -0.23,1.04 -0.27,1.05 -0.3,1.06 -0.35,1.06 -0.39,1.07 -0.22,0.53 -0.22,0.54 -0.24,0.53 -0.25,0.53 c -2.99,6.12 -7.27,9.36 -7.77,9.36 -0.3,0 -0.5,-0.2 -0.5,-0.5 0,-0.15 0,-0.25 0.94,-1.15 4.89,-4.92 7.73,-12.85 7.73,-23.26 0,-8.52 -1.85,-17.28 -8.02,-23.56 -0.65,-0.6 -0.65,-0.69 -0.65,-0.85 0,-0.29 0.2,-0.49 0.5,-0.49 0.5,0 4.98,3.38 7.92,9.71 2.54,5.48 3.14,11.01 3.14,15.19 z"
           id="path3588"
           style="fill:#000000;stroke-width:0" /></g>    </g>
    <g
       id="g3724"
       transform="matrix(0.37773168,0,0,0.37773168,68.752462,366.03052)">
      <g
         word-spacing="normal"
         letter-spacing="normal"
         font-size-adjust="none"
         font-stretch="normal"
         font-weight="normal"
         font-variant="normal"
         font-style="normal"
         fill-rule="even-odd"
         stroke-miterlimit="10.433"
         xml:space="preserve"
         transform="matrix(1.0629921,0,0,-1.0629921,-186.02362,789.27165)"
         id="g3726"
         style="font-style:normal;font-variant:normal;font-weight:normal;font-stretch:normal;letter-spacing:normal;word-spacing:normal;text-anchor:start;fill:none;stroke:#000000;stroke-width:2.64738178;stroke-linecap:butt;stroke-linejoin:miter;stroke-miterlimit:10.43299961;stroke-opacity:1;stroke-dasharray:none;stroke-dashoffset:0"><path
           id="path3728"
           d="m 491.91,422.89 -0.02,0.94 -0.06,0.94 -0.11,0.91 -0.15,0.91 -0.18,0.88 -0.23,0.87 -0.26,0.85 -0.3,0.83 -0.34,0.81 -0.37,0.79 -0.4,0.76 -0.43,0.74 -0.47,0.71 -0.49,0.69 -0.53,0.66 -0.55,0.63 -0.58,0.6 -0.6,0.57 -0.63,0.54 -0.65,0.51 -0.67,0.47 -0.7,0.44 -0.71,0.39 -0.74,0.37 -0.75,0.32 -0.76,0.29 -0.79,0.24 -0.8,0.2 -0.81,0.16 -0.82,0.11 -0.84,0.07 -0.84,0.03 v -1.1 c 5.03,0 11.75,-4.53 11.75,-17.13 0,-12.71 -7.02,-16.84 -11.7,-16.84 h 0 c -4.93,0 -11.76,4.28 -11.76,16.84 0,12.8 6.93,17.13 11.71,17.13 v 1.1 c -8.92,0 -16.54,-7.97 -16.54,-18.23 0,-10.21 7.67,-17.99 16.54,-17.99 9.06,0 16.58,7.92 16.58,17.99 z"
           style="fill:#000000;stroke-width:0" /><polygon
           id="polygon3730"
           points="467.71,421.14 483,421.14 483,419.45 484.24,419.45 484.24,426.62 483,426.62 483,424.93 467.71,424.93 467.71,426.62 466.46,426.62 466.46,419.45 467.71,419.45 "
           style="fill:#000000;stroke-width:0" /><path
           id="path3732"
           d="m 510.49,394.04 0,0.03 0,0.03 -0.01,0.01 0,0.02 0,0.01 -0.01,0.02 0,0.02 -0.01,0.01 -0.01,0.02 -0.01,0.02 -0.01,0.03 -0.01,0.02 -0.02,0.02 -0.02,0.03 -0.02,0.03 -0.02,0.03 -0.03,0.03 -0.03,0.04 -0.01,0.02 -0.02,0.02 -0.02,0.02 -0.02,0.02 -0.02,0.02 -0.02,0.03 -0.02,0.02 -0.02,0.02 -0.02,0.03 -0.03,0.02 -0.02,0.03 -0.03,0.03 -0.02,0.03 -0.03,0.03 -0.03,0.03 -0.03,0.03 -0.03,0.03 -0.03,0.03 -0.04,0.04 -0.03,0.03 -0.04,0.04 -0.03,0.03 -0.04,0.04 -0.04,0.04 c -6.23,6.28 -7.82,15.69 -7.82,23.31 0,8.67 1.89,17.34 8.02,23.57 0.65,0.59 0.65,0.69 0.65,0.84 0,0.35 -0.2,0.5 -0.5,0.5 -0.5,0 -4.98,-3.39 -7.92,-9.72 -2.54,-5.47 -3.14,-11 -3.14,-15.19 0,-3.88 0.55,-9.91 3.29,-15.54 2.99,-6.12 7.27,-9.36 7.77,-9.36 0.3,0 0.5,0.15 0.5,0.49 z"
           style="fill:#000000;stroke-width:0" /><path
           id="path3734"
           d="m 516.24,399.92 -0.03,-0.15 -0.04,-0.15 -0.03,-0.14 -0.04,-0.13 -0.03,-0.13 -0.04,-0.11 -0.03,-0.12 -0.04,-0.1 -0.04,-0.1 -0.04,-0.09 -0.04,-0.09 -0.05,-0.08 -0.05,-0.07 -0.05,-0.07 -0.06,-0.07 -0.06,-0.05 -0.07,-0.06 -0.07,-0.05 -0.08,-0.04 -0.09,-0.04 -0.09,-0.04 -0.1,-0.03 -0.11,-0.03 -0.12,-0.02 -0.13,-0.02 -0.13,-0.02 -0.07,0 -0.08,-0.01 -0.07,-0.01 -0.08,0 -0.08,-0.01 -0.09,0 -0.08,0 -0.09,-0.01 -0.09,0 -0.1,0 -0.1,0 -0.1,0 c -0.6,0 -1.14,0 -1.14,-0.95 0,-0.39 0.25,-0.59 0.64,-0.59 h 9.12 c 0.25,0 0.9,0 0.9,0.99 0,0.55 -0.5,0.55 -1.2,0.55 -2.49,0 -2.49,0.35 -2.49,0.8 0,0.59 2.09,8.71 2.44,9.96 0.65,-1.44 2.04,-3.19 4.58,-3.19 l -0.05,1.1 c -3.28,0 -3.93,4.13 -3.93,4.43 0,0.1 0,0.2 0.15,0.8 l 2.44,9.76 c 0.34,1.35 1.69,2.74 2.59,3.49 1.74,1.54 3.18,1.89 4.03,1.89 1.99,0 3.19,-1.74 3.19,-4.68 0,-2.94 -1.64,-8.67 -2.54,-10.56 -1.69,-3.49 -4.08,-5.13 -5.93,-5.13 l 0.05,-1.1 c 5.78,0 12.01,7.28 12.01,14.6 0,4.68 -2.84,7.97 -6.63,7.97 -2.49,0 -4.88,-1.8 -6.52,-3.74 -0.5,2.69 -2.64,3.74 -4.49,3.74 -2.29,0 -3.24,-1.95 -3.68,-2.84 -0.9,-1.7 -1.55,-4.68 -1.55,-4.83 0,-0.5 0.5,-0.5 0.6,-0.5 0.5,0 0.55,0.05 0.85,1.14 0.85,3.54 1.84,5.93 3.63,5.93 0.85,0 1.55,-0.4 1.55,-2.29 0,-1.15 -0.15,-1.69 -0.35,-2.54 z"
           style="fill:#000000;stroke-width:0" /><path
           id="path3736"
           d="m 553.4,418.45 -0.01,0.37 0,0.39 -0.01,0.39 -0.01,0.41 -0.04,0.84 -0.06,0.88 -0.09,0.92 -0.1,0.94 -0.14,0.98 -0.16,1 -0.2,1.02 -0.23,1.04 -0.27,1.05 -0.3,1.06 -0.35,1.06 -0.39,1.07 -0.22,0.53 -0.22,0.54 -0.24,0.53 -0.25,0.53 c -2.99,6.12 -7.27,9.36 -7.77,9.36 -0.3,0 -0.5,-0.2 -0.5,-0.5 0,-0.15 0,-0.25 0.94,-1.15 4.89,-4.92 7.73,-12.85 7.73,-23.26 0,-8.52 -1.85,-17.28 -8.02,-23.56 -0.65,-0.6 -0.65,-0.69 -0.65,-0.85 0,-0.29 0.2,-0.49 0.5,-0.49 0.5,0 4.98,3.38 7.92,9.71 2.54,5.48 3.14,11.01 3.14,15.19 z"
           style="fill:#000000;stroke-width:0" /></g>    </g>
    <g
       id="g4078"
       transform="matrix(0.37773169,0,0,0.37773169,550.16463,364.58864)">
      <g
         word-spacing="normal"
         letter-spacing="normal"
         font-size-adjust="none"
         font-stretch="normal"
         font-weight="normal"
         font-variant="normal"
         font-style="normal"
         fill-rule="even-odd"
         stroke-miterlimit="10.433"
         xml:space="preserve"
         transform="matrix(1.0629921,0,0,-1.0629921,-186.02362,789.27165)"
         id="g4080"
         style="font-style:normal;font-variant:normal;font-weight:normal;font-stretch:normal;letter-spacing:normal;word-spacing:normal;text-anchor:start;fill:none;stroke:#000000;stroke-width:2.64738178;stroke-linecap:butt;stroke-linejoin:miter;stroke-miterlimit:10.43299961;stroke-opacity:1;stroke-dasharray:none;stroke-dashoffset:0"><path
           id="path4082"
           d="m 491.87,438.83 0.01,0.04 0.01,0.03 0.01,0.04 0.01,0.05 0.01,0.04 0.01,0.04 0.02,0.05 0.01,0.04 0.01,0.05 0.01,0.05 0.01,0.05 0.01,0.05 0.01,0.05 0,0.03 0,0.02 0,0.03 0,0.03 0.01,0.03 0,0.02 c 0,0.45 -0.25,0.45 -1.25,0.45 h -21.02 c -1.2,0 -1.25,-0.05 -1.55,-0.99 l -2.74,-8.97 c -0.1,-0.25 -0.14,-0.6 -0.14,-0.7 0,-0.05 0,-0.55 0.59,-0.55 0.45,0 0.55,0.35 0.65,0.5 1.89,5.88 4.48,9.17 12.25,9.17 h 8.12 l -27.84,-31.14 c 0,-0.04 -0.2,-0.74 -0.2,-0.89 0,-0.45 0.35,-0.45 1.24,-0.45 h 21.67 c 1.2,0 1.25,0.05 1.55,1 l 3.53,11 c 0.05,0.2 0.2,0.55 0.2,0.75 0,0.25 -0.2,0.55 -0.64,0.55 -0.45,0 -0.5,-0.2 -0.85,-1.25 -2.19,-6.77 -4.58,-10.35 -13.05,-10.35 h -8.52 z"
           style="fill:#000000;stroke-width:0" /><path
           id="path4084"
           d="m 509.49,394.04 0,0.03 0,0.03 -0.01,0.01 0,0.02 0,0.01 -0.01,0.02 0,0.02 -0.01,0.01 -0.01,0.02 -0.01,0.02 -0.01,0.03 -0.01,0.02 -0.02,0.02 -0.02,0.03 -0.02,0.03 -0.02,0.03 -0.03,0.03 -0.03,0.04 -0.01,0.02 -0.02,0.02 -0.02,0.02 -0.02,0.02 -0.02,0.02 -0.02,0.03 -0.02,0.02 -0.02,0.02 -0.02,0.03 -0.03,0.02 -0.02,0.03 -0.03,0.03 -0.02,0.03 -0.03,0.03 -0.03,0.03 -0.03,0.03 -0.03,0.03 -0.03,0.03 -0.04,0.04 -0.03,0.03 -0.04,0.04 -0.03,0.03 -0.04,0.04 -0.04,0.04 c -6.23,6.28 -7.82,15.69 -7.82,23.31 0,8.67 1.89,17.34 8.02,23.57 0.65,0.59 0.65,0.69 0.65,0.84 0,0.35 -0.2,0.5 -0.5,0.5 -0.5,0 -4.98,-3.39 -7.92,-9.72 -2.54,-5.47 -3.14,-11 -3.14,-15.19 0,-3.88 0.55,-9.91 3.29,-15.54 2.99,-6.12 7.27,-9.36 7.77,-9.36 0.3,0 0.5,0.15 0.5,0.49 z"
           style="fill:#000000;stroke-width:0" /><path
           id="path4086"
           d="m 514.24,399.92 -0.03,-0.15 -0.04,-0.15 -0.03,-0.14 -0.04,-0.13 -0.03,-0.13 -0.04,-0.11 -0.03,-0.12 -0.04,-0.1 -0.04,-0.1 -0.04,-0.09 -0.04,-0.09 -0.05,-0.08 -0.05,-0.07 -0.05,-0.07 -0.06,-0.07 -0.06,-0.05 -0.07,-0.06 -0.07,-0.05 -0.08,-0.04 -0.09,-0.04 -0.09,-0.04 -0.1,-0.03 -0.11,-0.03 -0.12,-0.02 -0.13,-0.02 -0.13,-0.02 -0.07,0 -0.08,-0.01 -0.07,-0.01 -0.08,0 -0.08,-0.01 -0.09,0 -0.08,0 -0.09,-0.01 -0.09,0 -0.1,0 -0.1,0 -0.1,0 c -0.6,0 -1.14,0 -1.14,-0.95 0,-0.39 0.25,-0.59 0.64,-0.59 h 9.12 c 0.25,0 0.9,0 0.9,0.99 0,0.55 -0.5,0.55 -1.2,0.55 -2.49,0 -2.49,0.35 -2.49,0.8 0,0.59 2.09,8.71 2.44,9.96 0.65,-1.44 2.04,-3.19 4.58,-3.19 l -0.05,1.1 c -3.28,0 -3.93,4.13 -3.93,4.43 0,0.1 0,0.2 0.15,0.8 l 2.44,9.76 c 0.34,1.35 1.69,2.74 2.59,3.49 1.74,1.54 3.18,1.89 4.03,1.89 1.99,0 3.19,-1.74 3.19,-4.68 0,-2.94 -1.64,-8.67 -2.54,-10.56 -1.69,-3.49 -4.08,-5.13 -5.93,-5.13 l 0.05,-1.1 c 5.78,0 12.01,7.28 12.01,14.6 0,4.68 -2.84,7.97 -6.63,7.97 -2.49,0 -4.88,-1.8 -6.52,-3.74 -0.5,2.69 -2.64,3.74 -4.49,3.74 -2.29,0 -3.24,-1.95 -3.68,-2.84 -0.9,-1.7 -1.55,-4.68 -1.55,-4.83 0,-0.5 0.5,-0.5 0.6,-0.5 0.5,0 0.55,0.05 0.85,1.14 0.85,3.54 1.84,5.93 3.63,5.93 0.85,0 1.55,-0.4 1.55,-2.29 0,-1.15 -0.15,-1.69 -0.35,-2.54 z"
           style="fill:#000000;stroke-width:0" /><path
           id="path4088"
           d="m 551.4,418.45 -0.01,0.37 0,0.39 -0.01,0.39 -0.01,0.41 -0.04,0.84 -0.06,0.88 -0.09,0.92 -0.1,0.94 -0.14,0.98 -0.16,1 -0.2,1.02 -0.23,1.04 -0.27,1.05 -0.3,1.06 -0.35,1.06 -0.39,1.07 -0.22,0.53 -0.22,0.54 -0.24,0.53 -0.25,0.53 c -2.99,6.12 -7.27,9.36 -7.77,9.36 -0.3,0 -0.5,-0.2 -0.5,-0.5 0,-0.15 0,-0.25 0.94,-1.15 4.89,-4.92 7.73,-12.85 7.73,-23.26 0,-8.52 -1.85,-17.28 -8.02,-23.56 -0.65,-0.6 -0.65,-0.69 -0.65,-0.85 0,-0.29 0.2,-0.49 0.5,-0.49 0.5,0 4.98,3.38 7.92,9.71 2.54,5.48 3.14,11.01 3.14,15.19 z"
           style="fill:#000000;stroke-width:0" /></g>    </g>
    <g
       id="g4272"
       transform="matrix(0.37773169,0,0,0.37773169,669.88556,363.93816)">
      <g
         id="g4274"
         transform="matrix(1.0629921,0,0,-1.0629921,-186.02362,789.27165)"
         xml:space="preserve"
         stroke-miterlimit="10.433"
         fill-rule="even-odd"
         font-style="normal"
         font-variant="normal"
         font-weight="normal"
         font-stretch="normal"
         font-size-adjust="none"
         letter-spacing="normal"
         word-spacing="normal"
         style="font-style:normal;font-variant:normal;font-weight:normal;font-stretch:normal;letter-spacing:normal;word-spacing:normal;text-anchor:start;fill:none;stroke:#000000;stroke-width:2.64738178;stroke-linecap:butt;stroke-linejoin:miter;stroke-miterlimit:10.43299961;stroke-opacity:1;stroke-dasharray:none;stroke-dashoffset:0"><path
           d="m 471.09,421.74 0.2,1.3 3.39,13.55 c 0.45,1.74 0.55,1.89 2.69,1.89 h 4.78 c 4.14,0 6.78,-1.35 6.78,-4.78 0,-1.95 -1,-6.23 -2.94,-8.02 -2.49,-2.25 -5.48,-2.64 -7.67,-2.64 h -7.03 l -0.2,-1.3 h 8.47 c 7.08,0 14,5.18 14,10.76 0,3.84 -3.29,7.52 -9.81,7.52 h -16.14 c -0.95,0 -1.5,0 -1.5,-0.95 0,-0.59 0.45,-0.59 1.45,-0.59 0.64,0 1.54,-0.05 2.14,-0.1 0.8,-0.1 1.09,-0.25 1.09,-0.8 0,-0.2 -0.04,-0.35 -0.2,-0.94 l -6.67,-26.75 c -0.5,-1.95 -0.6,-2.35 -4.53,-2.35 -0.85,0 -1.4,0 -1.4,-0.94 0,-0.6 0.6,-0.6 0.75,-0.6 h 12.75 c 0.35,0 1,0 1,1 0,0.54 -0.45,0.54 -1.4,0.54 -1.84,0 -3.23,0 -3.23,0.9 0,0.3 0.1,0.55 0.14,0.85 z"
           id="path4276"
           style="fill:#000000;stroke-width:0" /><path
           d="m 498.91,422.15 0.01,0.01 0,0 0,0 0,0.01 0,0.01 0.01,0 0,0.01 0,0 0,0.02 0.01,0.02 0.01,0.02 0,0.01 0.01,0.02 0,0.03 0.01,0.02 0,0.02 0.01,0.02 0.01,0.03 0.01,0.04 0.01,0.05 0,0.03 0.01,0.02 0,0.02 0.01,0.02 0,0.02 0.01,0.02 0,0.02 0,0.01 0.01,0.01 0,0.01 0,0 0,0.01 0,0.01 0,0 0,0.01 0,0 0,0 0,0.01 0,0 0,0 c 0,0.18 -0.14,0.49 -0.55,0.49 -0.7,0 -3.6,-0.28 -4.47,-0.35 -0.28,-0.03 -0.76,-0.07 -0.76,-0.8 0,-0.49 0.48,-0.49 0.9,-0.49 1.67,0 1.67,-0.24 1.67,-0.52 0,-0.25 -0.06,-0.46 -0.13,-0.77 l -4.92,-19.73 c -0.18,-0.63 -0.18,-0.7 -0.18,-0.77 0,-0.53 0.43,-1.12 1.19,-1.12 0.38,0 1.05,0.17 1.43,0.91 0.11,0.21 0.42,1.46 0.59,2.19 l 0.8,3.11 c 0.11,0.52 0.46,1.85 0.56,2.37 0.35,1.32 0.35,1.36 1.05,2.47 1.11,1.71 2.86,3.7 5.58,3.7 1.95,0 2.06,-1.6 2.06,-2.44 0,-2.09 -1.5,-5.96 -2.06,-7.43 -0.38,-0.97 -0.52,-1.29 -0.52,-1.88 0,-1.85 1.53,-3 3.31,-3 3.49,0 5.02,4.81 5.02,5.33 0,0.46 -0.46,0.46 -0.56,0.46 -0.49,0 -0.52,-0.21 -0.66,-0.59 -0.8,-2.79 -2.34,-4.22 -3.7,-4.22 -0.73,0 -0.87,0.49 -0.87,1.22 0,0.8 0.17,1.25 0.8,2.82 0.42,1.08 1.85,4.78 1.85,6.73 0,0.56 0,2.03 -1.29,3.04 -0.59,0.45 -1.6,0.94 -3.24,0.94 -2.55,0 -4.4,-1.4 -5.68,-2.9 z"
           id="path4278"
           style="fill:#000000;stroke-width:0" /><path
           d="m 529.49,394.04 0,0.03 0,0.03 -0.01,0.01 0,0.02 0,0.01 -0.01,0.02 0,0.02 -0.01,0.01 -0.01,0.02 -0.01,0.02 -0.01,0.03 -0.01,0.02 -0.02,0.02 -0.02,0.03 -0.02,0.03 -0.02,0.03 -0.03,0.03 -0.03,0.04 -0.01,0.02 -0.02,0.02 -0.02,0.02 -0.02,0.02 -0.02,0.02 -0.02,0.03 -0.02,0.02 -0.02,0.02 -0.02,0.03 -0.03,0.02 -0.02,0.03 -0.03,0.03 -0.02,0.03 -0.03,0.03 -0.03,0.03 -0.03,0.03 -0.03,0.03 -0.03,0.03 -0.04,0.04 -0.03,0.03 -0.04,0.04 -0.03,0.03 -0.04,0.04 -0.04,0.04 c -6.23,6.28 -7.82,15.69 -7.82,23.31 0,8.67 1.9,17.34 8.02,23.57 0.65,0.59 0.65,0.69 0.65,0.84 0,0.35 -0.2,0.5 -0.5,0.5 -0.5,0 -4.98,-3.39 -7.92,-9.72 -2.54,-5.47 -3.14,-11 -3.14,-15.19 0,-3.88 0.55,-9.91 3.29,-15.54 2.99,-6.12 7.27,-9.36 7.77,-9.36 0.3,0 0.5,0.15 0.5,0.49 z"
           id="path4280"
           style="fill:#000000;stroke-width:0" /><path
           d="m 535.24,399.92 -0.03,-0.15 -0.04,-0.15 -0.03,-0.14 -0.04,-0.13 -0.03,-0.13 -0.04,-0.11 -0.03,-0.12 -0.04,-0.1 -0.04,-0.1 -0.04,-0.09 -0.04,-0.09 -0.05,-0.08 -0.05,-0.07 -0.05,-0.07 -0.06,-0.07 -0.06,-0.05 -0.07,-0.06 -0.07,-0.05 -0.08,-0.04 -0.09,-0.04 -0.09,-0.04 -0.1,-0.03 -0.11,-0.03 -0.12,-0.02 -0.13,-0.02 -0.13,-0.02 -0.07,0 -0.08,-0.01 -0.07,-0.01 -0.08,0 -0.08,-0.01 -0.09,0 -0.08,0 -0.09,-0.01 -0.09,0 -0.1,0 -0.1,0 -0.1,0 c -0.6,0 -1.14,0 -1.14,-0.95 0,-0.39 0.25,-0.59 0.64,-0.59 h 9.12 c 0.25,0 0.9,0 0.9,0.99 0,0.55 -0.5,0.55 -1.2,0.55 -2.49,0 -2.49,0.35 -2.49,0.8 0,0.59 2.09,8.71 2.44,9.96 0.65,-1.44 2.04,-3.19 4.58,-3.19 l -0.05,1.1 c -3.28,0 -3.93,4.13 -3.93,4.43 0,0.1 0,0.2 0.15,0.8 l 2.44,9.76 c 0.34,1.35 1.69,2.74 2.59,3.49 1.74,1.54 3.18,1.89 4.03,1.89 1.99,0 3.19,-1.74 3.19,-4.68 0,-2.94 -1.64,-8.67 -2.54,-10.56 -1.69,-3.49 -4.08,-5.13 -5.93,-5.13 l 0.05,-1.1 c 5.78,0 12.01,7.28 12.01,14.6 0,4.68 -2.84,7.97 -6.63,7.97 -2.49,0 -4.88,-1.8 -6.52,-3.74 -0.5,2.69 -2.64,3.74 -4.49,3.74 -2.29,0 -3.24,-1.95 -3.68,-2.84 -0.9,-1.7 -1.55,-4.68 -1.55,-4.83 0,-0.5 0.5,-0.5 0.6,-0.5 0.5,0 0.55,0.05 0.85,1.14 0.85,3.54 1.84,5.93 3.63,5.93 0.85,0 1.55,-0.4 1.55,-2.29 0,-1.15 -0.15,-1.69 -0.35,-2.54 z"
           id="path4282"
           style="fill:#000000;stroke-width:0" /><path
           d="m 572.4,418.45 -0.01,0.37 0,0.39 -0.01,0.39 -0.01,0.41 -0.04,0.84 -0.06,0.88 -0.09,0.92 -0.1,0.94 -0.14,0.98 -0.16,1 -0.2,1.02 -0.23,1.04 -0.27,1.05 -0.3,1.06 -0.35,1.06 -0.39,1.07 -0.22,0.53 -0.22,0.54 -0.24,0.53 -0.25,0.53 c -2.99,6.12 -7.27,9.36 -7.77,9.36 -0.3,0 -0.5,-0.2 -0.5,-0.5 0,-0.15 0,-0.25 0.94,-1.15 4.89,-4.92 7.73,-12.85 7.73,-23.26 0,-8.52 -1.85,-17.28 -8.02,-23.56 -0.65,-0.6 -0.65,-0.69 -0.65,-0.85 0,-0.29 0.2,-0.49 0.5,-0.49 0.5,0 4.98,3.38 7.92,9.71 2.54,5.48 3.14,11.01 3.14,15.19 z"
           id="path4284"
           style="fill:#000000;stroke-width:0" /></g>    </g>
    <g
       id="g4482"
       transform="matrix(0.29691606,0,0,0.29691606,333.60785,397.12409)">
      <g
         word-spacing="normal"
         letter-spacing="normal"
         font-size-adjust="none"
         font-stretch="normal"
         font-weight="normal"
         font-variant="normal"
         font-style="normal"
         fill-rule="even-odd"
         stroke-miterlimit="10.433"
         xml:space="preserve"
         transform="matrix(1.0629921,0,0,-1.0629921,-186.02362,789.27165)"
         id="g4484"
         style="font-style:normal;font-variant:normal;font-weight:normal;font-stretch:normal;letter-spacing:normal;word-spacing:normal;text-anchor:start;fill:none;stroke:#000000;stroke-width:3.36795521;stroke-linecap:butt;stroke-linejoin:miter;stroke-miterlimit:10.43299961;stroke-opacity:1;stroke-dasharray:none;stroke-dashoffset:0"><path
           id="path4486"
           d="m 478.02,440.77 -0.04,0.06 -0.03,0.06 -0.03,0.05 -0.02,0.05 -0.03,0.06 -0.03,0.04 -0.03,0.05 -0.02,0.04 -0.03,0.05 -0.03,0.04 -0.02,0.03 -0.03,0.04 -0.03,0.03 -0.03,0.03 -0.03,0.03 -0.03,0.03 -0.04,0.03 -0.03,0.02 -0.04,0.02 -0.04,0.02 -0.04,0.02 -0.04,0.02 -0.05,0.02 -0.05,0.01 -0.05,0.01 -0.05,0.01 -0.06,0.01 -0.06,0.01 -0.07,0 -0.07,0.01 -0.07,0 -0.08,0 c -0.84,0 -0.94,-0.25 -1.29,-0.9 l -0.3,-4.09 13.4,-26.89 h -26.85 l 13.45,26.89 0.3,4.09 L 458.59,407 c -0.25,-0.45 -0.25,-0.55 -0.25,-0.6 0,-0.4 0.3,-0.4 1.1,-0.4 h 34.57 c 0.79,0 1.09,0 1.09,0.4 0,0.05 0,0.15 -0.24,0.6 z"
           style="fill:#000000;stroke-width:0" /><path
           id="path4488"
           d="m 512.09,421.74 0.2,1.3 3.39,13.55 c 0.45,1.74 0.55,1.89 2.69,1.89 h 4.78 c 4.13,0 6.78,-1.35 6.78,-4.78 0,-1.95 -1,-6.23 -2.94,-8.02 -2.49,-2.25 -5.48,-2.64 -7.67,-2.64 h -7.03 l -0.2,-1.3 h 8.47 c 7.08,0 14,5.18 14,10.76 0,3.84 -3.29,7.52 -9.81,7.52 h -16.14 c -0.95,0 -1.5,0 -1.5,-0.95 0,-0.59 0.45,-0.59 1.45,-0.59 0.64,0 1.54,-0.05 2.14,-0.1 0.8,-0.1 1.09,-0.25 1.09,-0.8 0,-0.2 -0.04,-0.35 -0.2,-0.94 l -6.67,-26.75 c -0.5,-1.95 -0.6,-2.35 -4.53,-2.35 -0.85,0 -1.4,0 -1.4,-0.94 0,-0.6 0.6,-0.6 0.75,-0.6 h 12.75 c 0.35,0 1,0 1,1 0,0.54 -0.45,0.54 -1.4,0.54 -1.84,0 -3.23,0 -3.23,0.9 0,0.3 0.1,0.55 0.14,0.85 z"
           style="fill:#000000;stroke-width:0" /><path
           id="path4490"
           d="m 552.49,394.04 0,0.03 0,0.03 -0.01,0.01 0,0.02 0,0.01 -0.01,0.02 0,0.02 -0.01,0.01 -0.01,0.02 -0.01,0.02 -0.01,0.03 -0.01,0.02 -0.02,0.02 -0.02,0.03 -0.02,0.03 -0.02,0.03 -0.03,0.03 -0.03,0.04 -0.01,0.02 -0.02,0.02 -0.02,0.02 -0.02,0.02 -0.02,0.02 -0.02,0.03 -0.02,0.02 -0.02,0.02 -0.02,0.03 -0.03,0.02 -0.02,0.03 -0.03,0.03 -0.02,0.03 -0.03,0.03 -0.03,0.03 -0.03,0.03 -0.03,0.03 -0.03,0.03 -0.04,0.04 -0.03,0.03 -0.04,0.04 -0.03,0.03 -0.04,0.04 -0.04,0.04 c -6.23,6.28 -7.82,15.69 -7.82,23.31 0,8.67 1.9,17.34 8.02,23.57 0.65,0.59 0.65,0.69 0.65,0.84 0,0.35 -0.2,0.5 -0.5,0.5 -0.5,0 -4.98,-3.39 -7.92,-9.72 -2.54,-5.47 -3.14,-11 -3.14,-15.19 0,-3.88 0.55,-9.91 3.29,-15.54 2.99,-6.12 7.27,-9.36 7.77,-9.36 0.3,0 0.5,0.15 0.5,0.49 z"
           style="fill:#000000;stroke-width:0" /><path
           id="path4492"
           d="m 557.24,399.92 -0.03,-0.15 -0.04,-0.15 -0.03,-0.14 -0.04,-0.13 -0.03,-0.13 -0.04,-0.11 -0.03,-0.12 -0.04,-0.1 -0.04,-0.1 -0.04,-0.09 -0.04,-0.09 -0.05,-0.08 -0.05,-0.07 -0.05,-0.07 -0.06,-0.07 -0.06,-0.05 -0.07,-0.06 -0.07,-0.05 -0.08,-0.04 -0.09,-0.04 -0.09,-0.04 -0.1,-0.03 -0.11,-0.03 -0.12,-0.02 -0.13,-0.02 -0.13,-0.02 -0.07,0 -0.08,-0.01 -0.07,-0.01 -0.08,0 -0.08,-0.01 -0.09,0 -0.08,0 -0.09,-0.01 -0.09,0 -0.1,0 -0.1,0 -0.1,0 c -0.6,0 -1.14,0 -1.14,-0.95 0,-0.39 0.25,-0.59 0.64,-0.59 h 9.12 c 0.25,0 0.9,0 0.9,0.99 0,0.55 -0.5,0.55 -1.2,0.55 -2.49,0 -2.49,0.35 -2.49,0.8 0,0.59 2.09,8.71 2.44,9.96 0.65,-1.44 2.04,-3.19 4.58,-3.19 l -0.05,1.1 c -3.28,0 -3.93,4.13 -3.93,4.43 0,0.1 0,0.2 0.15,0.8 l 2.44,9.76 c 0.34,1.35 1.69,2.74 2.59,3.49 1.74,1.54 3.18,1.89 4.03,1.89 1.99,0 3.19,-1.74 3.19,-4.68 0,-2.94 -1.64,-8.67 -2.54,-10.56 -1.69,-3.49 -4.08,-5.13 -5.93,-5.13 l 0.05,-1.1 c 5.78,0 12.01,7.28 12.01,14.6 0,4.68 -2.84,7.97 -6.63,7.97 -2.49,0 -4.88,-1.8 -6.52,-3.74 -0.5,2.69 -2.64,3.74 -4.49,3.74 -2.29,0 -3.24,-1.95 -3.68,-2.84 -0.9,-1.7 -1.55,-4.68 -1.55,-4.83 0,-0.5 0.5,-0.5 0.6,-0.5 0.5,0 0.55,0.05 0.85,1.14 0.85,3.54 1.84,5.93 3.63,5.93 0.85,0 1.55,-0.4 1.55,-2.29 0,-1.15 -0.15,-1.69 -0.35,-2.54 z"
           style="fill:#000000;stroke-width:0" /><path
           id="path4494"
           d="m 594.4,418.45 -0.01,0.37 0,0.39 -0.01,0.39 -0.01,0.41 -0.04,0.84 -0.06,0.88 -0.09,0.92 -0.1,0.94 -0.14,0.98 -0.16,1 -0.2,1.02 -0.23,1.04 -0.27,1.05 -0.3,1.06 -0.35,1.06 -0.39,1.07 -0.22,0.53 -0.22,0.54 -0.24,0.53 -0.25,0.53 c -2.99,6.12 -7.27,9.36 -7.77,9.36 -0.3,0 -0.5,-0.2 -0.5,-0.5 0,-0.15 0,-0.25 0.94,-1.15 4.89,-4.92 7.73,-12.85 7.73,-23.26 0,-8.52 -1.85,-17.28 -8.02,-23.56 -0.65,-0.6 -0.65,-0.69 -0.65,-0.85 0,-0.29 0.2,-0.49 0.5,-0.49 0.5,0 4.98,3.38 7.92,9.71 2.54,5.48 3.14,11.01 3.14,15.19 z"
           style="fill:#000000;stroke-width:0" /></g>    </g>
    <rect
       style="fill:none;stroke:#000000;stroke-width:0.99999988;stroke-linecap:round;stroke-linejoin:round;stroke-miterlimit:4;stroke-opacity:1;stroke-dasharray:none;stroke-dashoffset:0"
       id="rect4600"
       width="60"
       height="40"
       x="110"
       y="492.36218" />
    <rect
       y="492.36218"
       x="230"
       height="40"
       width="60"
       id="rect4609"
       style="fill:none;stroke:#000000;stroke-width:0.99999988;stroke-linecap:round;stroke-linejoin:round;stroke-miterlimit:4;stroke-opacity:1;stroke-dasharray:none;stroke-dashoffset:0" />
    <rect
       style="fill:none;stroke:#000000;stroke-width:0.99999988;stroke-linecap:round;stroke-linejoin:round;stroke-miterlimit:4;stroke-opacity:1;stroke-dasharray:none;stroke-dashoffset:0"
       id="rect4611"
       width="60"
       height="40"
       x="350"
       y="492.36218" />
    <rect
       y="462.36218"
       x="470"
       height="100"
       width="180"
       id="rect4613"
       style="fill:none;stroke:#000000;stroke-width:0.99999988;stroke-linecap:round;stroke-linejoin:round;stroke-miterlimit:4;stroke-opacity:1;stroke-dasharray:none;stroke-dashoffset:0" />
    <g
       id="g4617">
      <g
         transform="matrix(0.45867419,0,0,0.45867419,587.7962,354.8829)"
         id="g3328">
        <g
           style="font-style:normal;font-variant:normal;font-weight:normal;font-stretch:normal;letter-spacing:normal;word-spacing:normal;text-anchor:start;fill:none;stroke:#000000;stroke-width:2.18019676;stroke-linecap:butt;stroke-linejoin:miter;stroke-miterlimit:10.43299961;stroke-opacity:1;stroke-dasharray:none;stroke-dashoffset:0"
           word-spacing="normal"
           letter-spacing="normal"
           font-size-adjust="none"
           font-stretch="normal"
           font-weight="normal"
           font-variant="normal"
           font-style="normal"
           fill-rule="even-odd"
           stroke-miterlimit="10.433"
           xml:space="preserve"
           transform="matrix(1.0629921,0,0,-1.0629921,-186.02362,789.27165)"
           id="g3330"><path
             style="fill:#000000;stroke-width:0"
             id="path3332"
             d="m 481.36,426.12 -0.01,0.02 -0.01,0.02 0,0.01 -0.01,0.02 -0.01,0.02 -0.01,0.02 -0.01,0.02 -0.01,0.03 0,0.02 -0.02,0.02 -0.01,0.03 -0.01,0.02 -0.02,0.05 -0.02,0.05 -0.02,0.05 -0.02,0.05 -0.01,0.03 -0.01,0.02 -0.01,0.03 0,0.02 -0.01,0.02 -0.01,0.02 0,0.02 -0.01,0.02 0,0.02 0,0.02 0,0.02 0,0.01 c 0,0.05 0.89,0.75 1.44,1.15 l 8.72,6.72 c 4.68,3.44 6.62,3.64 8.12,3.79 0.4,0.05 0.9,0.1 0.9,0.99 0,0.2 -0.16,0.55 -0.56,0.55 h -9.06 c -0.35,0 -0.95,0 -0.95,-0.99 0,-0.35 0.25,-0.5 0.6,-0.55 1.1,-0.1 1.55,-0.35 1.55,-1.05 0,-0.89 -1.5,-2.04 -1.8,-2.29 l -19.43,-14.94 3.99,15.99 c 0.45,1.79 0.55,2.29 4.18,2.29 1.25,0 1.7,0 1.7,0.99 0,0.45 -0.4,0.55 -0.7,0.55 h -12.8 c -0.35,0 -1,0 -1,-0.95 0,-0.59 0.45,-0.59 1.45,-0.59 0.65,0 1.54,-0.05 2.14,-0.1 0.79,-0.1 1.1,-0.25 1.1,-0.8 0,-0.2 -0.06,-0.35 -0.2,-0.94 l -6.68,-26.75 c -0.5,-1.95 -0.6,-2.35 -4.53,-2.35 -0.85,0 -1.4,0 -1.4,-0.94 0,-0.6 0.6,-0.6 0.75,-0.6 1.4,0 4.93,0.15 6.32,0.15 1.05,0 2.15,-0.05 3.2,-0.05 1.09,0 2.19,-0.1 3.23,-0.1 0.35,0 1,0 1,1 0,0.54 -0.45,0.54 -1.4,0.54 -1.84,0 -3.23,0 -3.23,0.9 0,0.35 0.29,1.45 0.44,2.19 0.7,2.59 1.35,5.23 2,7.82 l 7.42,5.78 5.78,-13.4 c 0.6,-1.34 0.6,-1.44 0.6,-1.74 0,-1.5 -2.15,-1.55 -2.59,-1.55 -0.55,0 -1.1,0 -1.1,-0.99 0,-0.55 0.6,-0.55 0.7,-0.55 h 10.95 c 0.25,0 0.9,0 0.9,1 0,0.54 -0.55,0.54 -0.99,0.54 -2.05,0.05 -2.69,0.5 -3.44,2.25 z" /><path
             style="fill:#000000;stroke-width:0"
             id="path3334"
             d="m 516.45,404.72 v 1.25 h -3.88 v 15.56 c 0,0.73 0,0.97 -0.76,0.97 -0.42,0 -0.56,0 -0.91,-0.49 l -11.54,-16.04 v -1.25 h 10.25 l 0.25,1.25 h -9.21 l 9.21,12.76 v -12.76 l -0.25,-1.25 v -2.86 c 0,-1.19 0,-1.61 -2.82,-1.61 h -0.95 V 399 h 10.5 v 1.25 h -0.94 c -2.83,0 -2.83,0.42 -2.83,1.61 v 2.86 z" /></g>      </g>
      <rect
         style="fill:none;stroke:#000000;stroke-width:0.99999988;stroke-linecap:round;stroke-linejoin:round;stroke-miterlimit:4;stroke-opacity:1;stroke-dasharray:none;stroke-dashoffset:0"
         id="rect4615"
         width="60"
         height="40"
         x="710"
         y="492.36218" />
    </g>
    <path
       style="fill:none;stroke:#000000;stroke-width:1px;stroke-linecap:butt;stroke-linejoin:miter;stroke-opacity:1;marker-end:url(#Arrow1Lend)"
       d="m 50,512.36218 60,0"
       id="path4624" />
    <path
       id="path5846"
       d="m 170,512.36218 60,0"
       style="fill:none;stroke:#000000;stroke-width:1px;stroke-linecap:butt;stroke-linejoin:miter;stroke-opacity:1;marker-end:url(#Arrow1Lend)" />
    <path
       style="fill:none;stroke:#000000;stroke-width:1px;stroke-linecap:butt;stroke-linejoin:miter;stroke-opacity:1;marker-end:url(#Arrow1Lend)"
       d="m 290,512.36218 60,0"
       id="path5848" />
    <path
       id="path5850"
       d="m 410,512.36218 60,0"
       style="fill:none;stroke:#000000;stroke-width:1px;stroke-linecap:butt;stroke-linejoin:miter;stroke-opacity:1;marker-end:url(#Arrow1Lend)" />
    <path
       style="fill:none;stroke:#000000;stroke-width:1px;stroke-linecap:butt;stroke-linejoin:miter;stroke-opacity:1;marker-end:url(#Arrow1Lend)"
       d="m 650,512.36218 60,0"
       id="path5852" />
    <path
       id="path5854"
       d="m 770,512.36218 60,0"
       style="fill:none;stroke:#000000;stroke-width:1px;stroke-linecap:butt;stroke-linejoin:miter;stroke-opacity:1;marker-end:url(#Arrow1Lend)" />
  </g>
</svg>
