<?xml version="1.0" encoding="UTF-8" standalone="no"?>
<!-- Created with Inkscape (http://www.inkscape.org/) -->

<svg
   xmlns:dc="http://purl.org/dc/elements/1.1/"
   xmlns:cc="http://creativecommons.org/ns#"
   xmlns:rdf="http://www.w3.org/1999/02/22-rdf-syntax-ns#"
   xmlns:svg="http://www.w3.org/2000/svg"
   xmlns="http://www.w3.org/2000/svg"
   xmlns:sodipodi="http://sodipodi.sourceforge.net/DTD/sodipodi-0.dtd"
   xmlns:inkscape="http://www.inkscape.org/namespaces/inkscape"
   width="210mm"
   height="297mm"
   id="svg4358"
   version="1.1"
   inkscape:version="0.47 r22583"
   sodipodi:docname="blocs.svg"
   inkscape:export-filename="/home/xabi/Enseignement/JulesHaag/PTSI/PTSI_2010_2011/DM_DS_Interros/DS/DS_3_Asservissements_FreinageA318/Corrige/png/blocs.png"
   inkscape:export-xdpi="300"
   inkscape:export-ydpi="300">
  <sodipodi:namedview
     id="base"
     pagecolor="#ffffff"
     bordercolor="#666666"
     borderopacity="1.0"
     inkscape:pageopacity="0.0"
     inkscape:pageshadow="2"
     inkscape:zoom="1.4"
     inkscape:cx="232.95786"
     inkscape:cy="837.87628"
     inkscape:document-units="px"
     inkscape:current-layer="layer1"
     showgrid="true"
     inkscape:window-width="1062"
     inkscape:window-height="881"
     inkscape:window-x="6"
     inkscape:window-y="65"
     inkscape:window-maximized="0">
    <inkscape:grid
       id="grid4368"
       type="xygrid" />
  </sodipodi:namedview>
  <defs
     id="defs4360">
    <marker
       style="overflow:visible;"
       id="Arrow1Lend"
       refX="0.0"
       refY="0.0"
       orient="auto"
       inkscape:stockid="Arrow1Lend">
      <path
         transform="scale(0.8) rotate(180) translate(12.5,0)"
         style="fill-rule:evenodd;stroke:#000000;stroke-width:1.0pt;marker-start:none;"
         d="M 0.0,0.0 L 5.0,-5.0 L -12.5,0.0 L 5.0,5.0 L 0.0,0.0 z "
         id="path3681" />
    </marker>
    <inkscape:perspective
       id="perspective4366"
       inkscape:persp3d-origin="372.04724 : 350.78739 : 1"
       inkscape:vp_z="744.09448 : 526.18109 : 1"
       inkscape:vp_y="0 : 1000 : 0"
       inkscape:vp_x="0 : 526.18109 : 1"
       sodipodi:type="inkscape:persp3d" />
  </defs>
  <metadata
     id="metadata4363">
    <rdf:RDF>
      <cc:Work
         rdf:about="">
        <dc:format>image/svg+xml</dc:format>
        <dc:type
           rdf:resource="http://purl.org/dc/dcmitype/StillImage" />
        <dc:title></dc:title>
      </cc:Work>
    </rdf:RDF>
  </metadata>
  <g
     id="layer1"
     inkscape:groupmode="layer"
     inkscape:label="Calque 1">
    <text
       id="text4382"
       y="127.53516"
       x="259.99509"
       style="font-size:14px;font-style:normal;font-variant:normal;font-weight:normal;font-stretch:normal;text-align:center;text-anchor:middle;fill:#000000;fill-opacity:1;stroke:none;font-family:TeXGyreAdventor;-inkscape-font-specification:TeXGyreAdventor"
       xml:space="preserve"><tspan
         y="127.53516"
         x="259.99509"
         id="tspan4384"
         sodipodi:role="line">BSCU</tspan></text>
    <text
       id="text4386"
       y="127.53518"
       x="440.12173"
       style="font-size:14px;font-style:normal;font-variant:normal;font-weight:normal;font-stretch:normal;text-align:center;text-anchor:middle;fill:#000000;fill-opacity:1;stroke:none;font-family:TeXGyreAdventor;-inkscape-font-specification:TeXGyreAdventor"
       xml:space="preserve"><tspan
         y="127.53518"
         x="440.12173"
         id="tspan4388"
         sodipodi:role="line">Servovalve</tspan></text>
    <text
       id="text4390"
       y="127.44418"
       x="619.66168"
       style="font-size:14px;font-style:normal;font-variant:normal;font-weight:normal;font-stretch:normal;text-align:center;text-anchor:middle;fill:#000000;fill-opacity:1;stroke:none;font-family:TeXGyreAdventor;-inkscape-font-specification:TeXGyreAdventor"
       xml:space="preserve"><tspan
         y="127.44418"
         x="619.66168"
         id="tspan4392"
         sodipodi:role="line">Freins</tspan></text>
    <text
       id="text4394"
       y="207.63318"
       x="440.19873"
       style="font-size:14px;font-style:normal;font-variant:normal;font-weight:normal;font-stretch:normal;text-align:center;text-anchor:middle;fill:#000000;fill-opacity:1;stroke:none;font-family:TeXGyreAdventor;-inkscape-font-specification:TeXGyreAdventor"
       xml:space="preserve"><tspan
         y="207.63318"
         x="440.19873"
         id="tspan4396"
         sodipodi:role="line">Accéléromètre</tspan></text>
    <rect
       y="102.36217"
       x="200"
       height="40"
       width="120"
       id="rect4398"
       style="fill:none;stroke:#000000;stroke-width:0.99999988;stroke-linecap:round;stroke-linejoin:round;stroke-miterlimit:4;stroke-opacity:1;stroke-dasharray:none;stroke-dashoffset:0" />
    <rect
       style="fill:none;stroke:#000000;stroke-width:0.99999988;stroke-linecap:round;stroke-linejoin:round;stroke-miterlimit:4;stroke-opacity:1;stroke-dasharray:none;stroke-dashoffset:0"
       id="rect4400"
       width="120"
       height="40"
       x="200"
       y="102.36217" />
    <rect
       y="182.36218"
       x="380"
       height="40"
       width="120"
       id="rect4402"
       style="fill:none;stroke:#000000;stroke-width:0.99999988;stroke-linecap:round;stroke-linejoin:round;stroke-miterlimit:4;stroke-opacity:1;stroke-dasharray:none;stroke-dashoffset:0" />
    <rect
       style="fill:none;stroke:#000000;stroke-width:0.99999988;stroke-linecap:round;stroke-linejoin:round;stroke-miterlimit:4;stroke-opacity:1;stroke-dasharray:none;stroke-dashoffset:0"
       id="rect4404"
       width="120"
       height="40"
       x="560"
       y="102.36218" />
    <rect
       y="102.36218"
       x="380"
       height="40"
       width="120"
       id="rect4406"
       style="fill:none;stroke:#000000;stroke-width:0.99999988;stroke-linecap:round;stroke-linejoin:round;stroke-miterlimit:4;stroke-opacity:1;stroke-dasharray:none;stroke-dashoffset:0" />
    <path
       sodipodi:nodetypes="cc"
       id="path4408"
       d="m 320,122.36218 60,0"
       style="fill:none;stroke:#000000;stroke-width:1px;stroke-linecap:butt;stroke-linejoin:miter;stroke-opacity:1;marker-end:url(#Arrow1Lend)" />
    <path
       style="fill:none;stroke:#000000;stroke-width:1px;stroke-linecap:butt;stroke-linejoin:miter;stroke-opacity:1;marker-end:url(#Arrow1Lend)"
       d="m 500,122.36218 60,0"
       id="path5106"
       sodipodi:nodetypes="cc" />
    <path
       style="fill:none;stroke:#000000;stroke-width:1px;stroke-linecap:butt;stroke-linejoin:miter;stroke-opacity:1;marker-end:url(#Arrow1Lend)"
       d="m 130,122.36218 70,0"
       id="path5108"
       sodipodi:nodetypes="cc" />
    <path
       sodipodi:nodetypes="cc"
       id="path5112"
       d="m 680,122.36218 60,0"
       style="fill:none;stroke:#000000;stroke-width:1px;stroke-linecap:butt;stroke-linejoin:miter;stroke-opacity:1;marker-end:url(#Arrow1Lend)" />
    <path
       style="fill:none;stroke:#000000;stroke-width:1px;stroke-linecap:butt;stroke-linejoin:miter;stroke-opacity:1;marker-end:url(#Arrow1Lend)"
       d="m 710,202.36218 -210.00005,0"
       id="path5114"
       sodipodi:nodetypes="cc" />
    <path
       sodipodi:nodetypes="cc"
       id="path5116"
       d="m 710,122.36218 0,80"
       style="fill:none;stroke:#000000;stroke-width:1px;stroke-linecap:butt;stroke-linejoin:miter;stroke-opacity:1" />
    <path
       sodipodi:nodetypes="cc"
       id="path5118"
       d="m 110,202.36218 0,-60"
       style="fill:none;stroke:#000000;stroke-width:1px;stroke-linecap:butt;stroke-linejoin:miter;stroke-opacity:1;marker-end:url(#Arrow1Lend)" />
    <path
       d="m 130,122.36218 a 20,20 0 1 1 -40,0 20,20 0 1 1 40,0 z"
       sodipodi:ry="20"
       sodipodi:rx="20"
       sodipodi:cy="122.36218"
       sodipodi:cx="110"
       id="path5120"
       style="fill:none;stroke:#000000;stroke-width:0.99999988;stroke-linecap:round;stroke-linejoin:round;stroke-miterlimit:4;stroke-opacity:1;stroke-dasharray:none;stroke-dashoffset:0"
       sodipodi:type="arc" />
    <path
       style="fill:none;stroke:#000000;stroke-width:1px;stroke-linecap:butt;stroke-linejoin:miter;stroke-opacity:1"
       d="m 110,202.36217 269.99999,0"
       id="path5122"
       sodipodi:nodetypes="cc" />
    <path
       sodipodi:nodetypes="cc"
       id="path5124"
       d="m 20,122.36218 70,0"
       style="fill:none;stroke:#000000;stroke-width:1px;stroke-linecap:butt;stroke-linejoin:miter;stroke-opacity:1;marker-end:url(#Arrow1Lend)" />
    <path
       id="path5147"
       d="m 96.000003,108.36218 27.999997,28"
       style="fill:none;stroke:#000000;stroke-width:0.99999994px;stroke-linecap:butt;stroke-linejoin:miter;stroke-opacity:1" />
    <path
       style="fill:none;stroke:#000000;stroke-width:0.99999994px;stroke-linecap:butt;stroke-linejoin:miter;stroke-opacity:1"
       d="m 124,108.36218 -27.999999,28"
       id="path5151" />
    <text
       id="text5153"
       y="127.36218"
       x="98.488274"
       style="font-size:20.0316658px;font-style:normal;font-variant:normal;font-weight:normal;font-stretch:normal;text-align:center;text-anchor:middle;fill:#000000;fill-opacity:1;stroke:none;font-family:TeXGyreAdventor;-inkscape-font-specification:TeXGyreAdventor"
       xml:space="preserve"><tspan
         y="127.36218"
         x="98.488274"
         id="tspan5155"
         sodipodi:role="line">+</tspan></text>
    <text
       xml:space="preserve"
       style="font-size:28.0316658px;font-style:normal;font-variant:normal;font-weight:normal;font-stretch:normal;text-align:center;text-anchor:middle;fill:#000000;fill-opacity:1;stroke:none;font-family:TeXGyreAdventor;-inkscape-font-specification:TeXGyreAdventor"
       x="109.65369"
       y="142.36218"
       id="text5157"><tspan
         sodipodi:role="line"
         id="tspan5159"
         x="109.65369"
         y="142.36218">-</tspan></text>
    <g
       id="g5199"
       transform="matrix(0.51249071,0,0,0.51249071,-111.30201,-79.216306)">
      <g
         word-spacing="normal"
         letter-spacing="normal"
         font-size-adjust="none"
         font-stretch="normal"
         font-weight="normal"
         font-variant="normal"
         font-style="normal"
         fill-rule="even-odd"
         stroke-miterlimit="10.433"
         xml:space="preserve"
         transform="matrix(1.0629921,0,0,-1.0629921,-186.02362,789.27165)"
         id="content"
         style="font-style:normal;font-variant:normal;font-weight:normal;font-stretch:normal;letter-spacing:normal;word-spacing:normal;text-anchor:start;fill:none;stroke:#000000;stroke-width:1.95125484;stroke-linecap:butt;stroke-linejoin:miter;stroke-miterlimit:10.43299961;stroke-opacity:1;stroke-dasharray:none;stroke-dashoffset:0"><path
           id="path5202"
           d="m 474.58,424.83 -0.08,0.17 -0.09,0.17 -0.1,0.16 -0.09,0.16 -0.1,0.16 -0.1,0.16 -0.11,0.15 -0.11,0.14 -0.11,0.15 -0.12,0.13 -0.12,0.14 -0.12,0.13 -0.13,0.12 -0.13,0.12 -0.14,0.11 -0.14,0.11 -0.14,0.11 -0.15,0.09 -0.15,0.1 -0.15,0.08 -0.16,0.08 -0.17,0.08 -0.17,0.07 -0.17,0.06 -0.17,0.05 -0.19,0.05 -0.18,0.04 -0.19,0.03 -0.19,0.03 -0.2,0.02 -0.21,0.01 -0.2,0.01 0.05,-1.1 c 3.24,0 3.93,-4.08 3.93,-4.38 0,-0.3 -0.1,-0.6 -0.15,-0.85 l -2.49,-9.76 c -0.25,-0.9 -0.25,-1 -0.99,-1.84 -2.19,-2.75 -4.24,-3.54 -5.63,-3.54 -2.49,0 -3.19,2.74 -3.19,4.68 0,2.49 1.59,8.62 2.74,10.91 1.54,2.94 3.78,4.78 5.78,4.78 l -0.05,1.1 c -5.83,0 -12.01,-7.32 -12.01,-14.6 0,-4.68 2.74,-7.97 6.63,-7.97 0.99,0 3.49,0.2 6.47,3.74 0.4,-2.09 2.14,-3.74 4.53,-3.74 1.75,0 2.9,1.15 3.69,2.74 0.85,1.79 1.5,4.83 1.5,4.93 0,0.5 -0.45,0.5 -0.6,0.5 -0.5,0 -0.55,-0.2 -0.7,-0.89 -0.85,-3.24 -1.74,-6.18 -3.78,-6.18 -1.35,0 -1.5,1.29 -1.5,2.29 0,1.09 0.1,1.49 0.65,3.69 0.55,2.09 0.65,2.59 1.1,4.48 l 1.79,6.97 c 0.35,1.4 0.35,1.5 0.35,1.7 0,0.84 -0.6,1.34 -1.45,1.34 -1.19,0 -1.94,-1.09 -2.09,-2.19 z"
           style="fill:#000000;stroke-width:0" /><path
           id="path5204"
           d="m 497.27,412.36 -0.11,-0.03 -0.11,-0.02 -0.11,-0.03 -0.1,-0.04 -0.1,-0.04 -0.1,-0.04 -0.09,-0.04 -0.08,-0.05 -0.09,-0.05 -0.08,-0.06 -0.07,-0.05 -0.07,-0.06 -0.07,-0.07 -0.06,-0.06 -0.06,-0.07 -0.06,-0.06 -0.05,-0.07 -0.05,-0.07 -0.04,-0.08 -0.04,-0.07 -0.04,-0.07 -0.04,-0.08 -0.03,-0.07 -0.02,-0.08 -0.03,-0.08 -0.02,-0.07 -0.02,-0.08 -0.01,-0.07 -0.01,-0.08 -0.01,-0.07 0,-0.08 0,-0.07 c 0,-0.94 0.73,-1.29 1.36,-1.29 0.76,0 1.98,0.56 1.98,2.23 0,2.37 -2.72,3.04 -4.6,3.04 -5.23,0 -10.08,-4.81 -10.08,-9.66 0,-3 2.09,-6.07 6.45,-6.07 5.89,0 8.65,3.45 8.65,3.94 0,0.21 -0.31,0.59 -0.59,0.59 -0.21,0 -0.28,-0.07 -0.56,-0.34 -2.72,-3.21 -6.8,-3.21 -7.43,-3.21 -2.51,0 -3.63,1.71 -3.63,3.87 0,1.01 0.49,4.81 2.31,7.21 1.32,1.72 3.14,2.69 4.88,2.69 0.49,0 2.16,-0.07 3.03,-1.04 z"
           style="fill:#000000;stroke-width:0" /></g>    </g>
    <g
       id="g5382"
       transform="matrix(0.63590419,0,0,0.63590419,-41.464379,-112.22538)">
      <g
         word-spacing="normal"
         letter-spacing="normal"
         font-size-adjust="none"
         font-stretch="normal"
         font-weight="normal"
         font-variant="normal"
         font-style="normal"
         fill-rule="even-odd"
         stroke-miterlimit="10.433"
         xml:space="preserve"
         transform="matrix(1.0629921,0,0,-1.0629921,-186.02362,789.27165)"
         id="g5384"
         style="font-style:normal;font-variant:normal;font-weight:normal;font-stretch:normal;letter-spacing:normal;word-spacing:normal;text-anchor:start;fill:none;stroke:#000000;stroke-width:1.57256389;stroke-linecap:butt;stroke-linejoin:miter;stroke-miterlimit:10.43299961;stroke-opacity:1;stroke-dasharray:none;stroke-dashoffset:0"><path
           id="path5386"
           d="m 463.02,417.31 0.16,-0.06 0.15,-0.06 0.15,-0.06 0.15,-0.05 0.15,-0.05 0.15,-0.05 0.14,-0.04 0.15,-0.04 0.14,-0.03 0.15,-0.03 0.28,-0.06 0.27,-0.05 0.27,-0.03 0.27,-0.03 0.26,-0.02 0.26,-0.02 0.25,-0.01 0.24,-0.01 0.24,0 0.23,0 0.23,0 v 1.1 c -1.1,0 -1.7,0 -2.64,0.25 h 0 c 1.14,0.4 2.19,0.44 3.04,0.44 1.24,0 1.44,-0.04 2.34,-0.29 -0.75,-0.35 -0.85,-0.4 -2.74,-0.4 v -1.1 c 1.29,0 4.03,0 4.03,1.55 0,1.19 -1.74,1.34 -3.63,1.34 -1.05,0 -2.79,-0.1 -4.64,-0.95 -1.14,0.6 -1.99,1.55 -1.99,2.89 0,3.04 4.88,4.83 9.37,4.83 0.79,0 2.59,0 4.58,-1.39 0.55,-0.4 0.65,-0.5 0.99,-0.5 0.65,0 1.35,0.65 1.35,1.35 0,0.94 -3.04,2.84 -6.42,2.84 -5.74,0 -11.11,-3.34 -11.11,-7.13 0,-2.14 1.79,-3.39 1.99,-3.53 -2.94,-1.65 -4.53,-4.44 -4.53,-6.73 0,-3.24 2.83,-6.28 8.11,-6.28 6.58,0 9.37,4.39 9.37,5.14 0,0.29 -0.25,0.49 -0.55,0.49 -0.25,0 -0.4,-0.2 -0.5,-0.35 -0.69,-1.14 -1.89,-2.98 -7.87,-2.98 -3.04,0 -7.27,0.74 -7.27,4.28 0,1.69 1.39,4.33 4.43,5.83 z"
           style="fill:#000000;stroke-width:0" /></g>    </g>
    <g
       id="g5482"
       transform="matrix(0.44957743,0,0,0.44957743,211.61529,-50.450251)">
      <g
         id="g5484"
         transform="matrix(1.0629921,0,0,-1.0629921,-186.02362,789.27165)"
         xml:space="preserve"
         stroke-miterlimit="10.433"
         fill-rule="even-odd"
         font-style="normal"
         font-variant="normal"
         font-weight="normal"
         font-stretch="normal"
         font-size-adjust="none"
         letter-spacing="normal"
         word-spacing="normal"
         style="font-style:normal;font-variant:normal;font-weight:normal;font-stretch:normal;letter-spacing:normal;word-spacing:normal;text-anchor:start;fill:none;stroke:#000000;stroke-width:2.22431087;stroke-linecap:butt;stroke-linejoin:miter;stroke-miterlimit:10.43299961;stroke-opacity:1;stroke-dasharray:none;stroke-dashoffset:0"><path
           d="m 470.15,437.13 0,0.1 -0.01,0.09 -0.01,0.09 -0.01,0.09 -0.02,0.08 -0.02,0.09 -0.03,0.08 -0.03,0.08 -0.03,0.08 -0.04,0.08 -0.04,0.08 -0.04,0.07 -0.05,0.07 -0.05,0.07 -0.06,0.06 -0.05,0.06 -0.07,0.06 -0.06,0.06 -0.07,0.05 -0.07,0.05 -0.07,0.05 -0.08,0.04 -0.08,0.04 -0.08,0.04 -0.09,0.03 -0.09,0.03 -0.09,0.02 -0.1,0.02 -0.1,0.02 -0.1,0.01 -0.1,0 -0.11,0.01 c -1.34,0 -2.69,-1.3 -2.69,-2.64 0,-0.95 0.7,-1.8 1.9,-1.8 1.14,0 2.64,1.15 2.64,2.64 z"
           id="path5486"
           style="fill:#000000;stroke-width:0" /><path
           d="m 466.36,418.4 0.05,0.13 0.05,0.13 0.05,0.12 0.05,0.11 0.04,0.1 0.04,0.1 0.04,0.09 0.03,0.09 0.04,0.09 0.03,0.08 0.03,0.08 0.03,0.08 0.03,0.07 0.02,0.07 0.05,0.15 0.06,0.14 0.05,0.14 0.02,0.07 0.03,0.08 0.03,0.08 0.03,0.08 0.03,0.08 0.03,0.09 0.04,0.09 0.03,0.1 0.04,0.11 0.04,0.1 0.04,0.12 0.05,0.12 c 0.4,1 0.65,1.69 0.65,2.64 0,2.25 -1.6,4.09 -4.09,4.09 -4.68,0 -6.57,-7.23 -6.57,-7.67 0,-0.5 0.49,-0.5 0.59,-0.5 0.5,0 0.55,0.1 0.8,0.9 1.34,4.68 3.34,6.17 5.03,6.17 0.4,0 1.25,0 1.25,-1.59 0,-1.05 -0.35,-2.1 -0.55,-2.59 -0.4,-1.3 -2.64,-7.08 -3.44,-9.22 -0.5,-1.29 -1.15,-2.94 -1.15,-3.98 0,-2.34 1.7,-4.09 4.09,-4.09 4.68,0 6.52,7.23 6.52,7.67 0,0.5 -0.44,0.5 -0.59,0.5 -0.5,0 -0.5,-0.15 -0.75,-0.89 -0.89,-3.14 -2.54,-6.18 -5.08,-6.18 -0.85,0 -1.2,0.5 -1.2,1.64 0,1.25 0.3,1.94 1.45,4.98 z"
           id="path5488"
           style="fill:#000000;stroke-width:0" /></g>    </g>
    <g
       id="g5592"
       transform="matrix(0.51249071,0,0,0.51249071,-29.492508,1.2760706)">
      <g
         word-spacing="normal"
         letter-spacing="normal"
         font-size-adjust="none"
         font-stretch="normal"
         font-weight="normal"
         font-variant="normal"
         font-style="normal"
         fill-rule="even-odd"
         stroke-miterlimit="10.433"
         xml:space="preserve"
         transform="matrix(1.0629921,0,0,-1.0629921,-186.02362,789.27165)"
         id="g5594"
         style="font-style:normal;font-variant:normal;font-weight:normal;font-stretch:normal;letter-spacing:normal;word-spacing:normal;text-anchor:start;fill:none;stroke:#000000;stroke-width:1.95125473;stroke-linecap:butt;stroke-linejoin:miter;stroke-miterlimit:10.43299961;stroke-opacity:1;stroke-dasharray:none;stroke-dashoffset:0"><path
           id="path5596"
           d="m 474.58,424.83 -0.08,0.17 -0.09,0.17 -0.1,0.16 -0.09,0.16 -0.1,0.16 -0.1,0.16 -0.11,0.15 -0.11,0.14 -0.11,0.15 -0.12,0.13 -0.12,0.14 -0.12,0.13 -0.13,0.12 -0.13,0.12 -0.14,0.11 -0.14,0.11 -0.14,0.11 -0.15,0.09 -0.15,0.1 -0.15,0.08 -0.16,0.08 -0.17,0.08 -0.17,0.07 -0.17,0.06 -0.17,0.05 -0.19,0.05 -0.18,0.04 -0.19,0.03 -0.19,0.03 -0.2,0.02 -0.21,0.01 -0.2,0.01 0.05,-1.1 c 3.24,0 3.93,-4.08 3.93,-4.38 0,-0.3 -0.1,-0.6 -0.15,-0.85 l -2.49,-9.76 c -0.25,-0.9 -0.25,-1 -0.99,-1.84 -2.19,-2.75 -4.24,-3.54 -5.63,-3.54 -2.49,0 -3.19,2.74 -3.19,4.68 0,2.49 1.59,8.62 2.74,10.91 1.54,2.94 3.78,4.78 5.78,4.78 l -0.05,1.1 c -5.83,0 -12.01,-7.32 -12.01,-14.6 0,-4.68 2.74,-7.97 6.63,-7.97 0.99,0 3.49,0.2 6.47,3.74 0.4,-2.09 2.14,-3.74 4.53,-3.74 1.75,0 2.9,1.15 3.69,2.74 0.85,1.79 1.5,4.83 1.5,4.93 0,0.5 -0.45,0.5 -0.6,0.5 -0.5,0 -0.55,-0.2 -0.7,-0.89 -0.85,-3.24 -1.74,-6.18 -3.78,-6.18 -1.35,0 -1.5,1.29 -1.5,2.29 0,1.09 0.1,1.49 0.65,3.69 0.55,2.09 0.65,2.59 1.1,4.48 l 1.79,6.97 c 0.35,1.4 0.35,1.5 0.35,1.7 0,0.84 -0.6,1.34 -1.45,1.34 -1.19,0 -1.94,-1.09 -2.09,-2.19 z"
           style="fill:#000000;stroke-width:0" /><path
           id="path5598"
           d="m 497.13,401.82 -0.01,-0.06 -0.02,-0.07 -0.02,-0.07 -0.02,-0.08 -0.02,-0.07 -0.02,-0.08 -0.04,-0.16 -0.04,-0.16 -0.04,-0.16 -0.04,-0.16 -0.02,-0.07 -0.02,-0.08 -0.02,-0.08 -0.01,-0.07 -0.02,-0.07 -0.02,-0.07 -0.01,-0.07 -0.02,-0.06 -0.01,-0.06 -0.01,-0.06 -0.01,-0.05 -0.02,-0.05 0,-0.04 -0.01,-0.04 -0.01,-0.04 0,-0.03 0,-0.02 -0.01,-0.02 c 0,-0.77 0.63,-1.12 1.19,-1.12 0.63,0 1.19,0.46 1.36,0.77 0.17,0.31 0.45,1.43 0.63,2.16 0.17,0.66 0.56,2.27 0.77,3.14 0.2,0.76 0.41,1.53 0.59,2.33 0.38,1.5 0.38,1.57 1.08,2.65 1.12,1.71 2.86,3.7 5.58,3.7 1.95,0 2.05,-1.6 2.05,-2.44 0,-2.09 -1.5,-5.96 -2.05,-7.43 -0.39,-0.97 -0.52,-1.29 -0.52,-1.88 0,-1.85 1.53,-3 3.31,-3 3.48,0 5.02,4.81 5.02,5.33 0,0.46 -0.45,0.46 -0.56,0.46 -0.49,0 -0.52,-0.21 -0.66,-0.59 -0.81,-2.79 -2.3,-4.22 -3.7,-4.22 -0.73,0 -0.87,0.49 -0.87,1.22 0,0.8 0.18,1.25 0.8,2.82 0.42,1.08 1.85,4.78 1.85,6.73 0,0.56 0,2.03 -1.29,3.04 -0.59,0.45 -1.6,0.94 -3.24,0.94 -3.14,0 -5.06,-2.06 -6.18,-3.52 -0.27,2.96 -2.75,3.52 -4.53,3.52 -2.89,0 -4.84,-1.78 -5.89,-3.18 -0.24,2.41 -2.3,3.18 -3.73,3.18 -1.5,0 -2.3,-1.08 -2.76,-1.88 -0.76,-1.3 -1.25,-3.29 -1.25,-3.46 0,-0.45 0.49,-0.45 0.59,-0.45 0.49,0 0.52,0.11 0.77,1.05 0.52,2.05 1.18,3.76 2.54,3.76 0.91,0 1.16,-0.77 1.16,-1.71 0,-0.66 -0.32,-1.95 -0.56,-2.89 -0.25,-0.94 -0.6,-2.37 -0.77,-3.14 l -1.12,-4.46 c -0.14,-0.46 -0.34,-1.33 -0.34,-1.43 0,-0.77 0.62,-1.12 1.18,-1.12 0.63,0 1.19,0.46 1.36,0.77 0.17,0.31 0.45,1.43 0.63,2.16 0.17,0.66 0.56,2.27 0.76,3.14 0.21,0.76 0.43,1.53 0.6,2.33 0.38,1.43 0.45,1.71 1.46,3.14 0.98,1.4 2.62,3.21 5.23,3.21 2.03,0 2.06,-1.78 2.06,-2.44 0,-0.87 -0.1,-1.32 -0.59,-3.28 z"
           style="fill:#000000;stroke-width:0" /></g>    </g>
    <g
       id="g5710"
       transform="matrix(0.3940482,0,0,0.3940482,395.97675,-31.994604)">
      <g
         id="g5712"
         transform="matrix(1.0629921,0,0,-1.0629921,-186.02362,789.27165)"
         xml:space="preserve"
         stroke-miterlimit="10.433"
         fill-rule="even-odd"
         font-style="normal"
         font-variant="normal"
         font-weight="normal"
         font-stretch="normal"
         font-size-adjust="none"
         letter-spacing="normal"
         word-spacing="normal"
         style="font-style:normal;font-variant:normal;font-weight:normal;font-stretch:normal;letter-spacing:normal;word-spacing:normal;text-anchor:start;fill:none;stroke:#000000;stroke-width:2.53776073;stroke-linecap:butt;stroke-linejoin:miter;stroke-miterlimit:10.43299961;stroke-opacity:1;stroke-dasharray:none;stroke-dashoffset:0"><path
           d="m 471.09,421.74 0.2,1.3 3.39,13.55 c 0.45,1.74 0.55,1.89 2.69,1.89 h 4.78 c 4.14,0 6.78,-1.35 6.78,-4.78 0,-1.95 -1,-6.23 -2.94,-8.02 -2.49,-2.25 -5.48,-2.64 -7.67,-2.64 h -7.03 l -0.2,-1.3 h 8.47 c 7.08,0 14,5.18 14,10.76 0,3.84 -3.29,7.52 -9.81,7.52 h -16.14 c -0.95,0 -1.5,0 -1.5,-0.95 0,-0.59 0.45,-0.59 1.45,-0.59 0.64,0 1.54,-0.05 2.14,-0.1 0.8,-0.1 1.09,-0.25 1.09,-0.8 0,-0.2 -0.04,-0.35 -0.2,-0.94 l -6.67,-26.75 c -0.5,-1.95 -0.6,-2.35 -4.53,-2.35 -0.85,0 -1.4,0 -1.4,-0.94 0,-0.6 0.6,-0.6 0.75,-0.6 h 12.75 c 0.35,0 1,0 1,1 0,0.54 -0.45,0.54 -1.4,0.54 -1.84,0 -3.23,0 -3.23,0.9 0,0.3 0.1,0.55 0.14,0.85 z"
           id="path5714"
           style="fill:#000000;stroke-width:0" /><path
           d="m 498.91,422.15 0.01,0.01 0,0 0,0 0,0.01 0,0.01 0.01,0 0,0.01 0,0 0,0.02 0.01,0.02 0.01,0.02 0,0.01 0.01,0.02 0,0.03 0.01,0.02 0,0.02 0.01,0.02 0.01,0.03 0.01,0.04 0.01,0.05 0,0.03 0.01,0.02 0,0.02 0.01,0.02 0,0.02 0.01,0.02 0,0.02 0,0.01 0.01,0.01 0,0.01 0,0 0,0.01 0,0.01 0,0 0,0.01 0,0 0,0 0,0.01 0,0 0,0 c 0,0.18 -0.14,0.49 -0.55,0.49 -0.7,0 -3.6,-0.28 -4.47,-0.35 -0.28,-0.03 -0.76,-0.07 -0.76,-0.8 0,-0.49 0.48,-0.49 0.9,-0.49 1.67,0 1.67,-0.24 1.67,-0.52 0,-0.25 -0.06,-0.46 -0.13,-0.77 l -4.92,-19.73 c -0.18,-0.63 -0.18,-0.7 -0.18,-0.77 0,-0.53 0.43,-1.12 1.19,-1.12 0.38,0 1.05,0.17 1.43,0.91 0.11,0.21 0.42,1.46 0.59,2.19 l 0.8,3.11 c 0.11,0.52 0.46,1.85 0.56,2.37 0.35,1.32 0.35,1.36 1.05,2.47 1.11,1.71 2.86,3.7 5.58,3.7 1.95,0 2.06,-1.6 2.06,-2.44 0,-2.09 -1.5,-5.96 -2.06,-7.43 -0.38,-0.97 -0.52,-1.29 -0.52,-1.88 0,-1.85 1.53,-3 3.31,-3 3.49,0 5.02,4.81 5.02,5.33 0,0.46 -0.46,0.46 -0.56,0.46 -0.49,0 -0.52,-0.21 -0.66,-0.59 -0.8,-2.79 -2.34,-4.22 -3.7,-4.22 -0.73,0 -0.87,0.49 -0.87,1.22 0,0.8 0.17,1.25 0.8,2.82 0.42,1.08 1.85,4.78 1.85,6.73 0,0.56 0,2.03 -1.29,3.04 -0.59,0.45 -1.6,0.94 -3.24,0.94 -2.55,0 -4.4,-1.4 -5.68,-2.9 z"
           id="path5716"
           style="fill:#000000;stroke-width:0" /></g>    </g>
    <g
       id="g5836"
       transform="matrix(0.66689642,0,0,0.66689642,504.68587,-129.40123)">
      <g
         word-spacing="normal"
         letter-spacing="normal"
         font-size-adjust="none"
         font-stretch="normal"
         font-weight="normal"
         font-variant="normal"
         font-style="normal"
         fill-rule="even-odd"
         stroke-miterlimit="10.433"
         xml:space="preserve"
         transform="matrix(1.0629921,0,0,-1.0629921,-186.02362,789.27165)"
         id="g5838"
         style="font-style:normal;font-variant:normal;font-weight:normal;font-stretch:normal;letter-spacing:normal;word-spacing:normal;text-anchor:start;fill:none;stroke:#000000;stroke-width:1.49948335;stroke-linecap:butt;stroke-linejoin:miter;stroke-miterlimit:10.43299961;stroke-opacity:1;stroke-dasharray:none;stroke-dashoffset:0"><path
           id="path5840"
           d="m 474.58,424.83 -0.08,0.17 -0.09,0.17 -0.1,0.16 -0.09,0.16 -0.1,0.16 -0.1,0.16 -0.11,0.15 -0.11,0.14 -0.11,0.15 -0.12,0.13 -0.12,0.14 -0.12,0.13 -0.13,0.12 -0.13,0.12 -0.14,0.11 -0.14,0.11 -0.14,0.11 -0.15,0.09 -0.15,0.1 -0.15,0.08 -0.16,0.08 -0.17,0.08 -0.17,0.07 -0.17,0.06 -0.17,0.05 -0.19,0.05 -0.18,0.04 -0.19,0.03 -0.19,0.03 -0.2,0.02 -0.21,0.01 -0.2,0.01 0.05,-1.1 c 3.24,0 3.93,-4.08 3.93,-4.38 0,-0.3 -0.1,-0.6 -0.15,-0.85 l -2.49,-9.76 c -0.25,-0.9 -0.25,-1 -0.99,-1.84 -2.19,-2.75 -4.24,-3.54 -5.63,-3.54 -2.49,0 -3.19,2.74 -3.19,4.68 0,2.49 1.59,8.62 2.74,10.91 1.54,2.94 3.78,4.78 5.78,4.78 l -0.05,1.1 c -5.83,0 -12.01,-7.32 -12.01,-14.6 0,-4.68 2.74,-7.97 6.63,-7.97 0.99,0 3.49,0.2 6.47,3.74 0.4,-2.09 2.14,-3.74 4.53,-3.74 1.75,0 2.9,1.15 3.69,2.74 0.85,1.79 1.5,4.83 1.5,4.93 0,0.5 -0.45,0.5 -0.6,0.5 -0.5,0 -0.55,-0.2 -0.7,-0.89 -0.85,-3.24 -1.74,-6.18 -3.78,-6.18 -1.35,0 -1.5,1.29 -1.5,2.29 0,1.09 0.1,1.49 0.65,3.69 0.55,2.09 0.65,2.59 1.1,4.48 l 1.79,6.97 c 0.35,1.4 0.35,1.5 0.35,1.7 0,0.84 -0.6,1.34 -1.45,1.34 -1.19,0 -1.94,-1.09 -2.09,-2.19 z"
           style="fill:#000000;stroke-width:0" /></g>    </g>
  </g>
</svg>
